<?xml version="1.0" encoding="UTF-8"?>
<!DOCTYPE svg PUBLIC "-//W3C//DTD SVG 1.1//EN" "http://www.w3.org/Graphics/SVG/1.1/DTD/svg11.dtd">
<!-- Creator: CorelDRAW X7 -->
<svg xmlns="http://www.w3.org/2000/svg" xml:space="preserve" width="100%" height="100%" version="1.1" style="shape-rendering:geometricPrecision; text-rendering:geometricPrecision; image-rendering:optimizeQuality; fill-rule:evenodd; clip-rule:evenodd"
viewBox="0 0 500 500"
 xmlns:xlink="http://www.w3.org/1999/xlink">
 <defs>
  <style type="text/css">
   <![CDATA[
    .str0 {stroke:#303030;stroke-width:10.061}
    .str1 {stroke:#2B2A29;stroke-width:9.68}
    .fil1 {fill:#2EACFF}
    .fil0 {fill:url(#id0)}
   ]]>
  </style>
  <linearGradient id="id0" gradientUnits="userSpaceOnUse" x1="250" y1="182.474" x2="250" y2="45.534">
   <stop offset="0" style="stop-opacity:1; stop-color:#008EED"/>
   <stop offset="1" style="stop-opacity:1; stop-color:#2EACFF"/>
  </linearGradient>
 </defs>
 <g id="Layer_x0020_1">
  <metadata id="CorelCorpID_0Corel-Layer"/>
  <path class="fil0 str0" d="M120 173l0 -29c0,-6 3,-12 8,-16l108 -90c8,-7 20,-7 28,0l108 90c5,4 8,10 8,16l0 29c0,9 -5,17 -13,20 -8,4 -17,3 -24,-3l-79 -66c-8,-7 -20,-7 -28,0l-79 66c-7,6 -16,7 -24,3 -8,-3 -13,-11 -13,-20z"/>
  <circle class="fil1 str1" cx="250" cy="428" r="40"/>
  <circle class="fil1 str1" cx="250" cy="223" r="40"/>
  <circle class="fil1 str1" cx="250" cy="325" r="40"/>
 </g>
</svg>
