<?xml version="1.0" encoding="UTF-8"?>
<!DOCTYPE svg PUBLIC "-//W3C//DTD SVG 1.1//EN" "http://www.w3.org/Graphics/SVG/1.1/DTD/svg11.dtd">
<!-- Creator: CorelDRAW X7 -->
<svg xmlns="http://www.w3.org/2000/svg" xml:space="preserve" width="100%" height="100%" version="1.1" style="shape-rendering:geometricPrecision; text-rendering:geometricPrecision; image-rendering:optimizeQuality; fill-rule:evenodd; clip-rule:evenodd"
viewBox="0 0 5000 5000"
 xmlns:xlink="http://www.w3.org/1999/xlink">
 <defs>
  <style type="text/css">
   <![CDATA[
    .fil0 {fill:#303030}
   ]]>
  </style>
 </defs>
 <g id="Layer_x0020_1">
  <metadata id="CorelCorpID_0Corel-Layer"/>
  <path class="fil0" d="M1700 199c828,0 1500,671 1500,1500 0,828 -672,1500 -1500,1500 -829,0 -1500,-672 -1500,-1500 0,-829 671,-1500 1500,-1500zm820 4202c111,0 200,90 200,200 0,111 -89,200 -200,200l-640 0c-187,0 -357,-76 -480,-199 -123,-123 -200,-293 -200,-481 0,-187 77,-357 200,-480 123,-123 293,-200 480,-200l640 0c111,0 200,90 200,200 0,111 -89,200 -200,200l-640 0c-76,0 -146,32 -197,83 -51,51 -83,121 -83,197 0,77 32,147 83,198 51,51 121,82 197,82l640 0zm1026 -481c111,0 200,90 200,200 0,111 -89,200 -200,200l-1091 0c-111,0 -200,-89 -200,-200 0,-110 89,-200 200,-200l1091 0zm-76 -81c-110,0 -200,-89 -200,-200 0,-110 90,-200 200,-200l640 0c187,0 360,78 485,201 126,124 205,294 205,481 0,188 -76,358 -199,481 -123,123 -293,199 -481,199l-640 0c-110,0 -200,-89 -200,-200 0,-110 90,-200 200,-200l640 0c77,0 147,-31 198,-82 51,-51 82,-121 82,-198 0,-75 -32,-145 -84,-196 -54,-53 -127,-86 -206,-86l-640 0zm-2039 -2057l234 0c-7,102 -43,180 -107,236 -142,123 -421,110 -553,-25 -143,-146 -143,-447 -1,-593 131,-135 407,-148 549,-28 64,54 100,131 108,231l-237 0c-3,-40 -16,-69 -38,-89 -53,-49 -159,-39 -201,23 -50,72 -50,246 2,318 45,63 150,74 204,21 23,-22 36,-53 40,-94zm836 0l234 0c-7,102 -43,180 -107,236 -142,123 -420,110 -552,-25 -143,-146 -143,-447 -1,-593 130,-135 406,-148 549,-28 63,54 99,131 107,231l-236 0c-4,-40 -17,-69 -39,-89 -53,-49 -158,-39 -201,23 -50,72 -50,246 2,318 45,63 150,74 205,21 22,-22 35,-53 39,-94zm639 -83c0,666 -540,1206 -1206,1206 -667,0 -1207,-540 -1207,-1206 0,-667 540,-1207 1207,-1207 666,0 1206,540 1206,1207z"/>
 </g>
</svg>
