<?xml version="1.0" encoding="UTF-8"?>
<!DOCTYPE svg PUBLIC "-//W3C//DTD SVG 1.1//EN" "http://www.w3.org/Graphics/SVG/1.1/DTD/svg11.dtd">
<!-- Creator: CorelDRAW X7 -->
<svg xmlns="http://www.w3.org/2000/svg" xml:space="preserve" width="100%" height="100%" version="1.1" style="shape-rendering:geometricPrecision; text-rendering:geometricPrecision; image-rendering:optimizeQuality; fill-rule:evenodd; clip-rule:evenodd"
viewBox="0 0 500 500"
 xmlns:xlink="http://www.w3.org/1999/xlink">
 <defs>
  <style type="text/css">
   <![CDATA[
    .str0 {stroke:#303030;stroke-width:10}
    .str2 {stroke:#303030;stroke-width:5}
    .str1 {stroke:#303030;stroke-width:15}
    .str3 {stroke:#F2F2F2;stroke-width:15;stroke-linecap:round}
    .fil1 {fill:none}
    .fil2 {fill:#008BFF}
    .fil3 {fill:#303030}
    .fil0 {fill:url(#id0)}
   ]]>
  </style>
  <linearGradient id="id0" gradientUnits="userSpaceOnUse" x1="250.004" y1="392.985" x2="250.004" y2="277.783">
   <stop offset="0" style="stop-opacity:1; stop-color:#0078C8"/>
   <stop offset="1" style="stop-opacity:1; stop-color:#17A2FF"/>
  </linearGradient>
 </defs>
 <g id="Layer_x0020_1">
  <metadata id="CorelCorpID_0Corel-Layer"/>
  <path class="fil0 str0" d="M150 415l200 0c55,0 100,-45 100,-100l0 -60 -400 0 0 60c0,55 45,100 100,100z"/>
  <path class="fil1 str1" d="M178 105c0,-26 -21,-47 -46,-47 -26,0 -47,21 -47,47l0 131"/>
  <path class="fil2 str2" d="M177 130l-35 0c0,-19 16,-35 35,-35 20,0 35,16 35,35l-35 0z"/>
  <path class="fil1 str3" d="M80 307c0,44 36,80 80,80"/>
  <path class="fil3" d="M40 255l420 0c6,0 10,-4 10,-10 0,-5 -4,-10 -10,-10l-420 0c-6,0 -10,5 -10,10 0,6 4,10 10,10z"/>
  <g id="_1562513504">
   <path class="fil3" d="M59 425l30 -30c6,4 12,8 18,11l-34 33c-3,4 -10,4 -14,0 -4,-4 -4,-10 0,-14z"/>
   <path class="fil3" d="M444 425l-32 -32c-5,5 -11,8 -17,11l35 35c4,4 10,4 14,0 4,-4 4,-10 0,-14z"/>
  </g>
 </g>
</svg>
