<?xml version="1.0" encoding="UTF-8"?>
<!DOCTYPE svg PUBLIC "-//W3C//DTD SVG 1.1//EN" "http://www.w3.org/Graphics/SVG/1.1/DTD/svg11.dtd">
<!-- Creator: CorelDRAW X6 -->
<svg xmlns="http://www.w3.org/2000/svg" xml:space="preserve" width="100%" height="100%" version="1.1" style="shape-rendering:geometricPrecision; text-rendering:geometricPrecision; image-rendering:optimizeQuality; fill-rule:evenodd; clip-rule:evenodd"
viewBox="0 0 500 500"
 xmlns:xlink="http://www.w3.org/1999/xlink">
 <defs>
  <style type="text/css">
   <![CDATA[

    .str1 {stroke:#303030;stroke-width:10}
    .str2 {stroke:#333333;stroke-width:10}
    .str3 {stroke:#434242;stroke-width:16.876;stroke-linecap:round}
    .fil4 {fill:none}
   .fil5 {fill:#434242;fill-rule:nonzero}
    .fil2 {fill:url(#id0)}
    .fil3 {fill:url(#id1)}
    .fil1 {fill:url(#id2)}
   ]]>
  </style>
  <linearGradient id="id0" gradientUnits="userSpaceOnUse" x1="250.005" y1="60.006" x2="250.005" y2="440.004">
   <stop offset="0" style="stop-color:#F2F2F2"/>
   <stop offset="1" style="stop-color:#D8D8D8"/>
  </linearGradient>
  <linearGradient id="id1" gradientUnits="userSpaceOnUse" x1="250.005" y1="93.202" x2="250.005" y2="406.808">
   <stop offset="0" style="stop-color:#D8D8D8"/>
   <stop offset="1" style="stop-color:#F2F2F2"/>
  </linearGradient>
  <linearGradient id="id2" gradientUnits="userSpaceOnUse" x1="43.005" y1="250.005" x2="457.005" y2="250.005">
   <stop offset="0" style="stop-color:#0081D8"/>
   <stop offset="0.478431" style="stop-color:#27A9FF"/>
   <stop offset="1" style="stop-color:#0081D8"/>
  </linearGradient>
 </defs>
 <g id="Layer_x0020_1">
  <metadata id="CorelCorpID_0Corel-Layer"/>
  <circle id="mainback" class="fil1 str1" cx="250" cy="250" r="230"/>
  <circle id="dial1" class="fil2 str2" cx="250" cy="250" r="190"/>
  <circle id="dial2" class="fil3" cx="250" cy="250" r="160"/>
  <path class="fil4 str3" d="M250 402l0 29m0 -362l0 29m-152 152l-29 0m362 0l-29 0"/>
  <g>
   <path class="fil5" d="M167 114l-13 -22 7 -4 13 22 -7 4zm172 298l-13 -22 7 -4 13 22 -7 4zm-229 -238l-22 -13 4 -7 22 13 -4 7zm298 172l-22 -13 4 -7 22 13 -4 7zm-22 -179l22 -13 4 7 -22 13 -4 -7zm-298 172l22 -13 4 7 -22 13 -4 -7zm238 -229l13 -22 7 4 -13 22 -7 -4zm-172 298l13 -22 7 4 -13 22 -7 -4z"/>
  </g>
 </g>
</svg>
