<?xml version="1.0" encoding="UTF-8"?>
<!DOCTYPE svg PUBLIC "-//W3C//DTD SVG 1.1//EN" "http://www.w3.org/Graphics/SVG/1.1/DTD/svg11.dtd">
<!-- Creator: CorelDRAW X7 -->
<svg xmlns="http://www.w3.org/2000/svg" xml:space="preserve" width="100%" height="100%" version="1.1" style="shape-rendering:geometricPrecision; text-rendering:geometricPrecision; image-rendering:optimizeQuality; fill-rule:evenodd; clip-rule:evenodd"
viewBox="0 0 5000 5000"
 xmlns:xlink="http://www.w3.org/1999/xlink">
 <defs>
  <style type="text/css">
   <![CDATA[
    .fil0 {fill:#0078C8}
    .fil2 {fill:#303030}
    .fil3 {fill:#ED2F00}
    .fil1 {fill:#F2F2F2}
    .fil4 {fill:white}
   ]]>
  </style>
 </defs>
 <g id="Layer_x0020_1">
  <metadata id="CorelCorpID_0Corel-Layer"/>
  <path class="fil0" d="M2350 200c1187,0 2150,963 2150,2150 0,1296 -885,2150 -2150,2150 -1187,0 -2150,-963 -2150,-2150 0,-1187 963,-2150 2150,-2150z"/>
  <path class="fil1" d="M2257 4030l0 -325c0,-51 42,-93 93,-93 51,0 93,42 93,93l0 325c99,-5 195,-19 289,-41 -65,-127 -102,-271 -102,-424 0,-516 419,-935 935,-935 153,0 297,37 424,102 22,-94 36,-190 41,-289l-325 0c-51,0 -93,-42 -93,-93 0,-51 42,-93 93,-93l325 0c-47,-855 -732,-1540 -1587,-1587l0 325c0,51 -42,93 -93,93 -51,0 -93,-42 -93,-93l0 -325c-855,47 -1540,732 -1587,1587l325 0c51,0 93,42 93,93 0,51 -42,93 -93,93l-325 0c47,855 732,1540 1587,1587z"/>
  <path class="fil2" d="M2208 2126c2,-2 4,-3 6,-5l-246 -921c-14,-49 16,-101 66,-114 50,-13 101,16 114,66l247 921c40,3 80,15 117,36 44,26 79,62 102,104l1149 -308c38,-10 76,12 86,49 10,38 -12,76 -50,86l-1148 308c0,48 -12,97 -38,141 -21,37 -50,67 -82,90l16 63c14,50 -16,101 -66,114 -49,14 -101,-16 -114,-66l-17 -63c-40,-3 -80,-15 -117,-36 -44,-26 -79,-62 -102,-104l-291 78c-38,10 -76,-12 -86,-49 -10,-38 12,-76 49,-86l291 -78c0,-11 1,-21 2,-32l-689 -398c-54,-31 -72,-100 -41,-153 31,-54 99,-72 153,-41l689 398z"/>
  <path class="fil3" d="M3650 2500c635,0 1150,515 1150,1150 0,635 -515,1150 -1150,1150 -635,0 -1150,-515 -1150,-1150 0,-635 515,-1150 1150,-1150z"/>
  <path class="fil4" d="M3650 2746c499,0 904,405 904,904 0,499 -405,904 -904,904 -499,0 -904,-405 -904,-904 0,-499 405,-904 904,-904z"/>
 </g>
</svg>
