<?xml version="1.0" encoding="UTF-8"?>
<!DOCTYPE svg PUBLIC "-//W3C//DTD SVG 1.1//EN" "http://www.w3.org/Graphics/SVG/1.1/DTD/svg11.dtd">
<!-- Creator: CorelDRAW X6 -->
<svg xmlns="http://www.w3.org/2000/svg" xml:space="preserve" width="100%" height="100%" version="1.1" style="shape-rendering:geometricPrecision; text-rendering:geometricPrecision; image-rendering:optimizeQuality; fill-rule:evenodd; clip-rule:evenodd"
viewBox="0 0 500 500"
 xmlns:xlink="http://www.w3.org/1999/xlink">
 <defs>
  <style type="text/css">
   <![CDATA[

    .str2 {stroke:#282828;stroke-width:5}
    .str1 {stroke:#303030;stroke-width:10}
    .fil4 {fill:#303030}
    .fil2 {fill:#F2F2F2}
   .fil1 {fill:url(#id0)}
    .fil3 {fill:url(#id1)}
   ]]>
  </style>
  <linearGradient id="id0" gradientUnits="userSpaceOnUse" x1="250.005" y1="30.006" x2="250.005" y2="470.004">
   <stop offset="0" style="stop-color:#0099FF"/>
   <stop offset="1" style="stop-color:#0083DB"/>
  </linearGradient>
  <linearGradient id="id1" gradientUnits="userSpaceOnUse" x1="250.005" y1="122.407" x2="250.005" y2="377.603">
   <stop offset="0" style="stop-color:#D8D8D8"/>
   <stop offset="1" style="stop-color:#F2F2F2"/>
  </linearGradient>
 </defs>
 <g id="Layer_x0020_1">
  <metadata id="CorelCorpID_0Corel-Layer"/>
  <circle class="fil1 str1" cx="250" cy="250" r="220"/>
  <path class="fil2" d="M251 447c3,0 4,-3 4,-7 0,-8 -6,-7 -8,-5 -3,4 -1,12 4,12zm-19 -11c0,-23 11,-32 33,-29l0 10c-5,-1 -13,-1 -17,3 -2,2 -3,5 -4,9l1 0c4,-8 15,-7 20,-1 6,7 6,29 -14,29 -13,0 -19,-9 -19,-21zm56 -343l-36 0 0 -9c1,-1 19,-18 21,-23 3,-6 -2,-9 -8,-6 -2,1 -4,3 -6,4l-7 -8c6,-6 11,-8 19,-8 15,0 20,13 13,24 -2,4 -8,9 -14,15l0 0 18 0 0 11zm-47 0l-13 0 0 -35 -9 8 -7 -9 17 -14 12 0 0 50zm-154 155c0,18 -8,27 -27,27 -3,0 -5,0 -7,0l0 -11c10,2 21,0 22,-12l-1 0c-2,5 -5,6 -10,6 -16,0 -17,-21 -9,-29 7,-7 32,-9 32,19zm362 -12c0,7 -5,11 -11,13l0 0c8,1 12,5 12,11 0,17 -22,18 -35,13l0 -12c5,3 14,5 19,3 2,-2 4,-8 -3,-9l-9 -1 0 -10c6,0 14,0 14,-5 0,-3 -3,-4 -6,-4 -3,0 -6,1 -10,3l-5 -9c5,-3 10,-5 17,-5 8,0 17,3 17,12zm-381 -1c-6,0 -6,9 -4,11 3,4 9,2 9,-3 0,-4 -1,-8 -5,-8z"/>
  <circle class="fil3 str2" cx="250" cy="250" r="145"/>
  <path class="fil4" d="M238 223c0,0 -1,0 -1,0l-64 -63c-4,-4 -10,-4 -14,0 -4,3 -4,10 0,14l64 64c-2,3 -3,8 -3,12 0,6 1,11 4,15l-70 71c-3,3 -3,8 0,11 2,2 7,2 10,0l71 -71c8,5 19,5 28,1l2 3c4,4 11,4 15,0 3,-4 3,-10 0,-14l-3 -3c4,-9 3,-19 -2,-28l13 -12c3,-3 3,-8 0,-11 -3,-2 -8,-2 -11,0l-12 13c-1,-1 -2,-1 -3,-2l0 -65c0,-7 -6,-12 -12,-12 -7,0 -12,5 -12,12l0 65z"/>
 </g>
</svg>
