<?xml version="1.0" encoding="UTF-8"?>
<!DOCTYPE svg PUBLIC "-//W3C//DTD SVG 1.1//EN" "http://www.w3.org/Graphics/SVG/1.1/DTD/svg11.dtd">
<!-- Creator: CorelDRAW X6 -->
<svg xmlns="http://www.w3.org/2000/svg" xml:space="preserve" width="100%" height="100%" version="1.1" style="shape-rendering:geometricPrecision; text-rendering:geometricPrecision; image-rendering:optimizeQuality; fill-rule:evenodd; clip-rule:evenodd"
viewBox="0 0 500 500"
 xmlns:xlink="http://www.w3.org/1999/xlink">
 <defs>
  <style type="text/css">
   <![CDATA[

    .str1 {stroke:#303030;stroke-width:5}
    .fil5 {fill:none}
    .fil2 {fill:#303030}
    .fil1 {fill:#333333}
   .fil4 {fill:url(#id0)}
    .fil3 {fill:url(#id1)}
   ]]>
  </style>
  <linearGradient id="id0" gradientUnits="userSpaceOnUse" x1="35.907" y1="357.505" x2="401.607" y2="357.505">
   <stop offset="0" style="stop-color:#0083DB"/>
   <stop offset="1" style="stop-color:#005792"/>
  </linearGradient>
  <linearGradient id="id1" gradientUnits="userSpaceOnUse" x1="70.606" y1="175.791" x2="429.404" y2="175.791">
   <stop offset="0" style="stop-color:#0083DB"/>
   <stop offset="1" style="stop-color:#2EACFF"/>
  </linearGradient>
 </defs>
 <g id="Layer_x0020_1">
  <metadata id="CorelCorpID_0Corel-Layer"/>
  <path class="fil1" d="M218 390c0,-4 3,-7 7,-7 4,0 7,3 7,7l0 25c0,4 -3,7 -7,7 -4,0 -7,-3 -7,-7l0 -25z"/>
  <path class="fil1" d="M218 105c0,-4 3,-7 7,-7 4,0 7,3 7,7l0 25c0,4 -3,7 -7,7 -4,0 -7,-3 -7,-7l0 -25z"/>
  <path class="fil1" d="M95 253c4,0 7,3 7,7 0,4 -3,7 -7,7l-25 0c-4,0 -7,-3 -7,-7 0,-4 3,-7 7,-7l25 0z"/>
  <path class="fil1" d="M88 184c-2,-1 -2,-4 -1,-5 1,-2 3,-3 4,-2l19 11c2,1 2,3 1,5 -1,2 -3,2 -4,1l-19 -10z"/>
  <path class="fil1" d="M340 329c-2,-1 -2,-3 -1,-5 1,-1 3,-2 4,-1l19 11c2,1 2,3 1,5 0,1 -3,2 -4,1l-19 -11z"/>
  <path class="fil1" d="M144 125c-1,-2 -1,-4 1,-5 2,-1 4,0 5,1l11 19c1,2 0,4 -2,5 -1,1 -3,1 -4,-1l-11 -19z"/>
  <path class="fil1" d="M289 377c-1,-2 0,-4 2,-5 1,-1 3,0 4,2l11 18c1,2 1,4 -1,5 -2,1 -4,1 -5,-1l-11 -19z"/>
  <path class="fil1" d="M300 121c1,-1 3,-2 5,-1 2,1 2,3 1,5l-11 19c-1,2 -3,2 -4,1 -2,-1 -3,-3 -2,-5l11 -19z"/>
  <path class="fil1" d="M155 374c1,-2 3,-3 4,-2 2,1 3,3 2,5l-11 19c-1,2 -3,2 -5,1 -2,-1 -2,-3 -1,-5l11 -18z"/>
  <path class="fil1" d="M359 177c1,-1 4,0 5,2 0,1 0,4 -2,5l-19 10c-1,1 -3,1 -4,-1 -1,-2 -1,-4 1,-5l19 -11z"/>
  <path class="fil1" d="M107 323c1,-1 3,0 4,1 1,2 1,4 -1,5l-19 11c-1,1 -3,0 -4,-1 -1,-2 -1,-4 1,-5l19 -11z"/>
  <path class="fil2" d="M225 241c4,0 7,2 10,3l70 -70c2,-1 4,-1 6,0 1,2 1,4 0,6l-70 70c1,2 2,5 2,7l78 21c4,1 6,5 5,9 -1,4 -5,6 -9,5l-72 -19 23 23c2,2 2,5 0,7 -2,2 -5,2 -7,0l-27 -27c-3,2 -6,3 -9,3 -4,0 -7,-2 -10,-3l-27 26c-1,2 -4,2 -5,0 -2,-1 -2,-4 0,-5l26 -27c-1,-2 -2,-5 -2,-7l-19 -5c-4,-1 -6,-5 -5,-9 1,-4 5,-6 9,-5l13 3 -66 -66c-2,-2 -2,-5 0,-7 2,-2 5,-2 7,0l70 70c3,-2 6,-3 9,-3z"/>
  <path class="fil3" d="M45 255c0,-98 79,-177 178,-177 98,0 177,79 177,177l-33 0 56 57 57 -57 -30 0c0,-119 -96,-215 -215,-215 -119,0 -215,96 -215,215l25 0 0 0 0 0z"/>
  <path class="fil4" d="M20 255l0 0c0,113 92,205 205,205 88,0 164,-56 193,-134l-9 -9c-25,73 -95,126 -176,126 -104,0 -188,-84 -188,-188l-25 0z"/>
  <path class="fil5 str1" d="M45 255c0,-98 79,-177 178,-177 98,0 177,79 177,177l-33 0 56 57 57 -57 -30 0c0,-119 -96,-215 -215,-215 -119,0 -215,96 -215,215l0 0c0,113 92,205 205,205 88,0 164,-56 193,-134l-9 -9c-25,73 -95,126 -176,126 -104,0 -188,-84 -188,-188l0 0z"/>
 </g>
</svg>
