<?xml version="1.0" encoding="UTF-8"?>
<!DOCTYPE svg PUBLIC "-//W3C//DTD SVG 1.1//EN" "http://www.w3.org/Graphics/SVG/1.1/DTD/svg11.dtd">
<!-- Creator: CorelDRAW X6 -->
<svg xmlns="http://www.w3.org/2000/svg" xml:space="preserve" width="100%" height="100%" version="1.1" style="shape-rendering:geometricPrecision; text-rendering:geometricPrecision; image-rendering:optimizeQuality; fill-rule:evenodd; clip-rule:evenodd"
viewBox="0 0 500 500"
 xmlns:xlink="http://www.w3.org/1999/xlink">
 <defs>
  <style type="text/css">
   <![CDATA[
    .str1 {stroke:#D1ECFF;stroke-width:1}
    .str0 {stroke:#E8F6FF;stroke-width:1}
    .fil2 {fill:#004D80}
    .fil0 {fill:#0062A4}
    .fil6 {fill:#303030}
    .fil7 {fill:#484848}
    .fil9 {fill:#5DBEFF}
    .fil5 {fill:#8BD1FF}
    .fil8 {fill:#CEE6A2}
    .fil3 {fill:#D1ECFF}
    .fil1 {fill:#E8F6FF}
    .fil10 {fill:#FF3300}
    .fil4 {fill:#303030;fill-rule:nonzero}
   ]]>
  </style>
 </defs>
 <g id="Layer_x0020_1">
  <metadata id="CorelCorpID_0Corel-Layer"/>
  <path class="fil0" d="M250 250l0 230c127,0 230,-103 230,-230 0,-127 -103,-230 -230,-230l0 230z"/>
  <path class="fil1 str0" d="M250 250l0 210c116,0 210,-94 210,-210 0,-116 -94,-210 -210,-210l0 210z"/>
  <path class="fil2" d="M250 250l0 230c-127,0 -230,-103 -230,-230 0,-127 103,-230 230,-230l0 230z"/>
  <path class="fil3 str1" d="M250 250l0 210c-116,0 -210,-94 -210,-210 0,-116 94,-210 210,-210l0 210z"/>
  <path class="fil4" d="M60 268l7 -1 1 5 -8 1 0 -5zm3 20l7 -2 1 5 -7 2 -1 -5zm5 19l7 -2 2 5 -8 2 -1 -5zm7 19l7 -3 2 5 -7 3 -2 -5zm19 35l7 -4 3 4 -7 4 -3 -4zm13 16l6 -5 3 4 -6 5 -3 -4zm14 15l5 -6 4 3 -5 6 -4 -3zm16 13l4 -7 4 3 -4 7 -4 -3zm34 20l3 -7 5 2 -3 7 -5 -2zm19 8l2 -8 5 2 -2 7 -5 -1zm19 5l2 -7 5 1 -2 7 -5 -1zm20 4l1 -8 5 0 -1 8 -5 0zm41 0l-1 -8 5 0 1 8 -5 0zm20 -3l-2 -7 5 -1 2 7 -5 1zm19 -5l-2 -7 5 -2 2 8 -5 1zm19 -7l-3 -7 5 -2 3 7 -5 2zm35 -19l-4 -7 4 -3 5 7 -5 3zm16 -13l-5 -6 4 -3 5 6 -4 3zm15 -14l-6 -5 3 -4 6 5 -3 4zm13 -16l-7 -4 3 -4 7 4 -3 4zm20 -34l-7 -3 2 -5 7 3 -2 5zm8 -19l-8 -2 2 -5 7 2 -1 5zm5 -19l-7 -2 1 -5 7 2 -1 5zm4 -20l-8 -1 1 -5 7 1 0 5zm-210 -215l1 7 -5 1 -1 -8 5 0zm-20 3l2 7 -5 1 -2 -7 5 -1zm-19 5l2 7 -5 1 -2 -7 5 -1zm-19 7l3 7 -5 2 -3 -7 5 -2zm-35 19l4 7 -4 2 -4 -6 4 -3zm-16 13l5 6 -4 3 -5 -6 4 -3zm-15 14l6 5 -3 4 -6 -5 3 -4zm-13 15l7 5 -3 4 -7 -5 3 -4zm-20 35l7 3 -2 5 -7 -3 2 -5zm-8 19l8 2 -2 5 -7 -2 1 -5zm-5 19l7 2 -1 5 -7 -2 1 -5zm-4 20l8 1 -1 5 -7 -1 0 -5zm384 5l-7 1 -1 -5 8 -1 0 5zm-3 -20l-7 2 -1 -5 7 -2 1 5zm-5 -19l-7 2 -2 -5 8 -2 1 5zm-7 -19l-7 3 -2 -5 7 -3 2 5zm-19 -35l-7 4 -3 -4 7 -4 3 4zm-13 -16l-6 5 -3 -4 6 -5 3 4zm-14 -15l-5 6 -4 -3 5 -6 4 3zm-16 -13l-4 7 -4 -3 4 -7 4 3zm-34 -20l-3 7 -5 -2 3 -7 5 2zm-19 -8l-2 8 -5 -2 2 -7 5 1zm-19 -5l-2 7 -5 -1 2 -7 5 1zm-20 -4l-1 8 -5 0 1 -8 5 0z"/>
  <path class="fil5" d="M296 403l-27 -105c-1,-6 -2,-16 -3,-19l-3 -13 11 3c4,1 8,-17 5,-18l-3 0 17 -11 98 -62c4,-2 -1,-10 -4,-8l-103 54c0,0 -27,15 -27,15l-1 1 -5 -18c-1,-3 -4,-5 -7,-4 -3,1 -5,4 -4,7l4 16 -6 -2c0,0 -26,-6 -26,-6l-96 -21c-4,0 -6,8 -3,9l94 30 20 6 -13 8c-4,2 5,18 9,16l28 -16 4 17c1,3 5,12 7,18l29 104c1,4 6,3 5,-1z"/>
  <path class="fil4" d="M421 353l-24 -14 3 -7 25 15 -4 6zm-74 72l-15 -25 7 -3 14 24 -6 4zm-268 -278l24 14 -3 7 -25 -15 4 -6zm74 -72l15 25 -7 3 -14 -24 6 -4zm200 4l-14 24 -7 -3 15 -25 6 4zm72 74l-25 15 -3 -7 24 -14 4 6zm-278 268l14 -24 7 3 -15 25 -6 -4zm-72 -74l25 -15 3 7 -24 14 -4 -6zm179 -297l0 29 -8 0 0 -29 8 0zm196 204l-29 0 0 -8 29 0 0 8zm-204 196l0 -29 8 0 0 29 -8 0zm-196 -204l29 0 0 8 -29 0 0 -8z"/>
  <path class="fil6" d="M114 208l96 21c0,0 26,6 26,6l41 12c3,1 -1,19 -5,18l-41 -10c0,0 -26,-8 -26,-8l-94 -30c-3,-1 -1,-9 3,-9z"/>
  <path class="fil7" d="M253 240l24 7c0,0 1,1 1,2l-6 3 -16 9 -25 -6 -1 -1 23 -14z"/>
  <path class="fil6" d="M389 174l-98 62c0,0 -26,16 -26,16l-44 25c-4,2 -13,-14 -9,-16l43 -26c0,0 27,-15 27,-15l103 -54c3,-2 8,6 4,8z"/>
  <path class="fil8" d="M372 179c1,1 0,2 -1,2 -30,18 -51,32 -82,50 -2,1 -4,0 -5,-2 -1,-1 0,-3 1,-4 31,-18 54,-29 84,-47 1,-1 3,0 3,1z"/>
  <path class="fil8" d="M129 217c0,-1 1,-1 2,-1 24,7 41,10 66,17 1,0 2,2 2,3 -1,1 -2,2 -3,1 -25,-6 -42,-12 -66,-18 -1,0 -1,-1 -1,-2z"/>
  <path class="fil9" d="M203 137l94 0c5,0 8,4 8,8l0 30c0,4 -3,8 -8,8l-94 0c-5,0 -8,-4 -8,-8l0 -30c0,-4 3,-8 8,-8zm5 37l0 -28 8 0 5 19 5 -19 8 0 0 28 -5 0 0 -22 -5 22 -6 0 -5 -22 0 22 -5 0zm31 -14c0,-3 0,-5 1,-7 1,-1 2,-3 3,-4 1,-1 2,-2 3,-2 2,-1 4,-1 6,-1 4,0 8,1 10,3 3,3 4,7 4,11 0,5 -1,8 -4,11 -2,2 -5,3 -10,3 -4,0 -7,-1 -9,-3 -3,-3 -4,-6 -4,-11zm6 0c0,3 0,6 2,7 1,2 3,3 5,3 3,0 4,-1 6,-3 1,-1 2,-4 2,-7 0,-3 -1,-6 -2,-7 -1,-2 -3,-3 -6,-3 -2,0 -4,1 -5,3 -2,1 -2,4 -2,7zm25 14l0 -28 6 0 11 19 0 -19 5 0 0 28 -5 0 -12 -18 0 18 -5 0z"/>
  <path class="fil10" d="M293 401l-27 -105c-1,-6 -2,-16 -3,-19l-5 -18c3,-2 5,-5 5,-9 0,-6 -5,-11 -10,-12l-5 -18c-1,-3 -4,-5 -7,-4 -3,1 -5,4 -4,7l5 18c-3,2 -4,5 -4,9 0,6 4,11 9,12l5 18c1,3 5,12 7,18l29 104c1,4 6,3 5,-1zm-43 -159c4,0 8,4 8,8 0,4 -4,8 -8,8 -4,0 -8,-4 -8,-8 0,-4 4,-8 8,-8z"/>
  <path class="fil4" d="M241 120l-4 0 0 -24c-1,1 -2,2 -3,3 -2,1 -3,2 -4,2l0 -4c2,-1 4,-2 5,-3 2,-2 3,-3 4,-4l2 0 0 30zm19 267l-4 0c-1,-1 -1,-2 -2,-3 -1,-1 -2,-1 -3,-1 -2,0 -3,0 -3,1 -2,0 -3,2 -3,3 -1,2 -1,4 -1,7 1,-1 2,-2 3,-3 1,0 3,-1 4,-1 3,0 5,1 6,3 2,2 3,4 3,7 0,2 0,4 -1,5 -1,2 -2,3 -4,4 -1,1 -3,1 -4,1 -4,0 -6,-1 -8,-3 -2,-2 -3,-6 -3,-11 0,-6 1,-10 3,-13 2,-2 5,-3 8,-3 2,0 4,0 6,2 1,1 2,3 3,5zm-16 13c0,1 1,3 1,4 1,1 1,2 2,3 1,0 2,0 3,0 2,0 3,0 5,-1 1,-2 1,-3 1,-6 0,-2 0,-3 -1,-5 -2,-1 -3,-1 -5,-1 -1,0 -3,0 -4,1 -1,2 -2,3 -2,5zm-156 -142l3 0c0,2 1,3 2,4 1,0 2,1 3,1 1,0 2,-1 3,-1 1,-1 2,-1 2,-2 1,-1 1,-2 2,-4 0,-1 0,-3 0,-4 0,0 0,-1 0,-1 0,1 -2,2 -3,3 -1,1 -2,1 -4,1 -2,0 -5,-1 -6,-3 -2,-2 -3,-4 -3,-7 0,-3 1,-6 3,-7 2,-2 4,-3 7,-3 2,0 3,0 5,1 2,1 3,3 4,5 1,2 1,5 1,8 0,4 0,7 -1,10 -1,2 -2,4 -4,5 -2,1 -4,2 -6,2 -2,0 -4,-1 -6,-2 -1,-2 -2,-3 -2,-6zm15 -13c0,-2 -1,-4 -2,-5 -1,-1 -2,-2 -4,-2 -2,0 -3,1 -4,2 -2,1 -2,3 -2,5 0,2 0,4 2,5 1,1 2,2 4,2 2,0 3,-1 4,-2 1,-1 2,-3 2,-5zm287 12l4 0c0,2 1,3 2,4 1,1 2,2 4,2 1,0 3,-1 4,-2 1,-1 2,-3 2,-5 0,-1 -1,-3 -2,-4 -1,-1 -2,-2 -4,-2 -1,0 -2,1 -3,1l1 -3c0,0 0,0 0,0 2,0 3,-1 5,-2 1,0 2,-2 2,-3 0,-2 -1,-3 -2,-4 -1,-1 -2,-1 -3,-1 -2,0 -3,0 -4,1 -1,1 -2,2 -2,4l-4 0c1,-3 2,-5 4,-6 1,-2 3,-2 6,-2 1,0 3,0 4,1 2,1 3,2 3,3 1,1 1,2 1,4 0,1 0,2 -1,3 0,1 -1,2 -3,3 2,0 3,1 4,2 1,2 2,3 2,5 0,3 -1,5 -3,7 -2,2 -4,3 -7,3 -3,0 -5,-1 -7,-3 -2,-1 -3,-3 -3,-6zm-120 -140l0 3 -20 0c0,-1 0,-2 1,-2 0,-2 1,-3 2,-4 1,-2 3,-3 5,-5 3,-3 5,-5 7,-6 1,-2 1,-3 1,-5 0,-1 0,-3 -1,-4 -1,-1 -3,-1 -4,-1 -2,0 -4,0 -5,1 -1,2 -1,3 -1,5l-4 0c0,-3 1,-5 3,-7 1,-1 4,-2 7,-2 3,0 5,1 7,2 1,2 2,4 2,6 0,1 0,3 -1,4 0,1 -1,2 -2,3 -1,2 -3,4 -6,6 -2,2 -4,3 -4,4 -1,0 -1,1 -2,2l15 0z"/>
 </g>
</svg>
