<?xml version="1.0" encoding="UTF-8"?>
<!DOCTYPE svg PUBLIC "-//W3C//DTD SVG 1.1//EN" "http://www.w3.org/Graphics/SVG/1.1/DTD/svg11.dtd">
<!-- Creator: CorelDRAW X6 -->
<svg xmlns="http://www.w3.org/2000/svg" xml:space="preserve" width="100%" height="100%" version="1.1" style="shape-rendering:geometricPrecision; text-rendering:geometricPrecision; image-rendering:optimizeQuality; fill-rule:evenodd; clip-rule:evenodd"
viewBox="0 0 440 460"
 xmlns:xlink="http://www.w3.org/1999/xlink">
 <defs>
  <style type="text/css">
   <![CDATA[
    .fil2 {fill:#0062A4}
    .fil0 {fill:#0078C8}
    .fil3 {fill:#008EED}
    .fil1 {fill:#17A2FF}
    .fil7 {fill:#303030}
    .fil5 {fill:#74C7FF}
    .fil6 {fill:#A2DAFF}
    .fil8 {fill:#FF3300}
    .fil4 {fill:white}
    .fil9 {fill:white;fill-rule:nonzero}
   ]]>
  </style>
 </defs>
 <g id="Layer_x0020_1">
  <metadata id="CorelCorpID_0Corel-Layer"/>
  <g id="_1000493056">
   <path class="fil0" d="M38 20l182 0 0 440 -182 0c-21,0 -38,-17 -38,-38l0 -364c0,-21 17,-38 38,-38z"/>
   <path class="fil1" d="M38 0l182 0 0 440 -182 0c-21,0 -38,-17 -38,-38l0 -364c0,-21 17,-38 38,-38z"/>
   <path class="fil2" d="M402 20l-182 0 0 440 182 0c21,0 38,-17 38,-38l0 -364c0,-21 -17,-38 -38,-38z"/>
   <path class="fil3" d="M402 0l-182 0 0 440 182 0c21,0 38,-17 38,-38l0 -364c0,-21 -17,-38 -38,-38z"/>
   <path class="fil4" d="M220 420c110,0 200,-90 200,-200 0,-110 -90,-200 -200,-200 -110,0 -200,90 -200,200 0,110 90,200 200,200z"/>
   <path class="fil5" d="M220 220l0 190c105,0 190,-85 190,-190 0,-105 -85,-190 -190,-190l0 190z"/>
   <path class="fil6" d="M220 220l0 190c-105,0 -190,-85 -190,-190 0,-105 85,-190 190,-190l0 190z"/>
   <path class="fil7" d="M375 175c-31,10 -62,22 -93,32 -31,10 -64,18 -95,28 -3,1 -6,-7 -2,-8 31,-9 62,-22 94,-31 31,-9 63,-17 95,-26 3,-1 4,4 1,5z"/>
   <path class="fil7" d="M120 138c1,-1 3,-2 4,-1 21,15 43,30 64,45 9,7 17,14 25,22 7,-3 15,-1 20,4 4,5 5,11 4,17 4,3 7,6 11,9 3,2 -6,12 -8,10 -4,-3 -7,-6 -11,-9 -7,4 -16,3 -22,-3 -4,-5 -5,-11 -4,-16 -9,-6 -18,-13 -26,-20 -20,-17 -38,-36 -58,-54 -1,-1 -1,-2 1,-4z"/>
   <path class="fil8" d="M112 332c0,0 0,-1 1,-2 21,-23 42,-45 63,-67 12,-13 24,-25 36,-37 -3,-3 -2,-9 1,-12 3,-4 9,-5 13,-2 5,-5 10,-10 15,-15 2,-3 5,0 2,2 -5,5 -10,10 -14,16 2,3 2,8 -1,12 -3,3 -9,4 -13,2 -12,12 -23,25 -35,37 -22,22 -44,43 -66,65 -1,1 -2,1 -2,1z"/>
   <path class="fil9" d="M387 311c2,1 3,4 2,7 -2,2 -5,3 -7,1l-23 -13c-3,-2 -4,-5 -2,-7 1,-2 4,-3 7,-2l23 14zm-68 71c2,2 1,5 -2,7 -2,1 -5,0 -6,-2l-14 -23c-1,-3 0,-6 2,-7 2,-2 5,-1 7,2l13 23zm-266 -253c-2,-1 -3,-4 -2,-7 2,-2 5,-3 7,-1l23 13c3,2 4,5 2,7 -1,2 -4,3 -7,2l-23 -14zm68 -71c-2,-2 -1,-5 2,-7 2,-1 5,0 6,2l14 23c1,3 0,6 -2,7 -2,2 -5,1 -7,-2l-13 -23zm190 -5c1,-2 4,-3 6,-2 3,2 4,5 2,7l-13 23c-2,3 -5,4 -7,2 -2,-1 -3,-4 -2,-7l14 -23zm71 68c2,-2 5,-1 7,2 1,2 0,5 -2,6l-23 14c-3,1 -6,0 -7,-2 -2,-2 -1,-5 2,-7l23 -13zm-253 266c-1,2 -4,3 -6,2 -3,-2 -4,-5 -2,-7l13 -23c2,-3 5,-4 7,-2 2,1 3,4 2,7l-14 23zm-71 -68c-2,2 -5,1 -7,-1 -1,-3 0,-6 2,-7l23 -14c3,-1 6,0 7,2 2,2 1,5 -2,7l-23 13zm157 -289c0,-3 2,-5 5,-5 3,0 5,2 5,5l0 27c0,3 -2,5 -5,5 -3,0 -5,-2 -5,-5l0 -27zm195 185c3,0 5,2 5,5 0,3 -2,5 -5,5l-27 0c-3,0 -5,-2 -5,-5 0,-3 2,-5 5,-5l27 0zm-185 195c0,3 -2,5 -5,5 -3,0 -5,-2 -5,-5l0 -27c0,-3 2,-5 5,-5 3,0 5,2 5,5l0 27zm-195 -185c-3,0 -5,-2 -5,-5 0,-3 2,-5 5,-5l27 0c3,0 5,2 5,5 0,3 -2,5 -5,5l-27 0z"/>
  </g>
 </g>
</svg>
