<?xml version="1.0" encoding="UTF-8"?>
<!DOCTYPE svg PUBLIC "-//W3C//DTD SVG 1.1//EN" "http://www.w3.org/Graphics/SVG/1.1/DTD/svg11.dtd">
<!-- Creator: CorelDRAW X6 -->
<svg xmlns="http://www.w3.org/2000/svg" xml:space="preserve" width="100%" height="100%" version="1.1" style="shape-rendering:geometricPrecision; text-rendering:geometricPrecision; image-rendering:optimizeQuality; fill-rule:evenodd; clip-rule:evenodd"
viewBox="0 0 500 500"
 xmlns:xlink="http://www.w3.org/1999/xlink">
 <defs>
  <style type="text/css">
   <![CDATA[

    .fil1 {fill:#0078C8}
    .fil2 {fill:#0099FF}
    .fil4 {fill:#303030}
    .fil5 {fill:#686868}
    .fil3 {fill:#E8F6FF}
    .fil6 {fill:#ED2F00}
  ]]>
  </style>
 </defs>
 <g id="Layer_x0020_1">
  <metadata id="CorelCorpID_0Corel-Layer"/>
  <path class="fil1" d="M474 342l0 79c0,31 -26,57 -57,57l-324 0c-32,0 -58,-26 -58,-57l0 -79 439 0z"/>
  <rect class="fil2" x="35" y="18" width="439" height="439" rx="57" ry="57"/>
  <rect class="fil3" x="56" y="39" width="397" height="397" rx="37" ry="37"/>
  <rect class="fil4" transform="matrix(3.00358E-014 0.810746 -0.8962 1.73271E-014 270.464 91.476)" width="245.002" height="34.998"/>
  <rect class="fil5" transform="matrix(-0.724155 -0.724155 0.422431 -0.422431 380.456 378.295)" width="245.002" height="34.998"/>
  <path class="fil6" d="M103 382l140 -139c-1,-2 -1,-3 -1,-5 0,-7 6,-13 13,-13 1,0 3,0 5,1l35 -36 8 7 -36 36c1,2 1,3 1,5 0,7 -6,13 -13,13 -2,0 -4,0 -5,-1l-139 139 -8 -7z"/>
 </g>
</svg>
