<?xml version="1.0" encoding="UTF-8"?>
<!DOCTYPE svg PUBLIC "-//W3C//DTD SVG 1.1//EN" "http://www.w3.org/Graphics/SVG/1.1/DTD/svg11.dtd">
<!-- Creator: CorelDRAW X6 -->
<svg xmlns="http://www.w3.org/2000/svg" xml:space="preserve" width="100%" height="100%" version="1.1" style="shape-rendering:geometricPrecision; text-rendering:geometricPrecision; image-rendering:optimizeQuality; fill-rule:evenodd; clip-rule:evenodd"
viewBox="0 0 500 500"
 xmlns:xlink="http://www.w3.org/1999/xlink">
 <defs>
  <style type="text/css">
   <![CDATA[

    .fil6 {fill:#005792}
    .fil4 {fill:#0083DB}
    .fil5 {fill:#008EED}
    .fil9 {fill:#303030}
    .fil1 {fill:#46B5FF}
    .fil11 {fill:#707070}
    .fil3 {fill:#A2DAFF}
    .fil7 {fill:#B62400}
    .fil12 {fill:#BEBEBE}
    .fil10 {fill:#F2F2F2}
    .fil8 {fill:#FF3300}
   .fil2 {fill:url(#id0)}
   ]]>
  </style>
  <linearGradient id="id0" gradientUnits="userSpaceOnUse" x1="250.004" y1="158.004" x2="250.004" y2="352.004">
   <stop offset="0" style="stop-color:#D8D8D8"/>
   <stop offset="0.121569" style="stop-color:#F2F2F2"/>
   <stop offset="0.839216" style="stop-color:#F8F8F8"/>
   <stop offset="1" style="stop-color:#D8D8D8"/>
  </linearGradient>
 </defs>
 <g id="Layer_x0020_1">
  <metadata id="CorelCorpID_0Corel-Layer"/>
  <path class="fil1" d="M40 120l420 0c11,0 20,9 20,20l0 220c0,11 -9,20 -20,20l-420 0c-11,0 -20,-9 -20,-20l0 -220c0,-11 9,-20 20,-20z"/>
  <rect class="fil2" x="50" y="158" width="400" height="194"/>
  <path class="fil3" d="M480 142l0 -5c0,-11 -9,-20 -20,-20l-420 0c-11,0 -20,9 -20,20l0 5c0,-11 9,-20 20,-20l420 0c11,0 20,9 20,20z"/>
  <path class="fil4" d="M480 358l0 5c0,11 -9,20 -20,20l-420 0c-11,0 -20,-9 -20,-20l0 -5c0,11 9,20 20,20l420 0c11,0 20,-9 20,-20z"/>
  <path class="fil5" d="M217 195l25 39c0,0 7,11 7,11l10 18c0,1 -1,2 -3,3l0 1 -42 -72 0 0c1,-1 2,-1 3,0z"/>
  <path class="fil6" d="M256 267c-2,1 -4,1 -5,0l-10 -17c0,0 -6,-11 -6,-11l-22 -42c0,-1 0,-2 1,-2l42 72z"/>
  <path class="fil6" d="M313 295l-48 -26c0,0 -14,-7 -14,-7l-20 -13c-1,0 -1,-2 1,-4l84 49c-1,1 -2,1 -3,1z"/>
  <path class="fil5" d="M232 245c1,-2 2,-3 3,-3l21 12c0,0 13,8 13,8l47 29c0,1 0,2 0,3l0 0 -84 -49z"/>
  <path class="fil7" d="M212 321l27 -45c1,-3 4,-6 5,-8l5 -7c2,0 4,-1 5,-3 1,-2 1,-4 0,-6l4 -8c1,-1 1,-3 -1,-3l-46 80c0,0 1,0 1,0z"/>
  <path class="fil8" d="M211 321c-1,0 -1,-1 -1,-2l26 -45c1,-2 3,-7 3,-8l5 -8c-1,-2 -1,-4 0,-6 1,-2 3,-3 5,-3l4 -7c1,-2 3,-2 4,-2l0 1c-15,26 -31,53 -46,80z"/>
  <circle class="fil9" transform="matrix(0.180473 0.0483576 -0.0483576 0.180473 248.99 255.049)" r="20"/>
  <polygon class="fil10" points="52,355 448,355 450,352 50,352 "/>
  <polygon class="fil11" points="52,155 448,155 450,158 50,158 "/>
  <path class="fil12" d="M250 180c2,0 3,2 3,3l0 11c0,2 -1,3 -3,3 -2,0 -3,-1 -3,-3l0 -11c0,-1 1,-3 3,-3z"/>
  <path class="fil12" d="M250 313c2,0 3,1 3,3l0 11c0,1 -1,3 -3,3 -2,0 -3,-2 -3,-3l0 -11c0,-2 1,-3 3,-3z"/>
  <path class="fil12" d="M134 255c0,3 -2,5 -5,5l-14 0c-3,0 -5,-2 -5,-5 0,-3 2,-5 5,-5l14 0c3,0 5,2 5,5z"/>
  <path class="fil12" d="M390 255c0,3 -2,5 -5,5l-14 0c-3,0 -5,-2 -5,-5 0,-3 2,-5 5,-5l14 0c3,0 5,2 5,5z"/>
  <path class="fil12" d="M313 192c1,1 1,1 0,2l-3 3c-1,1 -2,1 -2,0 -1,0 -1,-1 0,-2l3 -3c1,-1 2,-1 2,0z"/>
  <path class="fil12" d="M192 313c1,0 1,1 0,2l-3 3c-1,1 -1,1 -2,0 -1,-1 -1,-1 0,-2l3 -3c1,-1 2,-1 2,0z"/>
  <path class="fil12" d="M313 318c0,1 -1,1 -2,0l-3 -3c-1,-1 -1,-2 0,-2 0,-1 1,-1 2,0l3 3c1,1 1,1 0,2z"/>
  <path class="fil12" d="M192 197c0,1 -1,1 -2,0l-3 -3c-1,-1 -1,-1 0,-2 1,-1 1,-1 2,0l3 3c1,1 1,2 0,2z"/>
  <path class="fil12" d="M354 283c0,1 -1,2 -1,1l-5 -1c-1,0 -1,-1 -1,-2 0,0 1,-1 2,-1l4 1c1,1 2,2 1,2z"/>
  <path class="fil12" d="M150 229c0,0 -1,1 -1,1l-5 -1c-1,-1 -1,-2 -1,-2 0,-1 1,-2 2,-1l4 1c1,0 2,1 1,2z"/>
  <path class="fil12" d="M354 227c1,0 0,1 -1,2l-4 1c-1,0 -2,-1 -2,-1 0,-1 0,-2 1,-2l5 -1c0,-1 1,0 1,1z"/>
  <path class="fil12" d="M150 281c1,1 0,2 -1,2l-4 1c-1,1 -2,0 -2,-1 0,0 0,-1 1,-2l5 -1c0,0 1,1 1,1z"/>
  <path class="fil6" d="M250 176c2,0 4,2 4,4l0 10c0,2 -2,4 -4,4 -2,0 -4,-2 -4,-4l0 -10c0,-2 2,-4 4,-4z"/>
  <path class="fil6" d="M250 316c2,0 4,2 4,4l0 10c0,2 -2,4 -4,4 -2,0 -4,-2 -4,-4l0 -10c0,-2 2,-4 4,-4z"/>
  <path class="fil6" d="M128 255c0,3 -3,5 -5,5l-15 0c-3,0 -5,-2 -5,-5 0,-3 2,-5 5,-5l15 0c2,0 5,2 5,5z"/>
  <path class="fil6" d="M398 255c0,3 -3,5 -5,5l-15 0c-3,0 -5,-2 -5,-5 0,-3 2,-5 5,-5l15 0c2,0 5,2 5,5z"/>
  <path class="fil6" d="M316 189c1,0 1,1 0,2l-3 3c-1,1 -2,1 -2,0 -1,0 -1,-1 0,-2l3 -3c1,-1 2,-1 2,0z"/>
  <path class="fil6" d="M189 316c1,0 1,1 0,2l-3 3c-1,1 -2,1 -2,0 -1,0 -1,-1 0,-2l3 -3c1,-1 2,-1 2,0z"/>
  <path class="fil6" d="M316 321c0,1 -1,1 -2,0l-3 -3c-1,-1 -1,-2 0,-2 0,-1 1,-1 2,0l3 3c1,1 1,2 0,2z"/>
  <path class="fil6" d="M189 194c0,1 -1,1 -2,0l-3 -3c-1,-1 -1,-2 0,-2 0,-1 1,-1 2,0l3 3c1,1 1,2 0,2z"/>
  <path class="fil6" d="M360 285c0,1 -1,1 -2,1l-5 -1c0,0 -1,-1 -1,-2 1,-1 1,-2 2,-1l5 1c1,0 1,1 1,2z"/>
  <path class="fil6" d="M145 227c0,1 -1,2 -2,1l-5 -1c0,0 -1,-1 -1,-2 1,-1 1,-1 2,-1l5 1c1,1 1,1 1,2z"/>
  <path class="fil6" d="M360 225c0,1 0,2 -1,2l-5 1c-1,1 -1,0 -2,-1 0,-1 1,-1 1,-2l5 -1c1,0 2,0 2,1z"/>
  <path class="fil6" d="M145 283c0,1 0,2 -1,2l-5 1c-1,0 -1,0 -2,-1 0,-1 1,-2 1,-2l5 -1c1,-1 2,0 2,1z"/>
 </g>
</svg>
