<?xml version="1.0" encoding="UTF-8"?>
<!DOCTYPE svg PUBLIC "-//W3C//DTD SVG 1.1//EN" "http://www.w3.org/Graphics/SVG/1.1/DTD/svg11.dtd">
<!-- Creator: CorelDRAW X6 -->
<svg xmlns="http://www.w3.org/2000/svg" xml:space="preserve" width="100%" height="100%" version="1.1" style="shape-rendering:geometricPrecision; text-rendering:geometricPrecision; image-rendering:optimizeQuality; fill-rule:evenodd; clip-rule:evenodd"
viewBox="0 0 500 500"
 xmlns:xlink="http://www.w3.org/1999/xlink">
 <defs>
  <style type="text/css">
   <![CDATA[

    .fil1 {fill:#008EED}
    .fil2 {fill:#17A2FF}
    .fil4 {fill:#B9E3FF}
    .fil3 {fill:#D1ECFF}
   .fil5 {fill:#0062A4;fill-rule:nonzero}
    .fil6 {fill:#0099FF;fill-rule:nonzero}
   ]]>
  </style>
 </defs>
 <g id="Layer_x0020_1">
  <metadata id="CorelCorpID_0Corel-Layer"/>
  <path class="fil1" d="M250 250l-163 163c90,89 236,89 326,0 89,-90 89,-236 0,-326l-163 163z"/>
  <path class="fil2" d="M250 250l-163 163c-89,-90 -89,-236 0,-326 90,-89 236,-89 326,0l-163 163z"/>
  <path class="fil3" d="M250 250l-126 126c-70,-69 -70,-183 0,-252 69,-70 183,-70 252,0l-126 126z"/>
  <path class="fil4" d="M250 250l-126 126c69,70 183,70 252,0 70,-69 70,-183 0,-252l-126 126z"/>
  <path class="fil5" d="M327 148c7,-6 18,-6 25,0 6,7 6,18 0,25l-109 108c-7,7 -18,7 -24,0 -7,-6 -7,-17 0,-24l108 -109z"/>
  <path class="fil6" d="M362 349c3,4 3,9 0,13 -4,3 -9,3 -13,0l-130 -131c-3,-3 -3,-8 0,-12 4,-3 9,-3 12,0l131 130z"/>
 </g>
</svg>
