<?xml version="1.0" encoding="UTF-8"?>
<!DOCTYPE svg PUBLIC "-//W3C//DTD SVG 1.1//EN" "http://www.w3.org/Graphics/SVG/1.1/DTD/svg11.dtd">
<!-- Creator: CorelDRAW X6 -->
<svg xmlns="http://www.w3.org/2000/svg" xml:space="preserve" width="100%" height="100%" version="1.1" style="shape-rendering:geometricPrecision; text-rendering:geometricPrecision; image-rendering:optimizeQuality; fill-rule:evenodd; clip-rule:evenodd"
viewBox="0 0 500 500"
 xmlns:xlink="http://www.w3.org/1999/xlink">
 <defs>
  <style type="text/css">
   <![CDATA[

    .fil3 {fill:#484848}
    .fil1 {fill:#A2DAFF}
    .fil4 {fill:#C82800}
    .fil2 {fill:#F2F2F2}
  ]]>
  </style>
 </defs>
 <g id="Layer_x0020_1">
  <metadata id="CorelCorpID_0Corel-Layer"/>
  <circle class="fil1" cx="251" cy="251" r="230"/>
  <circle class="fil2" cx="251" cy="251" r="192"/>
  <path class="fil3" d="M248 78c3,0 5,3 5,5l0 147c5,1 9,5 11,9l128 0c6,0 10,4 10,9 0,6 -4,10 -10,10l-128 0c-3,6 -9,9 -16,9 -10,0 -19,-8 -19,-19 0,-8 6,-16 14,-18l0 -147c0,-2 2,-5 5,-5z"/>
  <path class="fil4" d="M275 207c3,-3 10,-4 14,0 4,4 4,11 0,15 -3,3 -7,4 -11,2 -3,3 -10,10 -19,18 1,2 2,4 2,6 0,7 -6,13 -13,13 -2,0 -5,-1 -6,-2 -44,41 -107,103 -99,111 0,0 0,2 0,3 -1,0 -2,0 -2,0l-15 0c-2,0 -3,-1 -3,-3l0 -14c0,-1 0,-1 1,-2 1,-1 2,-1 3,0 8,8 69,-56 110,-99 -1,-2 -1,-4 -1,-7 0,-7 5,-12 12,-12 2,0 4,0 6,1 9,-9 15,-15 18,-19 -1,-3 -1,-7 3,-11z"/>
 </g>
</svg>
