<?xml version="1.0" encoding="UTF-8"?>
<!DOCTYPE svg PUBLIC "-//W3C//DTD SVG 1.1//EN" "http://www.w3.org/Graphics/SVG/1.1/DTD/svg11.dtd">
<!-- Creator: CorelDRAW X6 -->
<svg xmlns="http://www.w3.org/2000/svg" xml:space="preserve" width="100%" height="100%" version="1.1" style="shape-rendering:geometricPrecision; text-rendering:geometricPrecision; image-rendering:optimizeQuality; fill-rule:evenodd; clip-rule:evenodd"
viewBox="0 0 500 500"
 xmlns:xlink="http://www.w3.org/1999/xlink">
 <defs>
  <style type="text/css">
   <![CDATA[

    .str2 {stroke:#434242;stroke-width:15;stroke-linecap:round}
    .str1 {stroke:#2EACFF;stroke-width:15}
    .fil2 {fill:none}
    .fil1 {fill:#2EACFF}
  ]]>
  </style>
 </defs>
 <g id="Layer_x0020_1">
  <metadata id="CorelCorpID_0Corel-Layer"/>
  <path class="fil1 str1" d="M250 250l0 -160c89,0 160,72 160,160 0,28 -7,56 -21,80l-139 -80z"/>
  <path class="fil2 str2" d="M250 50l0 38m-200 162l38 0m-11 -100l33 19m40 -92l19 32m181 -32l-18 32m92 41l-33 19m59 81l-37 0m11 100l-33 -19m-141 119l0 -38m100 11l-18 -32m-182 32l19 -32m-92 -41l33 -19"/>
 </g>
</svg>
