<?xml version="1.0" encoding="UTF-8"?>
<!DOCTYPE svg PUBLIC "-//W3C//DTD SVG 1.1//EN" "http://www.w3.org/Graphics/SVG/1.1/DTD/svg11.dtd">
<!-- Creator: CorelDRAW X7 -->
<svg xmlns="http://www.w3.org/2000/svg" xml:space="preserve" width="100%" height="100%" version="1.1" style="shape-rendering:geometricPrecision; text-rendering:geometricPrecision; image-rendering:optimizeQuality; fill-rule:evenodd; clip-rule:evenodd"
viewBox="0 0 500 500"
 xmlns:xlink="http://www.w3.org/1999/xlink">
 <defs>
  <style type="text/css">
   <![CDATA[
    .str0 {stroke:#2EACFF;stroke-width:15}
    .str1 {stroke:#434242;stroke-width:15;stroke-linecap:round}
    .fil1 {fill:none}
    .fil0 {fill:#2EACFF}
   ]]>
  </style>
 </defs>
 <g id="Layer_x0020_1">
  <metadata id="CorelCorpID_0Corel-Layer"/>
  <path class="fil0 str0" d="M250 250l0 -160c88,0 160,72 160,160 0,88 -72,160 -160,160 -57,0 -110,-30 -139,-80l139 -80z"/>
  <path class="fil1 str1" d="M250 50l0 38m-200 162l38 0m-11 -100l32 19m41 -92l19 32m181 -32l-19 32m92 41l-32 19m59 81l-38 0m11 100l-32 -19m-141 119l0 -38m100 11l-19 -32m-181 32l19 -32m-92 -41l32 -19"/>
 </g>
</svg>
