<?xml version="1.0" encoding="UTF-8"?>
<!DOCTYPE svg PUBLIC "-//W3C//DTD SVG 1.1//EN" "http://www.w3.org/Graphics/SVG/1.1/DTD/svg11.dtd">
<!-- Creator: CorelDRAW X6 -->
<svg xmlns="http://www.w3.org/2000/svg" xml:space="preserve" width="100%" height="100%" version="1.1" style="shape-rendering:geometricPrecision; text-rendering:geometricPrecision; image-rendering:optimizeQuality; fill-rule:evenodd; clip-rule:evenodd"
viewBox="0 0 500 500"
 xmlns:xlink="http://www.w3.org/1999/xlink">
 <defs>
  <style type="text/css">
   <![CDATA[

   .fil1 {fill:#333333;fill-rule:nonzero}
   ]]>
  </style>
 </defs>
 <g id="Layer_x0020_1">
  <metadata id="CorelCorpID_0Corel-Layer"/>
  <path class="fil1" d="M232 226c1,0 1,0 1,0l-26 -99c-2,-5 1,-11 7,-12 5,-2 11,2 12,7l26 98c5,1 9,2 13,4 5,3 8,7 11,11l123 -33c4,-1 8,2 9,6 1,4 -1,8 -5,9l-123 33c0,5 -1,10 -4,15 -3,4 -6,7 -9,9l2 7c1,6 -2,11 -7,12 -6,2 -11,-1 -13,-7l-1 -6c-5,-1 -9,-2 -13,-4 -5,-3 -8,-7 -11,-11l-31 8c-4,1 -8,-1 -9,-5 -1,-4 1,-8 5,-9l31 -9c0,-1 0,-2 0,-3l-73 -43c-6,-3 -8,-10 -5,-16 4,-6 11,-8 17,-5l73 43zm147 54c17,0 33,4 46,11 2,-8 4,-17 4,-26l-25 0c-8,0 -15,-7 -15,-15 0,-8 7,-15 15,-15l25 0c-7,-87 -77,-157 -164,-164l0 25c0,8 -7,15 -15,15 -8,0 -15,-7 -15,-15l0 -25c-87,7 -157,77 -164,164l25 0c8,0 15,7 15,15 0,8 -7,15 -15,15l-25 0c7,87 77,157 164,164l0 -25c0,-8 7,-15 15,-15 8,0 15,7 15,15l0 25c9,0 17,-2 25,-4 -7,-13 -11,-29 -11,-45 0,-55 45,-100 100,-100zm87 50c8,14 13,32 13,50 0,55 -44,100 -100,100 -18,0 -35,-5 -50,-14 -25,9 -51,14 -79,14 -127,0 -230,-103 -230,-230 0,-127 103,-230 230,-230 127,0 230,103 230,230 0,28 -5,55 -14,80z"/>
 </g>
</svg>
