<?xml version="1.0" encoding="UTF-8"?>
<!DOCTYPE svg PUBLIC "-//W3C//DTD SVG 1.1//EN" "http://www.w3.org/Graphics/SVG/1.1/DTD/svg11.dtd">
<!-- Creator: CorelDRAW X6 -->
<svg xmlns="http://www.w3.org/2000/svg" xml:space="preserve" width="100%" height="100%" version="1.1" style="shape-rendering:geometricPrecision; text-rendering:geometricPrecision; image-rendering:optimizeQuality; fill-rule:evenodd; clip-rule:evenodd"
viewBox="0 0 500 500"
 xmlns:xlink="http://www.w3.org/1999/xlink">
 <defs>
  <style type="text/css">
   <![CDATA[

    .fil1 {fill:#333333}
  ]]>
  </style>
 </defs>
 <g id="Layer_x0020_1">
  <metadata id="CorelCorpID_0Corel-Layer"/>
  <path class="fil1" d="M380 310c39,0 70,31 70,70 0,39 -31,70 -70,70 -39,0 -70,-31 -70,-70 0,-39 31,-70 70,-70zm-140 120l0 -35c0,-5 5,-10 10,-10 6,0 10,5 10,10l0 35c11,-1 21,-2 31,-5 -7,-13 -11,-29 -11,-45 0,-55 45,-100 100,-100 16,0 32,4 45,11 3,-10 4,-20 5,-31l-35 0c-5,0 -10,-4 -10,-10 0,-5 5,-10 10,-10l35 0c-5,-91 -79,-165 -170,-170l0 35c0,6 -4,10 -10,10 -5,0 -10,-4 -10,-10l0 -35c-91,5 -165,79 -170,170l35 0c6,0 10,5 10,10 0,6 -4,10 -10,10l-35 0c5,91 79,165 170,170zm10 -410c127,0 230,103 230,230 0,28 -5,54 -14,79 9,15 14,32 14,51 0,55 -45,100 -100,100 -19,0 -36,-5 -51,-14 -25,9 -51,14 -79,14 -127,0 -230,-103 -230,-230 0,-127 103,-230 230,-230zm-15 206c0,0 0,0 0,0l-26 -99c-1,-5 2,-11 7,-12 6,-2 11,2 12,7l27 98c4,1 8,2 12,4 5,3 9,7 11,11l123 -33c4,-1 8,2 9,6 1,4 -1,8 -5,9l-123 33c0,5 -1,10 -4,15 -2,4 -5,7 -9,9l2 7c2,6 -2,11 -7,12 -5,2 -11,-1 -12,-7l-2 -6c-4,-1 -9,-2 -12,-4 -5,-3 -9,-7 -11,-11l-32 8c-4,1 -8,-1 -9,-5 -1,-4 2,-8 6,-9l31 -9c0,-1 0,-2 0,-3l-74 -43c-6,-3 -8,-10 -4,-16 3,-6 10,-8 16,-5l74 43z"/>
 </g>
</svg>
