<?xml version="1.0" encoding="UTF-8"?>
<!DOCTYPE svg PUBLIC "-//W3C//DTD SVG 1.1//EN" "http://www.w3.org/Graphics/SVG/1.1/DTD/svg11.dtd">
<!-- Creator: CorelDRAW X6 -->
<svg xmlns="http://www.w3.org/2000/svg" xml:space="preserve" width="100%" height="100%" version="1.1" style="shape-rendering:geometricPrecision; text-rendering:geometricPrecision; image-rendering:optimizeQuality; fill-rule:evenodd; clip-rule:evenodd"
viewBox="0 0 500 500"
 xmlns:xlink="http://www.w3.org/1999/xlink">
 <defs>
  <style type="text/css">
   <![CDATA[

    .fil1 {fill:#333333}
  ]]>
  </style>
 </defs>
 <g id="Layer_x0020_1">
  <metadata id="CorelCorpID_0Corel-Layer"/>
  <path class="fil1" d="M270 20c112,10 200,98 210,209 0,3 -2,6 -5,6l-33 0c-8,0 -15,7 -15,15 0,8 7,15 15,15l33 0c3,0 5,3 5,6 -10,111 -98,199 -209,209 -3,0 -6,-2 -6,-5l0 -33c0,-8 -7,-15 -15,-15 -8,0 -15,7 -15,15l0 33c0,3 -3,5 -6,5 -111,-10 -199,-98 -209,-209 0,-3 2,-6 5,-6l33 0c8,0 15,-7 15,-15 0,-8 -7,-15 -15,-15l-33 0c-3,0 -5,-3 -5,-6 10,-111 98,-199 210,-209 3,0 5,2 5,5l0 33c0,8 7,15 15,15 8,0 15,-7 15,-15l0 -33c0,-3 3,-5 5,-5zm-119 87c-4,-7 -2,-16 5,-20 7,-4 16,-1 20,6l73 126c0,1 2,2 4,2 1,0 3,1 4,1 2,1 4,1 5,2 2,1 3,0 5,0l82 -48c7,-4 16,-1 20,6 4,6 1,15 -6,19l-82 48c-1,0 -2,2 -2,4 0,1 -1,3 -1,4 -4,15 -18,24 -32,22 -3,-1 -4,0 -6,2l-68 118c-2,4 -6,5 -10,3 -3,-2 -4,-6 -2,-10l68 -118c1,-2 1,-4 0,-6 -6,-7 -8,-16 -6,-25 1,-2 1,-4 2,-5 1,-2 0,-3 0,-5l-73 -126z"/>
 </g>
</svg>
