<?xml version="1.0" encoding="UTF-8"?>
<!DOCTYPE svg PUBLIC "-//W3C//DTD SVG 1.1//EN" "http://www.w3.org/Graphics/SVG/1.1/DTD/svg11.dtd">
<!-- Creator: CorelDRAW X6 -->
<svg xmlns="http://www.w3.org/2000/svg" xml:space="preserve" width="100%" height="100%" version="1.1" style="shape-rendering:geometricPrecision; text-rendering:geometricPrecision; image-rendering:optimizeQuality; fill-rule:evenodd; clip-rule:evenodd"
viewBox="0 0 500 500"
 xmlns:xlink="http://www.w3.org/1999/xlink">
 <defs>
  <style type="text/css">
   <![CDATA[
    .fil1 {fill:#202020}
   ]]>
  </style>
 </defs>
 <g id="Layer_x0020_1">
  <metadata id="CorelCorpID_0Corel-Layer"/>
  <path class="fil1" d="M245 20c0,-7 10,-8 10,0 0,14 1,22 2,30 13,1 26,2 38,5 3,-7 6,-15 10,-28 2,-8 11,-5 9,2 -3,13 -4,22 -5,30 12,4 23,8 35,14 5,-6 10,-13 17,-25 3,-6 12,-1 8,5 -7,12 -10,20 -13,28 11,6 21,14 30,23 7,-5 13,-10 23,-20 5,-5 13,2 7,7 -9,10 -15,16 -20,23 9,9 17,19 23,30 8,-3 16,-6 28,-13 6,-4 11,5 5,8 -12,7 -19,12 -25,17 4,8 7,15 10,23 1,4 3,8 4,12 8,-1 17,-2 30,-5 7,-2 10,7 2,9 -13,4 -21,7 -28,10 3,13 4,25 5,38 8,1 16,2 30,2 7,0 8,10 0,10 -14,0 -22,1 -30,2 -1,13 -2,26 -5,38 7,3 15,6 28,10 8,2 5,11 -2,9 -13,-3 -22,-4 -30,-5 -4,12 -8,23 -14,35 6,5 13,10 25,17 6,3 1,12 -5,8 -12,-7 -20,-10 -28,-13 -6,11 -14,21 -23,30 5,7 11,13 20,23 5,5 -2,13 -7,7 -10,-9 -16,-15 -23,-20 -9,9 -19,17 -30,23 3,8 6,16 13,28 4,6 -5,11 -8,5 -7,-12 -12,-19 -17,-25 -8,4 -15,7 -23,10 -4,1 -8,3 -12,4 1,8 2,17 5,30 2,7 -7,10 -9,2 -4,-13 -7,-21 -10,-28 -13,3 -25,4 -38,5 -1,8 -2,16 -2,30 0,7 -10,8 -10,0 0,-14 -1,-22 -2,-30 -13,-1 -25,-2 -38,-5 -3,7 -6,15 -10,28 -2,8 -11,5 -9,-2 3,-13 4,-22 5,-30 -12,-4 -23,-8 -35,-14 -5,6 -10,13 -17,25 -3,6 -12,1 -8,-5 7,-12 10,-20 13,-28 -11,-6 -21,-14 -30,-23 -7,5 -13,11 -23,20 -5,5 -13,-2 -7,-7 10,-10 15,-16 20,-23 -9,-9 -17,-19 -23,-30 -8,3 -16,6 -28,13 -6,4 -11,-5 -5,-8 12,-7 19,-12 25,-17 -3,-8 -7,-15 -10,-23 -1,-4 -3,-8 -4,-12 -8,1 -17,2 -30,5 -7,2 -10,-7 -2,-9 13,-4 21,-7 28,-10 -3,-13 -4,-25 -5,-38 -8,-1 -16,-2 -30,-2 -7,0 -8,-10 0,-10 14,0 22,-1 30,-2 1,-13 2,-25 5,-38 -7,-3 -15,-6 -28,-10 -8,-2 -5,-11 2,-9 13,3 22,4 30,5 4,-12 8,-23 14,-35 -6,-5 -13,-10 -25,-17 -6,-3 -1,-12 5,-8 12,7 20,10 28,13 6,-11 14,-21 23,-30 -5,-7 -10,-13 -20,-23 -5,-5 2,-13 7,-7 10,10 16,15 23,20 9,-9 19,-17 30,-23 -3,-8 -6,-16 -13,-28 -4,-6 5,-11 8,-5 7,12 12,19 17,25 8,-3 15,-7 23,-10 4,-1 8,-3 12,-4 -1,-8 -2,-17 -5,-30 -2,-7 7,-10 9,-2 4,13 7,21 10,28 13,-3 25,-4 38,-5 1,-8 2,-16 2,-30zm-4 207c13,-5 27,1 32,14 5,13 -1,27 -14,32 -13,5 -27,-1 -32,-14 -5,-13 1,-27 14,-32zm-10 -28c1,-1 2,-1 4,-2l0 -105c-14,1 -28,4 -41,9 -59,23 -97,76 -102,134l105 0c5,-16 17,-30 34,-36zm34 -2c16,5 30,17 36,34 1,1 1,2 2,4l105 0c-1,-14 -4,-28 -9,-41 -22,-59 -76,-97 -134,-102l0 105zm38 68c-5,16 -17,30 -33,36 -2,1 -3,1 -5,2l0 105c14,-1 28,-4 41,-9 59,-22 97,-76 102,-134l-105 0zm-68 38c-16,-5 -30,-17 -36,-33 -1,-2 -1,-3 -2,-5l-105 0c1,14 4,28 9,41 23,59 76,97 134,102l0 -105z"/>
 </g>
</svg>
