<?xml version="1.0" encoding="UTF-8"?>
<!DOCTYPE svg PUBLIC "-//W3C//DTD SVG 1.1//EN" "http://www.w3.org/Graphics/SVG/1.1/DTD/svg11.dtd">
<!-- Creator: CorelDRAW X6 -->
<svg xmlns="http://www.w3.org/2000/svg" xml:space="preserve" width="100%" height="100%" version="1.1" style="shape-rendering:geometricPrecision; text-rendering:geometricPrecision; image-rendering:optimizeQuality; fill-rule:evenodd; clip-rule:evenodd"
viewBox="0 0 500 500"
 xmlns:xlink="http://www.w3.org/1999/xlink">
 <defs>
  <style type="text/css">
   <![CDATA[
    .fil1 {fill:#202020}
   ]]>
  </style>
 </defs>
 <g id="Layer_x0020_1">
  <metadata id="CorelCorpID_0Corel-Layer"/>
  <path class="fil1" d="M250 480c7,0 13,-6 13,-13l0 -26c0,-4 3,-8 7,-8 10,-1 19,-3 28,-5 4,-1 8,1 9,4l10 25c2,6 10,10 17,7 7,-2 10,-10 7,-17l-9 -24c-2,-4 0,-8 4,-10 10,-6 20,-12 29,-19 3,-3 7,-3 10,0l19 19c5,5 13,5 19,0 5,-6 5,-14 0,-19l-19 -19c-3,-3 -3,-7 0,-10 5,-7 11,-15 15,-23 2,-4 7,-5 10,-3l24 10c7,3 15,0 18,-7 3,-7 0,-14 -7,-17l-24 -11c-4,-1 -6,-6 -4,-9 3,-11 5,-23 7,-35 0,-4 4,-7 8,-7l26 0c7,0 13,-6 13,-13 0,-7 -6,-13 -13,-13l-26 0c-4,0 -8,-3 -8,-7 -1,-10 -3,-19 -5,-28 -1,-4 1,-8 4,-9l25 -10c6,-2 10,-10 7,-17 -2,-7 -10,-10 -17,-7l-24 9c-4,2 -8,0 -10,-4 -6,-10 -12,-20 -19,-29 -3,-3 -3,-7 0,-10l19 -19c5,-5 5,-13 0,-19 -6,-5 -14,-5 -19,0l-19 19c-3,3 -7,3 -10,0 -7,-5 -15,-11 -23,-15 -4,-2 -5,-7 -3,-10l10 -24c3,-7 0,-15 -7,-18 -7,-3 -14,0 -17,7l-11 24c-1,4 -6,6 -9,4 -11,-3 -23,-5 -35,-7 -4,0 -7,-4 -7,-8l0 -26c0,-7 -6,-13 -13,-13 -7,0 -13,6 -13,13l0 26c0,4 -3,8 -7,8 -10,1 -19,3 -28,5 -4,1 -8,-1 -9,-4l-10 -25c-2,-6 -10,-10 -17,-7 -7,2 -10,10 -7,17l9 24c2,4 0,8 -4,10 -10,6 -20,12 -29,19 -3,3 -7,3 -10,0l-19 -19c-5,-5 -13,-5 -19,0 -5,6 -5,14 0,19l19 19c3,3 3,7 0,10 -5,7 -11,15 -15,23 -2,4 -7,5 -10,3l-24 -10c-7,-3 -15,0 -18,7 -3,7 0,14 7,17l24 11c4,1 6,6 4,9 -3,11 -5,23 -7,35 0,4 -4,7 -8,7l-26 0c-7,0 -13,6 -13,13 0,7 6,13 13,13l26 0c4,0 8,3 8,7 1,10 3,19 5,28 1,4 -1,8 -4,9l-25 10c-6,2 -10,10 -7,17 2,7 10,10 17,7l24 -9c4,-2 8,0 10,4 6,10 12,20 19,29 3,3 3,7 0,10l-19 19c-5,5 -5,13 0,19 6,5 14,5 19,0l19 -19c3,-3 7,-3 10,0 7,5 15,11 23,15 4,2 5,7 3,10l-10 24c-3,7 0,15 7,18 7,3 14,0 17,-7l11 -24c1,-4 6,-6 9,-4 11,3 23,5 35,7 4,0 7,4 7,8l0 26c0,7 6,13 13,13zm-25 -295c2,-1 3,-1 5,-2 3,-1 5,-4 5,-7l6 -76c0,-2 -1,-4 -3,-6 -2,-2 -4,-2 -6,-2 -31,3 -58,15 -81,33 -2,2 -3,4 -3,6 0,3 1,5 3,7l57 49c3,2 6,3 9,1 3,-1 5,-2 8,-3zm45 -2c5,1 9,3 13,5 3,2 6,1 9,-1l57 -49c2,-2 3,-4 3,-7 0,-2 -1,-4 -3,-6 -23,-18 -50,-30 -81,-33 -2,0 -4,0 -6,2 -2,2 -3,4 -3,6l6 76c0,3 2,6 5,7zm42 34c1,3 2,5 3,8 1,2 1,3 2,5 1,3 4,5 7,5l76 6c2,0 4,-1 6,-3 2,-2 2,-4 2,-6 -3,-31 -15,-58 -33,-81 -2,-2 -4,-3 -6,-3 -3,0 -5,1 -7,3l-49 57c-2,3 -3,6 -1,9zm5 53c-1,5 -3,9 -5,13 -2,3 -1,6 1,9l49 57c2,2 4,3 7,3 2,0 4,-1 6,-3 18,-23 30,-50 33,-81 0,-2 0,-4 -2,-6 -2,-2 -4,-3 -6,-3l-76 6c-3,0 -6,2 -7,5zm-34 42c-3,1 -5,2 -8,3 -2,1 -3,1 -5,2 -3,1 -5,4 -5,7l-6 76c0,2 1,4 3,6 2,2 4,2 6,2 31,-3 58,-15 81,-33 2,-2 3,-4 3,-6 0,-3 -1,-5 -3,-7l-57 -49c-3,-2 -6,-3 -9,-1zm-53 5c-5,-1 -9,-3 -13,-5 -3,-2 -6,-1 -9,1l-57 49c-2,2 -3,4 -3,7 0,2 1,4 3,6 23,18 50,30 81,33 2,0 4,0 6,-2 2,-2 3,-4 3,-6l-6 -76c0,-3 -2,-6 -5,-7zm-42 -34c-1,-3 -2,-5 -3,-8 -1,-2 -1,-3 -2,-5 -1,-3 -4,-5 -7,-5l-76 -6c-2,0 -4,1 -6,3 -2,2 -2,4 -2,6 3,31 15,58 33,81 2,2 4,3 6,3 3,0 5,-1 7,-3l49 -57c2,-3 3,-6 1,-9zm-5 -53c1,-5 3,-9 5,-13 2,-3 1,-6 -1,-9l-49 -57c-2,-2 -4,-3 -7,-3 -2,0 -4,1 -6,3 -18,23 -30,50 -33,81 0,2 0,4 2,6 2,2 4,3 6,3l76 -6c3,0 6,-2 7,-5zm53 -17c20,-8 44,2 51,23 8,20 -2,44 -23,51 -20,8 -44,-2 -51,-23 -8,-20 2,-44 23,-51z"/>
 </g>
</svg>
