<?xml version="1.0" encoding="UTF-8"?>
<!DOCTYPE svg PUBLIC "-//W3C//DTD SVG 1.1//EN" "http://www.w3.org/Graphics/SVG/1.1/DTD/svg11.dtd">
<!-- Creator: CorelDRAW X7 -->
<svg xmlns="http://www.w3.org/2000/svg" xml:space="preserve" width="100%" height="100%" version="1.1" style="shape-rendering:geometricPrecision; text-rendering:geometricPrecision; image-rendering:optimizeQuality; fill-rule:evenodd; clip-rule:evenodd"
viewBox="0 0 500 500"
 xmlns:xlink="http://www.w3.org/1999/xlink">
 <defs>
  <style type="text/css">
   <![CDATA[
    .str0 {stroke:#303030;stroke-width:10}
    .str1 {stroke:#303030;stroke-width:5}
    .fil2 {fill:#303030}
    .fil3 {fill:#ED2F00}
    .fil4 {fill:#383838;fill-rule:nonzero}
    .fil0 {fill:url(#id0)}
    .fil1 {fill:url(#id1)}
   ]]>
  </style>
  <linearGradient id="id0" gradientUnits="userSpaceOnUse" x1="250" y1="31.368" x2="250" y2="468.632">
   <stop offset="0" style="stop-opacity:1; stop-color:#0099FF"/>
   <stop offset="1" style="stop-opacity:1; stop-color:#0083DB"/>
  </linearGradient>
  <linearGradient id="id1" gradientUnits="userSpaceOnUse" x1="250" y1="185.131" x2="250" y2="314.869">
   <stop offset="0" style="stop-opacity:1; stop-color:#F2F2F2"/>
   <stop offset="1" style="stop-opacity:1; stop-color:#D8D8D8"/>
  </linearGradient>
 </defs>
 <g id="Layer_x0020_1">
  <metadata id="CorelCorpID_0Corel-Layer"/>
  <path class="fil0 str0" d="M126 40c84,-12 166,-12 249,0 46,7 77,39 85,85 13,83 13,165 0,249 -8,46 -40,79 -86,85 -83,13 -166,13 -249,0 -46,-6 -77,-38 -85,-85 -13,-83 -13,-165 0,-248 8,-46 40,-79 86,-86z"/>
  <path class="fil1 str1" d="M423 147c11,68 11,136 0,205 -6,38 -33,65 -71,71 -68,10 -137,10 -205,0 -38,-6 -64,-32 -70,-70 -11,-69 -11,-137 0,-205 6,-38 33,-65 71,-71 69,-10 137,-10 205,0 38,6 64,32 70,70z"/>
  <path class="fil2" d="M119 210l92 20c0,0 25,5 25,5l39 12c4,1 -1,17 -4,16l-40 -9c0,0 -24,-8 -24,-8l-90 -28c-3,-1 -1,-9 2,-8z"/>
  <path class="fil2" d="M382 177l-93 59c0,0 -26,16 -26,16l-41 23c-4,2 -13,-13 -9,-15l41 -25c0,0 26,-14 26,-14l98 -51c4,-2 8,5 4,7z"/>
  <path class="fil3" d="M291 394l-26 -100c-1,-7 -2,-16 -3,-19l-4 -14c4,-3 6,-7 6,-12 0,-7 -6,-13 -13,-14l-3 -14c-1,-3 -4,-5 -7,-4 -3,1 -5,4 -4,7l4 14c-4,3 -6,7 -6,11 0,8 6,14 13,15l3 14c1,3 5,11 7,18l28 99c1,3 5,2 5,-1zm-41 -152c4,0 7,3 7,7 0,4 -3,8 -7,8 -5,0 -8,-4 -8,-8 0,-4 3,-7 8,-7z"/>
  <path class="fil4" d="M259 380l-5 1c-1,-1 -1,-2 -2,-3 0,0 -1,0 -2,0 -1,0 -2,0 -3,1 0,1 -1,3 -1,7 1,-2 3,-3 5,-3 2,0 4,1 6,3 2,2 2,4 2,7 0,3 0,5 -2,7 -2,2 -4,3 -7,3 -3,0 -5,-1 -7,-4 -2,-2 -3,-6 -3,-11 0,-5 1,-9 3,-11 2,-3 5,-4 8,-4 2,0 4,1 5,2 2,1 3,3 3,5zm-13 12c0,2 1,4 2,5 0,1 1,1 2,1 1,0 2,0 3,-1 1,-1 1,-2 1,-4 0,-2 0,-3 -1,-4 -1,-1 -2,-2 -3,-2 -1,0 -2,1 -3,2 0,1 -1,2 -1,3zm137 -136l5 0c1,1 1,2 2,3 1,0 1,1 3,1 1,0 2,-1 2,-1 1,-1 2,-2 2,-4 0,-1 -1,-2 -2,-3 0,-1 -1,-2 -2,-2 -1,0 -2,1 -3,1l1 -5c1,0 2,0 3,-1 1,0 1,-1 1,-2 0,-1 0,-2 0,-3 -1,0 -2,-1 -3,-1 -1,0 -2,1 -2,1 -1,1 -1,2 -1,3l-6 -1c1,-1 1,-3 2,-4 1,-1 2,-2 3,-2 1,-1 3,-1 4,-1 3,0 5,1 7,2 1,2 2,4 2,5 0,3 -1,5 -4,6 1,1 3,2 4,3 1,1 1,3 1,4 0,3 -1,5 -3,7 -1,2 -4,2 -6,2 -3,0 -5,0 -7,-2 -2,-1 -3,-3 -3,-6zm-289 1l6 0c0,1 0,2 1,2 0,1 1,1 2,1 1,0 2,-1 3,-2 0,-1 1,-3 1,-6 -1,1 -3,2 -5,2 -2,0 -4,-1 -6,-3 -2,-1 -2,-4 -2,-6 0,-3 0,-6 2,-7 2,-2 4,-3 7,-3 3,0 5,1 7,3 2,3 3,6 3,11 0,6 -1,10 -3,12 -2,2 -5,3 -8,3 -2,0 -4,0 -5,-1 -2,-2 -2,-3 -3,-6zm13 -12c0,-2 -1,-3 -2,-4 0,-1 -1,-2 -2,-2 -1,0 -2,1 -3,2 -1,0 -1,2 -1,4 0,1 0,3 1,4 1,1 2,1 3,1 1,0 2,0 3,-1 0,-1 1,-2 1,-4zm135 -119l-6 0 0 -21c-2,1 -4,3 -7,4l0 -5c2,-1 3,-2 5,-3 2,-1 3,-3 3,-5l5 0 0 30zm27 -6l0 6 -20 0c1,-2 1,-4 2,-6 1,-2 3,-4 7,-7 2,-2 4,-4 4,-5 1,-1 1,-2 1,-3 0,-1 0,-2 -1,-3 0,-1 -1,-1 -2,-1 -2,0 -3,0 -3,1 -1,1 -1,2 -1,4l-6 -1c0,-3 1,-5 3,-7 2,-1 4,-2 7,-2 3,0 5,1 6,3 2,1 3,3 3,5 0,2 0,3 -1,4 0,1 -1,3 -2,4 -1,1 -2,2 -4,4 -1,1 -3,2 -3,3 -1,0 -1,1 -1,1l11 0z"/>
 </g>
</svg>
