<?xml version="1.0" encoding="UTF-8"?>
<!DOCTYPE svg PUBLIC "-//W3C//DTD SVG 1.1//EN" "http://www.w3.org/Graphics/SVG/1.1/DTD/svg11.dtd">
<!-- Creator: CorelDRAW X6 -->
<svg xmlns="http://www.w3.org/2000/svg" xml:space="preserve" width="100%" height="100%" version="1.1" style="shape-rendering:geometricPrecision; text-rendering:geometricPrecision; image-rendering:optimizeQuality; fill-rule:evenodd; clip-rule:evenodd"
viewBox="0 0 500 500"
 xmlns:xlink="http://www.w3.org/1999/xlink">
 <defs>
  <style type="text/css">
   <![CDATA[
    .fil1 {fill:#004D80}
    .fil0 {fill:#005792}
    .fil8 {fill:#303030}
    .fil2 {fill:#404040}
    .fil3 {fill:#D1ECFF}
    .fil7 {fill:#FFB114}
    .fil4 {fill:#FFB217}
    .fil6 {fill:#B9E3FF;fill-rule:nonzero}
    .fil5 {fill:#EBE9E3;fill-rule:nonzero}
   ]]>
  </style>
 </defs>
 <g id="Layer_x0020_1">
  <metadata id="CorelCorpID_0Corel-Layer"/>
  <g id="_1132789472">
   <path class="fil0" d="M250 250l0 230c127,0 230,-103 230,-230 0,-127 -103,-230 -230,-230l0 230z"/>
   <path class="fil1" d="M250 250l0 230c-127,0 -230,-103 -230,-230 0,-127 103,-230 230,-230l0 230z"/>
   <path class="fil2" d="M296 403l-27 -105c-1,-6 -2,-16 -3,-19l-3 -13 11 3c4,1 8,-17 5,-18l-3 0 17 -11 98 -62c4,-2 -1,-10 -4,-8l-103 54c0,0 -27,15 -27,15l-1 1 -5 -18c-1,-3 -4,-5 -7,-4 -3,1 -5,4 -4,7l4 16 -6 -2c0,0 -26,-6 -26,-6l-96 -21c-4,0 -6,8 -3,9l94 30 20 6 -13 8c-4,2 5,18 9,16l28 -16 4 17c1,3 5,12 7,18l29 104c1,4 6,3 5,-1z"/>
   <path class="fil3" d="M389 174l-98 62 -17 11 3 0c3,1 -1,19 -5,18l-21 -5 -30 17c-4,2 -13,-14 -9,-16l13 -8 -20 -6 -94 -30c-3,-1 -1,-9 3,-9l96 21c0,0 26,6 26,6l12 4 7 -4c0,0 27,-15 27,-15l103 -54c3,-2 8,6 4,8z"/>
   <path class="fil4" d="M293 401l-27 -105c-1,-6 -2,-16 -3,-19l-15 -57c-1,-3 -4,-5 -7,-4 -3,1 -5,4 -4,7l15 57c1,3 5,12 7,18l29 104c1,4 6,3 5,-1z"/>
   <path class="fil5" d="M260 387l-6 1c0,-1 0,-2 -1,-3 0,0 -1,-1 -2,-1 -1,0 -2,1 -3,2 -1,1 -2,3 -2,7 2,-2 3,-3 6,-3 2,0 4,1 6,3 2,2 2,4 2,7 0,3 -1,6 -2,8 -2,2 -4,3 -7,3 -3,0 -6,-2 -8,-4 -2,-2 -3,-6 -3,-12 0,-5 1,-9 3,-12 2,-2 5,-4 8,-4 3,0 4,1 6,2 1,2 2,4 3,6zm-13 13c0,2 0,3 1,4 1,1 2,2 3,2 1,0 2,-1 3,-2 0,0 1,-2 1,-4 0,-2 -1,-3 -1,-4 -1,-1 -2,-1 -3,-1 -1,0 -2,0 -3,1 -1,1 -1,2 -1,4zm143 -143l6 0c0,1 0,2 1,3 1,1 2,1 3,1 1,0 2,-1 3,-1 1,-1 1,-3 1,-4 0,-2 0,-3 -1,-4 -1,0 -2,-1 -3,-1 -1,0 -2,0 -3,1l1 -5c2,0 3,0 4,-1 0,-1 1,-2 1,-3 0,-1 -1,-2 -1,-3 -1,0 -2,0 -3,0 -1,0 -1,0 -2,1 -1,0 -1,1 -1,3l-6 -1c1,-2 1,-4 2,-5 1,-1 2,-2 3,-2 1,-1 3,-1 5,-1 2,0 5,1 7,2 1,2 2,4 2,6 0,2 -2,4 -5,6 2,0 3,1 4,2 1,2 2,3 2,5 0,3 -1,5 -3,7 -2,2 -4,3 -7,3 -3,0 -5,-1 -7,-3 -2,-1 -3,-3 -3,-6zm-148 -137l-6 0 0 -22c-2,2 -4,4 -7,5l0 -6c1,0 3,-1 5,-2 1,-2 3,-3 3,-5l5 0 0 30zm28 -5l0 5 -20 0c0,-2 1,-4 2,-6 1,-1 3,-4 6,-7 3,-2 5,-4 5,-5 1,-1 1,-2 1,-3 0,-2 0,-3 -1,-3 0,-1 -1,-1 -2,-1 -2,0 -3,0 -3,1 -1,0 -2,2 -2,3l-5 0c0,-3 1,-6 3,-7 2,-2 4,-2 7,-2 3,0 5,1 7,2 1,2 2,4 2,6 0,2 0,3 0,4 -1,1 -2,3 -3,4 -1,1 -2,2 -4,4 -1,2 -3,3 -3,3 -1,1 -1,1 -1,2l11 0zm-183 143l6 0c0,1 0,2 1,2 1,1 1,1 2,1 1,0 2,-1 3,-2 1,-1 2,-3 2,-7 -2,2 -3,3 -6,3 -2,0 -4,-1 -6,-3 -1,-2 -2,-4 -2,-7 0,-3 1,-6 2,-7 2,-2 5,-3 7,-3 3,0 6,1 8,3 2,3 3,7 3,12 0,6 -1,10 -3,12 -2,3 -5,4 -8,4 -3,0 -4,-1 -6,-2 -1,-1 -2,-3 -3,-6zm13 -13c0,-1 0,-3 -1,-4 -1,-1 -2,-1 -3,-1 -1,0 -2,0 -3,1 0,1 -1,2 -1,4 0,2 1,3 2,4 0,1 1,2 2,2 2,0 2,-1 3,-2 1,-1 1,-2 1,-4z"/>
   <path class="fil6" d="M394 389c2,1 2,4 0,5 -1,2 -4,2 -5,0l-20 -20c-2,-2 -2,-4 0,-5 1,-2 3,-2 5,0l20 20zm-89 53c1,2 0,4 -2,5 -2,0 -4,-1 -5,-3l-7 -27c-1,-2 0,-5 2,-5 2,-1 4,1 5,3l7 27zm-199 -331c-2,-1 -2,-4 0,-5 1,-2 4,-2 5,0l20 20c2,2 2,4 0,5 -1,2 -3,2 -5,0l-20 -20zm89 -53c-1,-2 0,-4 2,-5 2,0 4,1 5,3l7 27c1,2 0,5 -2,5 -2,1 -4,-1 -5,-3l-7 -27zm194 48c1,-2 4,-2 5,0 2,1 2,4 0,5l-20 20c-2,2 -4,2 -5,0 -2,-1 -2,-3 0,-5l20 -20zm53 89c2,-1 4,0 5,2 0,2 -1,4 -3,5l-27 7c-2,1 -5,0 -5,-2 -1,-2 1,-4 3,-5l27 -7zm-331 199c-1,2 -4,2 -5,0 -2,-1 -2,-4 0,-5l20 -20c2,-2 4,-2 5,0 2,1 2,3 0,5l-20 20zm-53 -89c-2,1 -4,0 -5,-2 0,-2 1,-4 3,-5l27 -7c2,-1 5,0 5,2 1,2 -1,4 -3,5l-27 7zm240 -249c1,-2 3,-3 5,-3 2,1 3,3 2,5l-7 27c-1,2 -3,4 -5,3 -2,0 -3,-3 -2,-5l7 -27zm146 242c2,1 3,3 3,5 -1,2 -3,3 -5,2l-27 -7c-2,-1 -4,-3 -3,-5 0,-2 3,-3 5,-2l27 7zm-242 146c-1,2 -3,3 -5,3 -2,-1 -3,-3 -2,-5l7 -27c1,-2 3,-4 5,-3 2,0 3,3 2,5l-7 27zm-146 -242c-2,-1 -3,-3 -3,-5 1,-2 3,-3 5,-2l27 7c2,1 4,3 3,5 0,2 -3,3 -5,2l-27 -7zm369 145c2,1 2,3 1,5 -1,2 -3,2 -5,1l-24 -14c-2,-1 -3,-3 -2,-5 1,-2 4,-3 5,-2l25 15zm-72 74c1,2 1,4 -1,5 -2,1 -4,1 -5,-1l-15 -25c-1,-1 0,-4 2,-5 2,-1 4,0 5,2l14 24zm-278 -268c-2,-1 -2,-3 -1,-5 1,-2 3,-2 5,-1l24 14c2,1 3,3 2,5 -1,2 -4,3 -5,2l-25 -15zm72 -74c-1,-2 -1,-4 1,-5 2,-1 4,-1 5,1l15 25c1,1 0,4 -2,5 -2,1 -4,0 -5,-2l-14 -24zm200 -4c1,-2 3,-2 5,-1 2,1 2,3 1,5l-14 24c-1,2 -3,3 -5,2 -2,-1 -3,-4 -2,-5l15 -25zm74 72c2,-1 4,-1 5,1 1,2 1,4 -1,5l-25 15c-1,1 -4,0 -5,-2 -1,-2 0,-4 2,-5l24 -14zm-268 278c-1,2 -3,2 -5,1 -2,-1 -2,-3 -1,-5l14 -24c1,-2 3,-3 5,-2 2,1 3,4 2,5l-15 25zm-74 -72c-2,1 -4,1 -5,-1 -1,-2 -1,-4 1,-5l25 -15c1,-1 4,0 5,2 1,2 0,4 -2,5l-24 14zm167 -303c0,-2 2,-4 4,-4 2,0 4,2 4,4l0 29c0,2 -2,3 -4,3 -2,0 -4,-1 -4,-3l0 -29zm204 196c2,0 4,2 4,4 0,2 -2,4 -4,4l-29 0c-2,0 -3,-2 -3,-4 0,-2 1,-4 3,-4l29 0zm-196 204c0,2 -2,4 -4,4 -2,0 -4,-2 -4,-4l0 -29c0,-2 2,-3 4,-3 2,0 4,1 4,3l0 29zm-204 -196c-2,0 -4,-2 -4,-4 0,-2 2,-4 4,-4l29 0c2,0 3,2 3,4 0,2 -1,4 -3,4l-29 0z"/>
   <circle class="fil7" cx="250" cy="250" r="13"/>
   <circle class="fil8" cx="250" cy="250" r="8"/>
  </g>
 </g>
</svg>
