<?xml version="1.0" encoding="UTF-8"?>
<!DOCTYPE svg PUBLIC "-//W3C//DTD SVG 1.1//EN" "http://www.w3.org/Graphics/SVG/1.1/DTD/svg11.dtd">
<!-- Creator: CorelDRAW X6 -->
<svg xmlns="http://www.w3.org/2000/svg" xml:space="preserve" width="100%" height="100%" version="1.1" style="shape-rendering:geometricPrecision; text-rendering:geometricPrecision; image-rendering:optimizeQuality; fill-rule:evenodd; clip-rule:evenodd"
viewBox="0 0 500 500"
 xmlns:xlink="http://www.w3.org/1999/xlink">
 <defs>
  <style type="text/css">
   <![CDATA[

    .str3 {stroke:#303030;stroke-width:5;stroke-linecap:round}
    .str2 {stroke:#303030;stroke-width:10;stroke-linecap:round}
    .str1 {stroke:#303030;stroke-width:15}
    .fil2 {fill:none}
    .fil1 {fill:#F2F2F2}
  ]]>
  </style>
 </defs>
 <g id="Layer_x0020_1">
  <metadata id="CorelCorpID_0Corel-Layer"/>
  <circle class="fil1 str1" cx="250" cy="250" r="220"/>
  <path class="fil2 str2" d="M50 250l38 0m362 0l-38 0m-162 200l0 -38m0 -362l0 38"/>
  <path class="fil2 str3" d="M271 51c-1,8 -2,17 -3,25m24 -22c-2,9 -4,17 -6,25m26 -19c-3,8 -5,16 -8,24m27 -17c-3,8 -6,16 -10,23m47 -2c-5,7 -10,14 -15,20m31 -7c-6,7 -11,13 -17,19m32 -4c-7,6 -13,11 -19,17m32 -1c-7,5 -14,10 -20,15m41 22c-8,3 -16,6 -23,10m30 9c-8,3 -16,5 -24,8m30 12c-9,2 -17,4 -25,6m28 15c-8,1 -17,2 -25,3m25 39c-8,-1 -17,-2 -25,-3m22 24c-9,-2 -17,-4 -25,-6m19 26c-8,-3 -16,-5 -24,-8m17 27c-8,-3 -16,-6 -23,-10m2 47c-7,-5 -14,-10 -20,-15m7 31c-7,-6 -13,-11 -19,-17m4 32c-6,-7 -11,-13 -17,-19m1 32c-5,-7 -10,-14 -15,-20m-22 41c-3,-8 -6,-16 -10,-23m-9 30c-3,-8 -5,-16 -8,-24m-12 30c-2,-9 -4,-17 -6,-25m-15 28c-1,-8 -2,-17 -3,-25m-39 25c1,-8 2,-17 3,-25m-24 22c2,-9 4,-17 6,-25m-26 19c3,-8 5,-16 8,-24m-27 17c3,-8 6,-16 10,-23m-47 2c5,-7 10,-14 15,-20m-31 7c6,-7 11,-13 17,-19m-32 4c7,-6 13,-11 19,-17m-32 1c7,-5 14,-10 20,-15m-41 -22c8,-3 16,-6 23,-10m-30 -9c8,-3 16,-5 24,-8m-30 -12c9,-2 17,-4 25,-6m-28 -15c8,-1 17,-2 25,-3m-25 -39c8,1 17,2 25,3m-22 -24c9,2 17,4 25,6m-19 -26c8,3 16,5 24,8m-17 -27c8,3 16,6 23,10m-2 -47c7,5 14,10 20,15m-7 -31c7,6 13,11 19,17m-4 -32c6,7 11,13 17,19m-1 -32c5,7 10,14 15,20m22 -41c3,8 6,16 10,23m9 -30c3,8 5,16 8,24m12 -30c2,9 4,17 6,25m15 -28c1,8 2,17 3,25m-155 274l32 -19m41 92l19 -32m181 32l-19 -32m92 -41l-32 -19m-241 -254l19 32m-92 41l32 19m314 -19l-32 19m-41 -92l-19 32"/>
 </g>
</svg>
