<?xml version="1.0" encoding="UTF-8"?>
<!DOCTYPE svg PUBLIC "-//W3C//DTD SVG 1.1//EN" "http://www.w3.org/Graphics/SVG/1.1/DTD/svg11.dtd">
<!-- Creator: CorelDRAW X6 -->
<svg xmlns="http://www.w3.org/2000/svg" xml:space="preserve" width="100%" height="100%" version="1.1" style="shape-rendering:geometricPrecision; text-rendering:geometricPrecision; image-rendering:optimizeQuality; fill-rule:evenodd; clip-rule:evenodd"
viewBox="0 0 500 500"
 xmlns:xlink="http://www.w3.org/1999/xlink">
 <defs>
  <style type="text/css">
   <![CDATA[
    .str2 {stroke:#303030;stroke-width:5}
    .str1 {stroke:#303030;stroke-width:10}
    .fil1 {fill:#505050}
    .fil3 {fill:#F3F3F3}
    .fil2 {fill:url(#id0)}
   ]]>
  </style>
  <linearGradient id="id0" gradientUnits="userSpaceOnUse" x1="228.838" y1="320.757" x2="228.838" y2="103.053">
   <stop offset="0" style="stop-color:#0083DB"/>
   <stop offset="1" style="stop-color:#2EACFF"/>
  </linearGradient>
 </defs>
 <g id="Layer_x0020_1">
  <metadata id="CorelCorpID_0Corel-Layer"/>
  <path class="fil1" d="M434 169l-229 0c-21,0 -38,17 -38,38l0 130c0,21 17,38 38,38l172 0c14,0 29,6 37,19l33 47c4,5 9,13 15,13 6,0 11,-5 11,-10 0,-84 0,-153 0,-237 0,-21 -17,-38 -39,-38z"/>
  <path class="fil2 str1" d="M358 30l-258 0c-37,0 -67,31 -67,67l0 134c0,1 0,2 0,2 0,0 0,1 0,1l0 147c0,7 5,12 12,12 7,0 14,-9 18,-15l36 -51c10,-13 20,-29 48,-29l211 0c37,0 67,-30 67,-67l0 -134c0,-36 -30,-67 -67,-67z"/>
  <path class="fil3 str2" d="M148 160c10,0 19,8 19,19 0,10 -9,19 -19,19 -11,0 -20,-9 -20,-19 0,-11 9,-19 20,-19zm86 0c10,0 19,8 19,19 0,10 -9,19 -19,19 -11,0 -20,-9 -20,-19 0,-11 9,-19 20,-19zm86 0c10,0 19,8 19,19 0,10 -9,19 -19,19 -11,0 -19,-9 -19,-19 0,-11 8,-19 19,-19z"/>
 </g>
</svg>
