<?xml version="1.0" encoding="UTF-8"?>
<!DOCTYPE svg PUBLIC "-//W3C//DTD SVG 1.1//EN" "http://www.w3.org/Graphics/SVG/1.1/DTD/svg11.dtd">
<!-- Creator: CorelDRAW X6 -->
<svg xmlns="http://www.w3.org/2000/svg" xml:space="preserve" width="100%" height="100%" version="1.1" style="shape-rendering:geometricPrecision; text-rendering:geometricPrecision; image-rendering:optimizeQuality; fill-rule:evenodd; clip-rule:evenodd"
viewBox="0 0 500 500"
 xmlns:xlink="http://www.w3.org/1999/xlink">
 <defs>
  <style type="text/css">
   <![CDATA[
    .str1 {stroke:#303030;stroke-width:10}
    .str2 {stroke:#F3F3F3;stroke-width:10}
    .fil4 {fill:none}
    .fil1 {fill:#558600}
    .fil2 {fill:#FFB92E}
    .fil3 {fill:url(#id0)}
   ]]>
  </style>
  <linearGradient id="id0" gradientUnits="userSpaceOnUse" x1="250.005" y1="375.004" x2="250.005" y2="125.006">
   <stop offset="0" style="stop-color:#484848"/>
   <stop offset="1" style="stop-color:#303030"/>
  </linearGradient>
 </defs>
 <g id="Layer_x0020_1">
  <metadata id="CorelCorpID_0Corel-Layer"/>
  <path class="fil1 str1" d="M45 30l410 0c8,0 15,7 15,15l0 390 -35 35 -390 0c-8,0 -15,-7 -15,-15l0 -410c0,-8 7,-15 15,-15z"/>
  <path class="fil2" d="M150 60c6,0 10,4 10,10 0,4 -2,7 -5,9l0 66 40 0 0 -36c-3,-2 -5,-5 -5,-9 0,-6 4,-10 10,-10 6,0 10,4 10,10 0,4 -2,7 -5,9l0 36 40 0 0 -66c-3,-2 -5,-5 -5,-9 0,-6 4,-10 10,-10 6,0 10,4 10,10 0,4 -2,7 -5,9l0 66 40 0 0 -36c-3,-2 -5,-5 -5,-9 0,-6 4,-10 10,-10 6,0 10,4 10,10 0,4 -2,7 -5,9l0 36 40 0 0 -66c-3,-2 -5,-5 -5,-9 0,-6 4,-10 10,-10 6,0 10,4 10,10 0,4 -2,7 -5,9l0 66 66 0c2,-3 5,-5 9,-5 6,0 10,4 10,10 0,6 -4,10 -10,10 -4,0 -7,-2 -9,-5l-66 0 0 40 36 0c2,-3 5,-5 9,-5 6,0 10,4 10,10 0,6 -4,10 -10,10 -4,0 -7,-2 -9,-5l-36 0 0 40 66 0c2,-3 5,-5 9,-5 6,0 10,4 10,10 0,6 -4,10 -10,10 -4,0 -7,-2 -9,-5l-66 0 0 40 36 0c2,-3 5,-5 9,-5 6,0 10,4 10,10 0,6 -4,10 -10,10 -4,0 -7,-2 -9,-5l-36 0 0 40 66 0c2,-3 5,-5 9,-5 6,0 10,4 10,10 0,6 -4,10 -10,10 -4,0 -7,-2 -9,-5l-66 0 0 66c3,2 5,5 5,9 0,6 -4,10 -10,10 -6,0 -10,-4 -10,-10 0,-4 2,-7 5,-9l0 -66 -40 0 0 36c3,2 5,5 5,9 0,6 -4,10 -10,10 -6,0 -10,-4 -10,-10 0,-4 2,-7 5,-9l0 -36 -40 0 0 66c3,2 5,5 5,9 0,6 -4,10 -10,10 -6,0 -10,-4 -10,-10 0,-4 2,-7 5,-9l0 -66 -40 0 0 36c3,2 5,5 5,9 0,6 -4,10 -10,10 -6,0 -10,-4 -10,-10 0,-4 2,-7 5,-9l0 -36 -40 0 0 66c3,2 5,5 5,9 0,6 -4,10 -10,10 -6,0 -10,-4 -10,-10 0,-4 2,-7 5,-9l0 -66 -66 0c-2,3 -5,5 -9,5 -6,0 -10,-4 -10,-10 0,-6 4,-10 10,-10 4,0 7,2 9,5l66 0 0 -40 -36 0c-2,3 -5,5 -9,5 -6,0 -10,-4 -10,-10 0,-6 4,-10 10,-10 4,0 7,2 9,5l36 0 0 -40 -66 0c-2,3 -5,5 -9,5 -6,0 -10,-4 -10,-10 0,-6 4,-10 10,-10 4,0 7,2 9,5l66 0 0 -40 -36 0c-2,3 -5,5 -9,5 -6,0 -10,-4 -10,-10 0,-6 4,-10 10,-10 4,0 7,2 9,5l36 0 0 -40 -66 0c-2,3 -5,5 -9,5 -6,0 -10,-4 -10,-10 0,-6 4,-10 10,-10 4,0 7,2 9,5l66 0 0 -66c-3,-2 -5,-5 -5,-9 0,-6 4,-10 10,-10zm270 348c10,0 17,8 17,17 0,10 -7,17 -17,17 -9,0 -17,-7 -17,-17 0,-9 8,-17 17,-17z"/>
  <rect class="fil3" x="125" y="125" width="250" height="250" rx="15" ry="15"/>
  <line class="fil4 str2" x1="165" y1="172" x2="255" y2= "172" />
  <line class="fil4 str2" x1="165" y1="203" x2="230" y2= "203" />
 </g>
</svg>
