<?xml version="1.0" encoding="UTF-8"?>
<!DOCTYPE svg PUBLIC "-//W3C//DTD SVG 1.1//EN" "http://www.w3.org/Graphics/SVG/1.1/DTD/svg11.dtd">
<!-- Creator: CorelDRAW X6 -->
<svg xmlns="http://www.w3.org/2000/svg" xml:space="preserve" width="100%" height="100%" version="1.1" style="shape-rendering:geometricPrecision; text-rendering:geometricPrecision; image-rendering:optimizeQuality; fill-rule:evenodd; clip-rule:evenodd"
viewBox="0 0 500 500"
 xmlns:xlink="http://www.w3.org/1999/xlink">
 <defs>
  <style type="text/css">
   <![CDATA[

   .fil1 {fill:#202020;fill-rule:nonzero}
   ]]>
  </style>
 </defs>
 <g id="Layer_x0020_1">
  <metadata id="CorelCorpID_0Corel-Layer"/>
  <path class="fil1" d="M231 223c-1,0 -1,0 -1,0l-72 -72c-4,-4 -10,-4 -14,0 -4,4 -4,10 0,14l72 73c-2,3 -3,8 -3,12 0,6 1,11 4,15l-90 90c-3,3 -3,8 0,11 3,3 8,3 11,0l90 -90c4,3 9,4 15,4 4,0 9,-1 12,-3l5 5c4,4 11,4 14,0 4,-4 4,-10 0,-14l-4 -5c1,-4 2,-8 2,-13 0,-5 -1,-10 -4,-15l23 -23c3,-3 3,-7 0,-10 -3,-3 -8,-3 -11,0l-22 23c-1,-1 -2,-2 -3,-2l0 -85c0,-7 -6,-12 -12,-12 -7,0 -12,5 -12,12l0 85zm27 -152l0 20c0,9 -7,15 -15,15 -9,0 -15,-6 -15,-15l0 -20c-88,7 -158,77 -165,164l21 0c8,0 15,7 15,15 0,8 -7,15 -15,15l-21 0c7,87 77,157 165,164l0 -20c0,-9 6,-15 15,-15 8,0 15,6 15,15l0 20c87,-7 157,-77 164,-164l-21 0c-8,0 -15,-7 -15,-15 0,-8 7,-15 15,-15l21 0c-7,-87 -77,-157 -164,-164zm-15 -51c127,0 230,103 230,230 0,127 -103,230 -230,230 -127,0 -230,-103 -230,-230 0,-127 103,-230 230,-230z"/>
 </g>
</svg>
