<?xml version="1.0" encoding="UTF-8"?>
<!DOCTYPE svg PUBLIC "-//W3C//DTD SVG 1.1//EN" "http://www.w3.org/Graphics/SVG/1.1/DTD/svg11.dtd">
<!-- Creator: CorelDRAW X6 -->
<svg xmlns="http://www.w3.org/2000/svg" xml:space="preserve" width="100%" height="100%" version="1.1" style="shape-rendering:geometricPrecision; text-rendering:geometricPrecision; image-rendering:optimizeQuality; fill-rule:evenodd; clip-rule:evenodd"
viewBox="0 0 500 500"
 xmlns:xlink="http://www.w3.org/1999/xlink">
 <defs>
  <style type="text/css">
   <![CDATA[

    .str1 {stroke:#303030;stroke-width:2.5}
    .str2 {stroke:#303030;stroke-width:5}
    .str4 {stroke:#303030;stroke-width:4.375;stroke-linecap:round}
    .str3 {stroke:#303030;stroke-width:8.75;stroke-linecap:round}
    .fil9 {fill:none}
    .fil7 {fill:#434242}
    .fil5 {fill:#B1B1B1}
    .fil8 {fill:#E5E5E5}
    .fil6 {fill:#FF3300}
   .fil3 {fill:url(#id0)}
    .fil1 {fill:url(#id1)}
    .fil4 {fill:url(#id2)}
    .fil2 {fill:url(#id3)}
   ]]>
  </style>
  <linearGradient id="id0" gradientUnits="userSpaceOnUse" x1="242.621" y1="72.096" x2="242.621" y2="427.914">
   <stop offset="0" style="stop-color:#B1B1B1"/>
   <stop offset="1" style="stop-color:#F2F2F2"/>
  </linearGradient>
  <linearGradient id="id1" gradientUnits="userSpaceOnUse" x1="242.621" y1="38.406" x2="242.621" y2="461.604">
   <stop offset="0" style="stop-color:#008DEB"/>
   <stop offset="0.368627" style="stop-color:#006DB6"/>
   <stop offset="0.74902" style="stop-color:#3BB0FF"/>
   <stop offset="1" style="stop-color:#0099FF"/>
  </linearGradient>
  <linearGradient id="id2" gradientUnits="userSpaceOnUse" x1="243.391" y1="238.322" x2="241.851" y2="91.323">
   <stop offset="0" style="stop-color:#D8D8D8"/>
   <stop offset="1" style="stop-color:#F2F2F2"/>
  </linearGradient>
  <linearGradient id="id3" gradientUnits="userSpaceOnUse" x1="374.998" y1="117.629" x2="110.244" y2="382.381">
   <stop offset="0" style="stop-color:#005E9D"/>
   <stop offset="1" style="stop-color:#B0E0FF"/>
  </linearGradient>
 </defs>
 <g id="Layer_x0020_1">
  <metadata id="CorelCorpID_0Corel-Layer"/>
  <circle class="fil1 str1" cx="243" cy="250" r="230"/>
  <circle class="fil2" cx="243" cy="250" r="189"/>
  <circle class="fil3 str2" cx="243" cy="250" r="178"/>
  <path class="fil4" d="M243 83c67,0 125,40 151,97 -37,41 -91,67 -151,67 -60,0 -115,-26 -152,-67 27,-57 84,-97 152,-97z"/>
  <g id="shadows">
   <path class="fil5" d="M370 149c1,1 1,3 0,4 -27,21 -52,42 -79,63 -26,21 -55,39 -81,60 -3,3 -8,-5 -5,-7 27,-20 52,-42 79,-62 27,-20 56,-38 83,-58 1,-1 3,-1 3,0z"/>
   <path class="fil5" d="M227 409c-1,0 -1,-1 -1,-3 2,-31 3,-62 5,-94 1,-31 4,-63 6,-94 0,-3 4,-3 4,0 -3,32 -4,63 -6,94 -2,32 -5,63 -7,94 0,2 -1,3 -1,3z"/>
   <path class="fil5" d="M144 156c2,-1 3,-2 4,-1 20,18 41,35 61,54 20,18 36,40 56,58 2,2 -8,12 -10,10 -18,-20 -40,-36 -59,-56 -18,-20 -35,-41 -53,-61 -1,-1 0,-3 1,-4z"/>
  </g>
  <path class="fil6" d="M233 409c-1,0 -1,-1 -1,-3 2,-31 3,-62 5,-94 2,-31 5,-63 6,-94 0,-3 4,-3 4,0 -3,32 -3,63 -6,94 -2,32 -5,63 -7,94 0,2 -1,3 -1,3z"/>
  <g id="_865607072">
   <path class="fil7" d="M377 149c0,1 0,3 -1,4 -26,21 -52,42 -78,63 -27,21 -55,39 -82,60 -3,3 -8,-5 -5,-7 27,-20 52,-42 79,-62 28,-20 56,-38 83,-58 1,-1 3,-1 4,0z"/>
   <path class="fil7" d="M150 156c2,-1 3,-2 4,-1 20,18 41,35 61,54 20,18 36,40 56,58 2,2 -8,12 -10,10 -18,-20 -40,-36 -58,-56 -19,-20 -36,-41 -54,-61 -1,-1 0,-3 1,-4z"/>
   <circle class="fil7" transform="matrix(1.2094 -0.916056 0.916056 1.2094 243.381 250.005)" r="12"/>
  </g>
  <circle class="fil8" cx="243" cy="250" r="10"/>
  <path class="fil9 str3" d="M68 250l32 0m318 0l-33 0m-142 175l0 -33m0 -317l0 33"/>
  <path class="fil9 str4" d="M155 98l17 29m-81 36l28 16m-28 159l28 -17m36 81l17 -29m158 29l-16 -29m80 -35l-28 -17m28 -158l-28 16m-36 -81l-16 29"/>
 </g>
</svg>
