<?xml version="1.0" encoding="UTF-8"?>
<!DOCTYPE svg PUBLIC "-//W3C//DTD SVG 1.1//EN" "http://www.w3.org/Graphics/SVG/1.1/DTD/svg11.dtd">
<!-- Creator: CorelDRAW X6 -->
<svg xmlns="http://www.w3.org/2000/svg" xml:space="preserve" width="100%" height="100%" version="1.1" style="shape-rendering:geometricPrecision; text-rendering:geometricPrecision; image-rendering:optimizeQuality; fill-rule:evenodd; clip-rule:evenodd"
viewBox="0 0 500 500"
 xmlns:xlink="http://www.w3.org/1999/xlink">
 <defs>
  <style type="text/css">
   <![CDATA[

   .fil1 {fill:#202020;fill-rule:nonzero}
   ]]>
  </style>
 </defs>
 <g id="Layer_x0020_1">
  <metadata id="CorelCorpID_0Corel-Layer"/>
  <path class="fil1" d="M243 20c127,0 230,103 230,230 0,127 -103,230 -230,230 -127,0 -230,-103 -230,-230 0,-127 103,-230 230,-230zm20 195c12,7 20,20 20,35 0,4 -1,7 -2,10l76 76c8,8 8,20 0,28 -8,8 -21,8 -29,0l-75 -75c-3,1 -7,1 -10,1 -22,0 -40,-18 -40,-40 0,-15 8,-28 20,-35l0 -75c0,-11 9,-20 20,-20 11,0 20,9 20,20l0 75zm-20 -150c-103,0 -185,83 -185,185 0,102 82,185 185,185 102,0 185,-83 185,-185 0,-102 -83,-185 -185,-185z"/>
 </g>
</svg>
