<?xml version="1.0" encoding="UTF-8"?>
<!DOCTYPE svg PUBLIC "-//W3C//DTD SVG 1.1//EN" "http://www.w3.org/Graphics/SVG/1.1/DTD/svg11.dtd">
<!-- Creator: CorelDRAW X6 -->
<svg xmlns="http://www.w3.org/2000/svg" xml:space="preserve" width="100%" height="100%" version="1.1" style="shape-rendering:geometricPrecision; text-rendering:geometricPrecision; image-rendering:optimizeQuality; fill-rule:evenodd; clip-rule:evenodd"
viewBox="0 0 500 500"
 xmlns:xlink="http://www.w3.org/1999/xlink">
 <defs>
  <style type="text/css">
   <![CDATA[

    .fil1 {fill:#008EED}
    .fil2 {fill:#27A9FF}
    .fil8 {fill:#303030}
    .fil4 {fill:#BEBEBE}
    .fil3 {fill:#D8D8D8}
    .fil5 {fill:#E5E5E5}
    .fil6 {fill:#F2F2F2}
   .fil7 {fill:#303030;fill-rule:nonzero}
    .fil9 {fill:#FF3300;fill-rule:nonzero}
   ]]>
  </style>
 </defs>
 <g id="Layer_x0020_1">
  <metadata id="CorelCorpID_0Corel-Layer"/>
  <path id="mainback" class="fil1" d="M243 250l162 -163c43,44 68,102 68,163 0,127 -103,230 -230,230 -61,0 -120,-24 -163,-67l163 -163z"/>
  <path id="mainback_0" class="fil2" d="M243 250l-163 163c-43,-43 -67,-102 -67,-163 0,-127 103,-230 230,-230 61,0 119,24 162,67l-162 163z"/>
  <path id="dial1" class="fil3" d="M129 363l-21 21c-74,-74 -74,-194 0,-268 74,-75 195,-75 269,0l-21 21c-29,-29 -69,-47 -113,-47 -89,0 -160,72 -160,160 0,44 18,84 46,113z"/>
  <path id="dial1_1" class="fil4" d="M129 363l-21 21c74,75 195,75 269,0 74,-74 74,-194 0,-268l-21 21c29,29 47,69 47,113 0,88 -72,160 -160,160 -45,0 -85,-18 -114,-47z"/>
  <path id="dial2" class="fil5" d="M243 250l-114 113c63,63 164,63 227,0 62,-62 62,-164 0,-226l-113 113z"/>
  <path id="dial2_2" class="fil6" d="M243 250l-114 113c-62,-62 -62,-164 0,-226 63,-63 164,-63 227,0l-113 113z"/>
  <path id="minute" class="fil7" d="M128 189c-3,-1 -4,-4 -2,-6 1,-3 4,-4 7,-2l102 59 0 -100c0,-4 3,-7 8,-7 4,0 7,3 7,7l0 109 25 14c3,2 4,5 2,7 -1,2 -4,3 -7,2l-20 -12 0 30c0,4 -3,8 -7,8 -5,0 -8,-4 -8,-8l0 -39 -107 -62z"/>
  <circle id="middle" class="fil8" cx="243" cy="250" r="20"/>
  <path id="divisions" class="fil7" d="M58 260c-6,0 -10,-4 -10,-10 0,-6 4,-10 10,-10l30 0c6,0 10,4 10,10 0,6 -4,10 -10,10l-30 0zm370 -20c5,0 10,4 10,10 0,6 -5,10 -10,10l-31 0c-6,0 -10,-4 -10,-10 0,-6 4,-10 10,-10l31 0zm-175 195c0,6 -5,10 -10,10 -6,0 -10,-4 -10,-10l0 -31c0,-5 4,-10 10,-10 5,0 10,5 10,10l0 31zm-20 -370c0,-6 4,-10 10,-10 5,0 10,4 10,10l0 31c0,5 -5,10 -10,10 -6,0 -10,-5 -10,-10l0 -31z"/>
  <path id="seconds" class="fil9" d="M312 360c2,1 1,4 -1,5 -2,1 -4,0 -5,-1l-62 -105c-1,1 -3,0 -4,0 -5,-1 -8,-6 -7,-11 1,-1 1,-3 2,-4l-14 -22c-1,-2 0,-4 2,-5 1,-1 4,-1 5,1l13 23c1,-1 3,0 4,0 5,1 8,6 7,11 -1,2 -1,3 -2,4l62 104z"/>
 </g>
</svg>
