<?xml version="1.0" encoding="UTF-8"?>
<!DOCTYPE svg PUBLIC "-//W3C//DTD SVG 1.1//EN" "http://www.w3.org/Graphics/SVG/1.1/DTD/svg11.dtd">
<!-- Creator: CorelDRAW X7 -->
<svg xmlns="http://www.w3.org/2000/svg" xml:space="preserve" width="100%" height="100%" version="1.1" style="shape-rendering:geometricPrecision; text-rendering:geometricPrecision; image-rendering:optimizeQuality; fill-rule:evenodd; clip-rule:evenodd"
viewBox="0 0 500 500"
 xmlns:xlink="http://www.w3.org/1999/xlink">
 <defs>
  <style type="text/css">
   <![CDATA[
    .str0 {stroke:#303030;stroke-width:10}
    .str1 {stroke:#303030;stroke-width:20}
    .fil6 {fill:none}
    .fil1 {fill:#008BFF}
    .fil5 {fill:#279DFF}
    .fil4 {fill:#303030}
    .fil0 {fill:url(#id0)}
    .fil2 {fill:url(#id1)}
    .fil3 {fill:url(#id2)}
   ]]>
  </style>
  <linearGradient id="id0" gradientUnits="userSpaceOnUse" x1="249.009" y1="298.724" x2="249.009" y2="362.443">
   <stop offset="0" style="stop-opacity:1; stop-color:#F2F2F2"/>
   <stop offset="1" style="stop-opacity:1; stop-color:#D8D8D8"/>
  </linearGradient>
  <linearGradient id="id1" gradientUnits="userSpaceOnUse" x1="287.069" y1="174.703" x2="214.388" y2="105.762">
   <stop offset="0" style="stop-opacity:1; stop-color:#0083DB"/>
   <stop offset="1" style="stop-opacity:1; stop-color:#17A2FF"/>
  </linearGradient>
  <linearGradient id="id2" gradientUnits="userSpaceOnUse" x1="153.497" y1="81.037" x2="256.216" y2="199.428">
   <stop offset="0" style="stop-opacity:1; stop-color:#0099FF"/>
   <stop offset="1" style="stop-opacity:1; stop-color:#46B5FF"/>
  </linearGradient>
 </defs>
 <g id="Layer_x0020_1">
  <metadata id="CorelCorpID_0Corel-Layer"/>
  <rect class="fil0 str0" x="50" y="289" width="397.652" height="83.8413" rx="8" ry="9"/>
  <circle class="fil1" cx="406" cy="331" r="24"/>
  <rect class="fil1" x="80" y="326" width="142.015" height="9.46696"/>
  <path class="fil2" d="M121 57l259 0c4,0 8,3 8,7l0 152c0,4 -4,7 -8,7l-259 0c-4,0 -7,-3 -7,-7l0 -152c0,-4 3,-7 7,-7z"/>
  <path class="fil3" d="M121 57l175 0c0,1 0,2 0,3 0,71 -41,133 -100,163l-75 0c-4,0 -7,-3 -7,-7l0 -152c0,-4 3,-7 7,-7z"/>
  <path class="fil4" d="M121 57l259 0c4,0 8,3 8,7l0 152c0,4 -4,7 -8,7l-259 0c-4,0 -7,-3 -7,-7l0 -152c0,-4 3,-7 7,-7zm38 217l55 0 0 -22 -102 0c-8,0 -14,-6 -14,-14l0 -181c0,-8 6,-14 14,-14l276 0c7,0 14,6 14,14l0 181c0,8 -7,14 -14,14l-102 0 0 22 54 0c6,0 11,5 11,11l0 4 -202 0 0 -4c0,-6 4,-11 10,-11z"/>
  <path class="fil5" d="M228 233l44 0c2,0 3,1 3,3l0 4c0,2 -1,3 -3,3l-44 0c-2,0 -3,-1 -3,-3l0 -4c0,-2 1,-3 3,-3z"/>
  <circle class="fil5" cx="366" cy="238" r="7"/>
  <line class="fil6 str1" x1="250" y1="372" x2="250" y2= "427" />
  <line class="fil6 str1" x1="30" y1="438" x2="470" y2= "438" />
  <rect class="fil1 str0" x="180" y="417" width="140" height="40.002" rx="9" ry="5"/>
 </g>
</svg>
