<?xml version="1.0" encoding="UTF-8"?>
<!DOCTYPE svg PUBLIC "-//W3C//DTD SVG 1.1//EN" "http://www.w3.org/Graphics/SVG/1.1/DTD/svg11.dtd">
<!-- Creator: CorelDRAW X7 -->
<svg xmlns="http://www.w3.org/2000/svg" xml:space="preserve" width="100%" height="100%" version="1.1" style="shape-rendering:geometricPrecision; text-rendering:geometricPrecision; image-rendering:optimizeQuality; fill-rule:evenodd; clip-rule:evenodd"
viewBox="0 0 500 500"
 xmlns:xlink="http://www.w3.org/1999/xlink">
 <defs>
  <style type="text/css">
   <![CDATA[
    .str0 {stroke:black;stroke-width:10}
    .str1 {stroke:#2B2A29;stroke-width:10}
    .str2 {stroke:#B1B1B1;stroke-width:30}
    .fil2 {fill:none}
    .fil0 {fill:url(#id0)}
    .fil1 {fill:url(#id1)}
   ]]>
  </style>
  <linearGradient id="id0" gradientUnits="userSpaceOnUse" x1="140.783" y1="30.001" x2="140.783" y2="119.999">
   <stop offset="0" style="stop-opacity:1; stop-color:#008BFF"/>
   <stop offset="1" style="stop-opacity:1; stop-color:#4EAFFF"/>
  </linearGradient>
  <linearGradient id="id1" gradientUnits="userSpaceOnUse" x1="249.999" y1="120.001" x2="249.999" y2="469.999">
   <stop offset="0" style="stop-opacity:1; stop-color:#EBEBEB"/>
   <stop offset="1" style="stop-opacity:1; stop-color:#FEFEFE"/>
  </linearGradient>
 </defs>
 <g id="Layer_x0020_1">
  <metadata id="CorelCorpID_0Corel-Layer"/>
  <path class="fil0 str0" d="M44 30l187 0c11,0 20,9 20,20l0 70 -220 0 0 -76c0,-8 6,-14 13,-14z"/>
  <path class="fil1 str1" d="M30 120l420 0c11,0 20,9 20,20l0 310c0,11 -9,20 -20,20l-400 0c-11,0 -20,-9 -20,-20l0 -330z"/>
  <line class="fil2 str2" x1="71" y1="199" x2="231" y2= "199" />
  <line class="fil2 str2" x1="71" y1="264" x2="326" y2= "264" />
  <line class="fil2 str2" x1="71" y1="329" x2="409" y2= "329" />
  <line class="fil2 str2" x1="71" y1="394" x2="326" y2= "394" />
 </g>
</svg>
