<?xml version="1.0" encoding="UTF-8"?>
<!DOCTYPE svg PUBLIC "-//W3C//DTD SVG 1.1//EN" "http://www.w3.org/Graphics/SVG/1.1/DTD/svg11.dtd">
<!-- Creator: CorelDRAW X7 -->
<svg xmlns="http://www.w3.org/2000/svg" xml:space="preserve" width="100%" height="100%" version="1.1" style="shape-rendering:geometricPrecision; text-rendering:geometricPrecision; image-rendering:optimizeQuality; fill-rule:evenodd; clip-rule:evenodd"
viewBox="0 0 5000 5000"
 xmlns:xlink="http://www.w3.org/1999/xlink">
 <defs>
  <style type="text/css">
   <![CDATA[
    .fil0 {fill:#303030}
   ]]>
  </style>
 </defs>
 <g id="Layer_x0020_1">
  <metadata id="CorelCorpID_0Corel-Layer"/>
  <path class="fil0" d="M2100 4500l0 300 -400 0 0 -300 -230 0 0 -4300 2602 0c239,0 434,195 434,434l0 3432c0,239 -195,434 -434,434l-1972 0zm1283 -2985l-1378 0 0 252 1378 0 0 -252zm-2889 -1315l759 0 0 4300 -759 0 0 -4300zm3267 836l-1756 0 0 -251 1756 0 0 251z"/>
 </g>
</svg>
