<?xml version="1.0" encoding="UTF-8"?>
<!DOCTYPE svg PUBLIC "-//W3C//DTD SVG 1.1//EN" "http://www.w3.org/Graphics/SVG/1.1/DTD/svg11.dtd">
<!-- Creator: CorelDRAW X7 -->
<svg xmlns="http://www.w3.org/2000/svg" xml:space="preserve" width="100%" height="100%" version="1.1" style="shape-rendering:geometricPrecision; text-rendering:geometricPrecision; image-rendering:optimizeQuality; fill-rule:evenodd; clip-rule:evenodd"
viewBox="0 0 5000 5000"
 xmlns:xlink="http://www.w3.org/1999/xlink">
 <defs>
  <style type="text/css">
   <![CDATA[
    .fil0 {fill:#303030}
   ]]>
  </style>
 </defs>
 <g id="Layer_x0020_1">
  <metadata id="CorelCorpID_0Corel-Layer"/>
  <path class="fil0" d="M419 4800l4162 0c120,0 219,-99 219,-219l0 -438c0,-121 -99,-219 -219,-219l-4162 0c-120,0 -219,98 -219,219l0 438c0,120 99,219 219,219zm2295 -1284l1070 -1070c53,-54 107,-107 107,-214 0,-107 -107,-214 -214,-214l-535 0c-54,0 -107,-54 -107,-107l0 -1604c0,-54 -54,-107 -107,-107l-856 0c-53,0 -107,53 -107,107l0 1604c0,53 -53,107 -107,107l-535 0c-107,0 -214,107 -214,214 0,107 54,160 107,214l1070 1070c144,144 284,144 428,0zm1219 1065l438 0c60,0 110,-49 110,-110 0,-60 -50,-109 -110,-109l-438 0c-60,0 -109,49 -109,109 0,61 49,110 109,110zm-885 0l438 0c60,0 109,-49 109,-110 0,-60 -49,-109 -109,-109l-438 0c-61,0 -110,49 -110,109 0,61 49,110 110,110z"/>
 </g>
</svg>
