<?xml version="1.0" encoding="UTF-8"?>
<!DOCTYPE svg PUBLIC "-//W3C//DTD SVG 1.1//EN" "http://www.w3.org/Graphics/SVG/1.1/DTD/svg11.dtd">
<!-- Creator: CorelDRAW X8 -->
<svg xmlns="http://www.w3.org/2000/svg" xml:space="preserve" width="100%" height="100%" version="1.1" style="shape-rendering:geometricPrecision; text-rendering:geometricPrecision; image-rendering:optimizeQuality; fill-rule:evenodd; clip-rule:evenodd"
viewBox="0 0 500 500"
 xmlns:xlink="http://www.w3.org/1999/xlink">
 <defs>
  <style type="text/css">
   <![CDATA[
    .fil2 {fill:#7D7D7D}
    .fil0 {fill:#9CB9D2}
    .fil1 {fill:#B8CDDF}
    .fil3 {fill:#E3EBF2}
    .fil4 {fill:#F1F5F9;fill-rule:nonzero}
   ]]>
  </style>
 </defs>
 <g id="Layer_x0020_1">
  <metadata id="CorelCorpID_0Corel-Layer"/>
  <polygon class="fil0" points="20,480 480,480 250,335 "/>
  <polygon class="fil1" points="20,190 20,480 250,335 "/>
  <polygon class="fil2" points="20,190 480,190 250,335 "/>
  <polygon class="fil1" points="480,190 480,480 250,335 "/>
  <polygon class="fil0" points="20,190 480,190 250,45 "/>
  <polygon class="fil3" points="80,20 420,20 420,228 250,335 80,228 "/>
  <path class="fil4" d="M353 150c-1,21 -6,38 -16,51 -10,12 -23,19 -39,19 -7,0 -13,-2 -18,-5 -5,-2 -9,-6 -12,-12 -8,11 -18,16 -32,16 -8,0 -14,-2 -20,-7 -6,-4 -10,-11 -13,-19 -3,-9 -4,-18 -3,-29 3,-20 9,-36 20,-49 11,-12 24,-18 39,-18 12,0 22,2 31,8l8 5 -7 71c-1,12 3,17 12,17 7,0 13,-4 18,-13 4,-9 7,-20 7,-34 2,-27 -4,-48 -17,-62 -12,-15 -31,-22 -55,-22 -16,0 -29,4 -41,11 -13,8 -22,19 -29,34 -7,14 -11,31 -12,49 -1,29 4,50 17,65 13,15 32,23 57,23 7,0 14,-1 22,-2 7,-2 14,-4 18,-6l5 20c-5,4 -12,6 -20,8 -9,2 -17,3 -25,3 -23,0 -41,-4 -57,-12 -15,-9 -26,-21 -34,-38 -7,-17 -11,-37 -10,-60 1,-23 6,-43 16,-61 9,-17 22,-31 38,-41 17,-10 35,-14 55,-14 21,0 39,4 53,12 15,9 26,21 34,37 7,16 11,34 10,55zm-122 14c-1,11 0,18 2,24 3,5 7,8 13,8 4,0 7,-2 10,-5 4,-4 6,-8 8,-15l5 -55c-2,0 -5,-1 -7,-1 -9,0 -16,4 -21,11 -5,7 -9,18 -10,33z"/>
 </g>
</svg>
