<?xml version="1.0" encoding="UTF-8"?>
<!DOCTYPE svg PUBLIC "-//W3C//DTD SVG 1.1//EN" "http://www.w3.org/Graphics/SVG/1.1/DTD/svg11.dtd">
<!-- Creator: CorelDRAW X6 -->
<svg xmlns="http://www.w3.org/2000/svg" xml:space="preserve" width="100%" height="100%" version="1.1" style="shape-rendering:geometricPrecision; text-rendering:geometricPrecision; image-rendering:optimizeQuality; fill-rule:evenodd; clip-rule:evenodd"
viewBox="0 0 500 500"
 xmlns:xlink="http://www.w3.org/1999/xlink">
 <defs>
  <style type="text/css">
   <![CDATA[
    .str1 {stroke:#303030;stroke-width:10;stroke-linejoin:round}
    .fil3 {fill:#0078C8}
    .fil4 {fill:#0099FF}
    .fil1 {fill:#8A8A8A}
    .fil2 {fill:url(#id0)}
   ]]>
  </style>
  <linearGradient id="id0" gradientUnits="userSpaceOnUse" x1="389.174" y1="182.04" x2="292.499" y2="192.97">
   <stop offset="0" style="stop-color:#0099FF"/>
   <stop offset="1" style="stop-color:#0083DB"/>
  </linearGradient>
 </defs>
 <g id="Layer_x0020_1">
  <metadata id="CorelCorpID_0Corel-Layer"/>
  <rect class="fil1 str1" transform="matrix(1.12359 -0.301066 0.275975 1.02995 43.3908 42.3244)" width="34.999" height="419.999" rx="9" ry="9"/>
  <path class="fil2 str1" d="M220 85c52,-24 126,-29 175,-9l67 227c-65,-20 -130,-13 -180,16l-62 -234z"/>
  <path class="fil3 str1" d="M282 319l-16 -61c21,1 42,6 64,13 -26,10 -41,29 -48,48z"/>
  <path class="fil4 str1" d="M150 286l-37 20 -63 -235 37 -20c52,-24 126,-28 175,-8l68 228c-66,-20 -131,-14 -180,15z"/>
 </g>
</svg>
