<?xml version="1.0" encoding="UTF-8"?>
<!DOCTYPE svg PUBLIC "-//W3C//DTD SVG 1.1//EN" "http://www.w3.org/Graphics/SVG/1.1/DTD/svg11.dtd">
<!-- Creator: CorelDRAW X6 -->
<svg xmlns="http://www.w3.org/2000/svg" xml:space="preserve" width="100%" height="100%" version="1.1" style="shape-rendering:geometricPrecision; text-rendering:geometricPrecision; image-rendering:optimizeQuality; fill-rule:evenodd; clip-rule:evenodd"
viewBox="0 0 500 500"
 xmlns:xlink="http://www.w3.org/1999/xlink">
 <defs>
  <style type="text/css">
   <![CDATA[
    .str3 {stroke:#3B9CFF;stroke-width:0.01}
    .str0 {stroke:#2B2A29;stroke-width:5}
    .str4 {stroke:#434242;stroke-width:5}
    .str1 {stroke:#434242;stroke-width:10}
    .str2 {stroke:#747474;stroke-width:10;stroke-dasharray:20.000000 10.000000}
    .fil2 {fill:none}
    .fil0 {fill:#E7E7E7}
    .fil3 {fill:url(#id0)}
    .fil1 {fill:url(#id1)}
   ]]>
  </style>
  <linearGradient id="id0" gradientUnits="userSpaceOnUse" x1="34.84" y1="370.62" x2="145.166" y2="370.62">
   <stop offset="0" style="stop-color:#0081D8"/>
   <stop offset="1" style="stop-color:#3BB0FF"/>
  </linearGradient>
  <linearGradient id="id1" gradientUnits="userSpaceOnUse" x1="415.132" y1="119.428" x2="266.968" y2="119.428">
   <stop offset="0" style="stop-color:#008DEB"/>
   <stop offset="1" style="stop-color:#3BB0FF"/>
  </linearGradient>
 </defs>
 <g id="Layer_x0020_1">
  <metadata id="CorelCorpID_0Corel-Layer"/>
  <polygon class="fil0 str0" points="180,290 180,300 470,470 470,290 "/>
  <polygon class="fil1 str1" points="180,210 180,200 470,30 470,210 "/>
  <line class="fil2 str2" x1="20" y1="250" x2="480" y2= "250" />
  <rect class="fil2 str3" transform="matrix(-4.90682E-014 1.85271 1.85271 4.90682E-014 0.00509803 0.00509803)" width="270" height="270"/>
  <path class="fil3 str4" d="M78 420l-37 -37c-3,-3 -6,-6 -6,-12 0,-7 6,-13 12,-13l12 0c3,0 6,-3 6,-6l0 -82 50 0 0 82c0,3 3,6 6,6l12 0c6,0 12,6 12,13 0,6 -3,9 -6,12l-37 37c-8,8 -16,8 -24,0zm0 -340l-37 37c-3,3 -6,6 -6,12 0,7 6,13 12,13l12 0c3,0 6,3 6,6l0 82 50 0 0 -82c0,-3 3,-6 6,-6l12 0c6,0 12,-6 12,-13 0,-6 -3,-9 -6,-12l-37 -37c-8,-8 -16,-8 -24,0z"/>
 </g>
</svg>
