<?xml version="1.0" encoding="UTF-8"?>
<!DOCTYPE svg PUBLIC "-//W3C//DTD SVG 1.1//EN" "http://www.w3.org/Graphics/SVG/1.1/DTD/svg11.dtd">
<!-- Creator: CorelDRAW X7 -->
<svg xmlns="http://www.w3.org/2000/svg" xml:space="preserve" width="100%" height="100%" version="1.1" style="shape-rendering:geometricPrecision; text-rendering:geometricPrecision; image-rendering:optimizeQuality; fill-rule:evenodd; clip-rule:evenodd"
viewBox="0 0 500 500"
 xmlns:xlink="http://www.w3.org/1999/xlink">
 <defs>
  <style type="text/css">
   <![CDATA[
    .fil0 {fill:#333}
   ]]>
  </style>
 </defs>
 <g id="Layer_x0020_1">
  <metadata id="CorelCorpID_0Corel-Layer"/>
  <path class="fil0" d="M262 283l-21 -17c-7,-6 -16,-13 -16,-26 0,-13 9,-22 17,-29 25,-20 50,-41 50,-86 0,-45 -29,-69 -42,-81l37 0 39 -24 -118 0c-33,0 -79,8 -113,36 -26,22 -39,53 -39,80 0,47 36,94 100,94 6,0 12,0 19,-1 -3,7 -6,13 -6,24 0,18 9,30 18,40 -27,2 -77,5 -115,28 -35,21 -46,52 -46,73 0,45 42,86 129,86 103,0 158,-57 158,-113 0,-42 -24,-62 -51,-84zm151 -70l0 -60 -29 0 0 60 -60 0 0 30 60 0 0 60 29 0 0 -60 61 0 0 -30 -61 0zm-229 1c-52,0 -75,-67 -75,-107 0,-16 3,-32 13,-45 10,-12 26,-19 42,-19 50,0 75,67 75,110 0,11 -1,30 -14,44 -10,9 -26,17 -41,17zm0 241c-64,0 -105,-31 -105,-73 0,-43 38,-57 52,-62 25,-9 57,-10 62,-10 6,0 9,0 14,1 46,32 65,48 65,79 0,37 -30,65 -88,65z"/>
 </g>
</svg>
