<?xml version="1.0" encoding="UTF-8"?>
<!DOCTYPE svg PUBLIC "-//W3C//DTD SVG 1.1//EN" "http://www.w3.org/Graphics/SVG/1.1/DTD/svg11.dtd">
<!-- Creator: CorelDRAW X6 -->
<svg xmlns="http://www.w3.org/2000/svg" xml:space="preserve" width="100%" height="100%" version="1.1" style="shape-rendering:geometricPrecision; text-rendering:geometricPrecision; image-rendering:optimizeQuality; fill-rule:evenodd; clip-rule:evenodd"
viewBox="0 0 500 500"
 xmlns:xlink="http://www.w3.org/1999/xlink">
 <defs>
  <style type="text/css">
   <![CDATA[
    .str2 {stroke:#303030;stroke-width:5}
    .str1 {stroke:#303030;stroke-width:7.5}
    .str3 {stroke:#686868;stroke-width:10}
    .fil3 {fill:none}
    .fil4 {fill:#303030}
    .fil2 {fill:#E5E5E5}
    .fil1 {fill:#ED2F00}
   ]]>
  </style>
 </defs>
 <g id="Layer_x0020_1">
  <metadata id="CorelCorpID_0Corel-Layer"/>
  <path class="fil1 str1" d="M389 95c78,78 78,205 0,283 -78,78 -205,78 -283,0 -78,-78 -78,-205 0,-283 78,-78 205,-78 283,0zm-60 60c45,45 45,118 0,163 -45,44 -118,44 -163,0 -45,-45 -45,-118 0,-163 45,-45 118,-45 163,0z"/>
  <path class="fil2 str2" d="M298 150l57 -97c31,18 58,44 76,76l-98 56c-4,-7 -9,-13 -15,-19 -6,-7 -13,-12 -20,-16zm-101 172l-57 98c-31,-19 -58,-45 -76,-77l97 -56c5,7 10,14 16,20 6,6 12,11 20,15zm-36 -137l-97 -56c18,-32 45,-58 76,-76l57 97c-8,4 -14,9 -20,16 -6,6 -11,12 -16,19zm172 102l98 56c-18,32 -45,58 -76,77l-57 -98c7,-4 14,-9 20,-15 6,-6 11,-13 15,-20z"/>
  <path class="fil3 str3" d="M403 391c32,-31 31,-31 46,-66 33,-78 17,-97 -7,-194 -6,-25 -26,-27 -39,-50 -18,-18 -31,-56 -61,-40 -55,49 -110,35 -175,5 -24,-3 -58,19 -75,35 -32,31 -62,95 -60,160 5,160 15,85 60,150 120,90 150,75 205,65 55,-10 89,-49 106,-65z"/>
  <path class="fil4" d="M403 66l15 14c3,4 3,10 0,14l-8 7c-8,-10 -18,-19 -28,-28l7 -7c4,-4 11,-4 14,0zm-326 14l14 -14c4,-4 11,-4 14,0l8 7c-11,9 -20,18 -29,28l-7 -7c-4,-4 -4,-10 0,-14zm14 326l-14 -14c-4,-4 -4,-10 0,-14l7 -7c9,10 18,20 29,28l-8 7c-3,4 -10,4 -14,0zm327 -14l-15 14c-3,4 -10,4 -14,0l-7 -7c10,-8 20,-18 28,-28l8 7c3,4 3,10 0,14z"/>
 </g>
</svg>
