<?xml version="1.0" encoding="UTF-8"?>
<!DOCTYPE svg PUBLIC "-//W3C//DTD SVG 1.1//EN" "http://www.w3.org/Graphics/SVG/1.1/DTD/svg11.dtd">
<!-- Creator: CorelDRAW X7 -->
<svg xmlns="http://www.w3.org/2000/svg" xml:space="preserve" width="100%" height="100%" version="1.1" style="shape-rendering:geometricPrecision; text-rendering:geometricPrecision; image-rendering:optimizeQuality; fill-rule:evenodd; clip-rule:evenodd"
viewBox="0 0 500 500"
 xmlns:xlink="http://www.w3.org/1999/xlink">
 <defs>
  <style type="text/css">
   <![CDATA[
    .fil0 {fill:#303030}
    .fil1 {fill:url(#id0)}
    .fil2 {fill:url(#id1)}
   ]]>
  </style>
  <linearGradient id="id0" gradientUnits="userSpaceOnUse" x1="430" y1="227.501" x2="70.003" y2="227.501">
   <stop offset="0" style="stop-opacity:1; stop-color:#008BFF"/>
   <stop offset="1" style="stop-opacity:1; stop-color:#00AAFF"/>
  </linearGradient>
  <linearGradient id="id1" gradientUnits="userSpaceOnUse" x1="129.697" y1="149.929" x2="249.366" y2="305.072">
   <stop offset="0" style="stop-opacity:1; stop-color:#008BFF"/>
   <stop offset="1" style="stop-opacity:1; stop-color:#4EAFFF"/>
  </linearGradient>
 </defs>
 <g id="Layer_x0020_1">
  <metadata id="CorelCorpID_0Corel-Layer"/>
  <path class="fil0" d="M65 107l370 0c8,0 15,7 15,16l0 214c0,9 -7,16 -15,16l-370 0c-8,0 -15,-7 -15,-16l0 -214c0,-9 7,-16 15,-16zm5 21l360 0 0 200 -360 0 0 -200zm-25 265c101,0 309,0 410,0 8,0 15,-7 15,-15l0 -10 -170 0 0 3c0,4 -3,7 -7,7l-86 0c-4,0 -7,-3 -7,-7l0 -3 -170 0 0 10c0,8 7,15 15,15z"/>
  <polygon class="fil1" points="430,128 430,328 70,328 70,128 "/>
  <path class="fil2" d="M309 128c-3,84 -47,157 -112,200l-127 0 0 -200 239 0z"/>
 </g>
</svg>
