<?xml version="1.0" encoding="UTF-8"?>
<!DOCTYPE svg PUBLIC "-//W3C//DTD SVG 1.1//EN" "http://www.w3.org/Graphics/SVG/1.1/DTD/svg11.dtd">
<!-- Creator: CorelDRAW X6 -->
<svg xmlns="http://www.w3.org/2000/svg" xml:space="preserve" width="100%" height="100%" version="1.1" style="shape-rendering:geometricPrecision; text-rendering:geometricPrecision; image-rendering:optimizeQuality; fill-rule:evenodd; clip-rule:evenodd"
viewBox="0 0 2500 2500"
 xmlns:xlink="http://www.w3.org/1999/xlink">
 <defs>
  <style type="text/css">
   <![CDATA[
    .str2 {stroke:#303030;stroke-width:10}
    .str3 {stroke:#303030;stroke-width:10;stroke-linejoin:round}
    .str1 {stroke:#FEFEFE;stroke-width:15;stroke-linecap:round}
    .fil2 {fill:none}
    .fil1 {fill:#303030}
    .fil3 {fill:url(#id0)}
    .fil4 {fill:url(#id1)}
   ]]>
  </style>
  <linearGradient id="id0" gradientUnits="userSpaceOnUse" x1="115.495" y1="337.237" x2="384.354" y2="337.237">
   <stop offset="0" style="stop-color:#0081D8"/>
   <stop offset="0.478431" style="stop-color:#27A9FF"/>
   <stop offset="1" style="stop-color:#0081D8"/>
  </linearGradient>
  <linearGradient id="id1" gradientUnits="userSpaceOnUse" x1="249.925" y1="300.565" x2="249.925" y2="394.511">
   <stop offset="0" style="stop-color:#FCFCFD"/>
   <stop offset="1" style="stop-color:#EDEDED"/>
  </linearGradient>
 </defs>
 <g id="Layer_x0020_1">
  <metadata id="CorelCorpID_0Corel-Layer"/>
  <path class="fil1" d="M250 31l0 0c65,0 118,53 118,119l0 53 -43 0 0 -54c0,-41 -34,-75 -75,-75l0 0c-41,0 -75,34 -75,75l0 54 -43 0 0 -53c0,-66 53,-119 118,-119z"/>
  <path class="fil2 str1" d="M234 54c-35,6 -64,31 -75,63"/>
  <path class="fil3 str2" d="M399 322c0,82 -67,149 -149,149l0 0c-82,0 -149,-67 -149,-149 0,-33 0,-65 0,-98 0,-11 9,-21 20,-21l258 0c11,0 20,10 20,21 0,33 0,65 0,98z"/>
  <path class="fil4 str3" d="M250 286c17,0 31,14 31,31 0,9 -4,17 -10,22l20 70 -82 0 20 -70c-6,-5 -10,-13 -10,-22 0,-17 14,-31 31,-31z"/>
 </g>
</svg>
