<?xml version="1.0" encoding="UTF-8"?>
<!DOCTYPE svg PUBLIC "-//W3C//DTD SVG 1.1//EN" "http://www.w3.org/Graphics/SVG/1.1/DTD/svg11.dtd">
<!-- Creator: CorelDRAW X7 -->
<svg xmlns="http://www.w3.org/2000/svg" xml:space="preserve" width="716px" height="100px" version="1.1" style="shape-rendering:geometricPrecision; text-rendering:geometricPrecision; image-rendering:optimizeQuality; fill-rule:evenodd; clip-rule:evenodd"
viewBox="0 0 716 100"
 xmlns:xlink="http://www.w3.org/1999/xlink">
 <defs>
  <style type="text/css">
   <![CDATA[
    .str0 {stroke:#C6D7E6;stroke-width:2.148}
    .str1 {stroke:#C6D7E6;stroke-width:1.432}
    .str2 {stroke:#C6D7E6;stroke-width:0.716}
    .fil0 {fill:none}
    .fil5 {fill:#AAC3D9}
    .fil3 {fill:#B8CDDF}
    .fil2 {fill:#C6D7E6}
    .fil1 {fill:#F1F5F9}
    .fil4 {fill:white}
   ]]>
  </style>
 </defs>
 <g id="Layer_x0020_1">
  <metadata id="CorelCorpID_0Corel-Layer"/>
  <polyline class="fil0 str0" points="88,27 88,43 351,43 "/>
  <line class="fil0 str0" x1="40" y1="53" x2="351" y2= "53" />
  <polyline class="fil0 str0" points="96,89 96,64 350,64 "/>
  <polyline class="fil0 str0" points="128,85 128,74 351,74 "/>
  <circle class="fil1 str1" cx="145" cy="14" r="6"/>
  <path class="fil2" d="M328 72c-2,0 -3,1 -3,2 0,2 1,3 3,3 1,0 2,-1 2,-3 0,-1 -1,-2 -2,-2z"/>
  <path class="fil2" d="M398 27l-1 0 0 -9c1,-1 1,-1 1,-2 0,-1 0,-2 -2,-2 -1,0 -2,1 -2,2 0,1 1,1 1,2l0 9 -8 0 0 -3c1,0 1,-1 1,-2 0,-1 -1,-2 -2,-2 -1,0 -2,1 -2,2 0,1 0,2 1,2l0 3 -8 0 0 -9c0,-1 1,-1 1,-2 0,-1 -1,-2 -2,-2 -2,0 -2,1 -2,2 0,1 0,1 1,2l0 9 -9 0 0 -3c1,0 1,-1 1,-2 0,-1 -1,-2 -2,-2 -1,0 -2,1 -2,2 0,1 1,2 1,2l0 3 -8 0 0 -9c0,-1 1,-1 1,-2 0,-1 -1,-2 -2,-2 -1,0 -2,1 -2,2 0,1 0,1 1,2l0 9 -1 0c-2,0 -3,2 -3,4 0,0 0,26 0,45 0,2 1,3 3,3l1 0 0 10c-1,0 -1,1 -1,2 0,1 1,2 2,2 1,0 2,-1 2,-2 0,-1 -1,-2 -1,-2l0 -10 8 0 0 7c0,0 -1,1 -1,2 0,1 1,2 2,2 1,0 2,-1 2,-2 0,-1 0,-2 -1,-2l0 -7 9 0 0 10c-1,0 -1,1 -1,2 0,1 0,2 2,2 1,0 2,-1 2,-2 0,-1 -1,-2 -1,-2l0 -10 8 0 0 3c-1,0 -1,0 -1,1 0,1 1,2 2,2 1,0 2,-1 2,-2 0,-1 0,-1 -1,-1l0 -3 8 0 0 7c0,0 -1,1 -1,2 0,1 1,2 2,2 2,0 2,-1 2,-2 0,-1 0,-2 -1,-2l0 -7 1 0c2,0 4,-1 4,-3 0,-24 0,-36 0,-45 0,-2 -2,-4 -4,-4z"/>
  <path class="fil2" d="M12 38l1 0 0 -2c0,0 1,-1 1,-1 1,0 2,1 2,1l0 2 2 0 0 -2c0,0 0,-1 1,-1 1,0 1,1 1,1l0 2 2 0 0 -2c0,0 1,-1 1,-1 1,0 2,1 2,1l0 2 2 0 0 -2c0,0 0,-1 1,-1 1,0 1,1 1,1l0 2 2 0 0 -2c0,0 1,-1 1,-1 1,0 2,1 2,1l0 2 0 0c3,0 4,2 4,4l0 1 3 0c0,0 1,1 1,1 0,1 -1,2 -1,2l-3 0 0 2 3 0c0,0 1,0 1,1 0,1 -1,1 -1,1l-3 0 0 2 3 0c0,0 1,1 1,1 0,1 -1,2 -1,2l-3 0 0 2 3 0c0,0 1,0 1,1 0,1 -1,1 -1,1l-3 0 0 2 3 0c0,0 1,1 1,1 0,1 -1,2 -1,2l-3 0 0 0c0,2 -1,4 -4,4l0 0 0 3c0,0 -1,1 -2,1 0,0 -1,-1 -1,-1l0 -3 -2 0 0 3c0,0 0,1 -1,1 -1,0 -1,-1 -1,-1l0 -3 -2 0 0 3c0,0 -1,1 -2,1 0,0 -1,-1 -1,-1l0 -3 -2 0 0 3c0,0 0,1 -1,1 -1,0 -1,-1 -1,-1l0 -3 -2 0 0 3c0,0 -1,1 -2,1 0,0 -1,-1 -1,-1l0 -3 -1 0c-2,0 -3,-2 -3,-4l0 0 -3 0c0,0 -1,-1 -1,-2 0,0 1,-1 1,-1l3 0 0 -2 -3 0c0,0 -1,0 -1,-1 0,-1 1,-1 1,-1l3 0 0 -2 -3 0c0,0 -1,-1 -1,-2 0,0 1,-1 1,-1l3 0 0 -2 -3 0c0,0 -1,0 -1,-1 0,-1 1,-1 1,-1l3 0 0 -2 -3 0c0,0 -1,-1 -1,-2 0,0 1,-1 1,-1l3 0 0 -1c0,-2 1,-4 3,-4zm1 3l21 0c1,0 1,1 1,2l0 20c0,1 0,2 -1,2l-21 0c-1,0 -1,-1 -1,-2l0 -20c0,-1 0,-2 1,-2zm4 4l13 0c1,0 2,1 2,2l0 12c0,2 -1,3 -2,3l-13 0c-1,0 -2,-1 -2,-3l0 -12c0,-1 1,-2 2,-2z"/>
  <circle class="fil0 str1" cx="96" cy="93" r="4"/>
  <polyline class="fil0 str0" points="145,18 145,33 350,33 "/>
  <circle class="fil1 str1" cx="145" cy="14" r="3"/>
  <path class="fil1" d="M396 32l-41 0c-1,0 -1,0 -1,1l0 41c0,1 0,1 1,1l41 0c1,0 1,0 1,-1l0 -41c0,-1 0,-1 -1,-1z"/>
  <path class="fil1 str1" d="M338 61c-1,0 -2,1 -2,3 0,1 1,3 2,3 2,0 3,-2 3,-3 0,-2 -1,-3 -3,-3z"/>
  <path class="fil1 str1" d="M211 27c-3,0 -6,2 -6,6 0,3 3,6 6,6 3,0 6,-3 6,-6 0,-4 -3,-6 -6,-6z"/>
  <path class="fil2" d="M134 93c0,0 0,1 0,1l-2 0 0 0c0,0 0,1 -1,1l0 0 0 1c0,0 0,1 -1,1 0,0 0,-1 0,-1l0 -1 -2 0 0 1c0,0 0,1 0,1 -1,0 -1,-1 -1,-1l0 -1 -2 0 0 1c0,0 0,1 0,1 -1,0 -1,-1 -1,-1l0 -1 0 0c-1,0 -1,-1 -1,-1l0 0 -1 0c-1,0 -1,-1 -1,-1 0,0 0,-1 1,-1l1 0 0 -1 -1 0c-1,0 -1,-1 -1,-1 0,0 0,0 1,0l1 0 0 -2 -1 0c-1,0 -1,0 -1,-1 0,0 0,0 1,0l1 0 0 0c0,-1 0,-2 1,-2l0 0 0 -1c0,0 0,0 1,0 0,0 0,0 0,0l0 1 2 0 0 -1c0,0 0,0 1,0 0,0 0,0 0,0l0 1 2 0 0 -1c0,0 0,0 0,0 1,0 1,0 1,0l0 1 0 0c1,0 1,1 1,2l0 0 2 0c0,0 0,0 0,0 0,1 0,1 0,1l-2 0 0 2 2 0c0,0 0,0 0,0 0,0 0,1 0,1l-2 0 0 1 2 0c0,0 0,1 0,1zm-4 -7l-5 0c-1,0 -1,1 -1,1l0 6c0,1 0,1 1,1l5 0c1,0 1,0 1,-1l0 -6c0,0 0,-1 -1,-1zm0 1l-4 0c-1,0 -1,1 -1,1l0 4c0,1 0,1 1,1l4 0c0,0 0,0 0,-1l0 -4c0,0 0,-1 0,-1z"/>
  <path class="fil2" d="M331 41c-1,0 -2,1 -2,2 0,1 1,3 2,3 2,0 3,-2 3,-3 0,-1 -1,-2 -3,-2z"/>
  <path class="fil2" d="M339 51c-2,0 -3,1 -3,2 0,2 1,3 3,3 1,0 2,-1 2,-3 0,-1 -1,-2 -2,-2z"/>
  <path class="fil2" d="M339 30c-2,0 -3,1 -3,3 0,1 1,2 3,2 1,0 2,-1 2,-2 0,-2 -1,-3 -2,-3z"/>
  <path class="fil2" d="M266 30c-1,0 -2,1 -2,3 0,1 1,2 2,2 2,0 3,-1 3,-2 0,-2 -1,-3 -3,-3z"/>
  <path class="fil2" d="M237 61c-1,0 -2,1 -2,3 0,1 1,2 2,2 2,0 3,-1 3,-2 0,-2 -1,-3 -3,-3z"/>
  <path class="fil1 str1" d="M156 40c-2,0 -3,1 -3,3 0,2 1,3 3,3 1,0 3,-1 3,-3 0,-2 -2,-3 -3,-3z"/>
  <line class="fil0 str0" x1="685" y1="43" x2="400" y2= "43" />
  <polyline class="fil0 str0" points="629,33 629,53 400,53 "/>
  <polyline class="fil0 str0" points="669,89 669,64 401,64 "/>
  <polyline class="fil0 str0" points="623,84 623,74 400,74 "/>
  <path class="fil2" d="M423 72c2,0 3,1 3,2 0,2 -1,3 -3,3 -1,0 -2,-1 -2,-3 0,-1 1,-2 2,-2z"/>
  <ellipse class="fil0 str1" cx="669" cy="93" rx="5" ry="4"/>
  <polyline class="fil0 str0" points="583,19 583,33 401,33 "/>
  <path class="fil1 str1" d="M413 61c1,0 3,1 3,3 0,1 -2,3 -3,3 -2,0 -3,-2 -3,-3 0,-2 1,-3 3,-3z"/>
  <path class="fil1 str1" d="M540 29c2,0 4,2 4,4 0,2 -2,3 -4,3 -2,0 -3,-1 -3,-3 0,-2 1,-4 3,-4z"/>
  <path class="fil2" d="M420 41c1,0 2,1 2,2 0,1 -1,3 -2,3 -2,0 -3,-2 -3,-3 0,-1 1,-2 3,-2z"/>
  <path class="fil2" d="M413 51c1,0 2,1 2,2 0,2 -1,3 -2,3 -2,0 -3,-1 -3,-3 0,-1 1,-2 3,-2z"/>
  <path class="fil2" d="M413 30c1,0 2,1 2,3 0,1 -1,2 -2,2 -2,0 -3,-1 -3,-2 0,-2 1,-3 3,-3z"/>
  <path class="fil2" d="M485 30c1,0 2,1 2,3 0,1 -1,2 -2,2 -1,0 -3,-1 -3,-2 0,-2 2,-3 3,-3z"/>
  <path class="fil2" d="M514 61c1,0 2,1 2,3 0,1 -1,2 -2,2 -1,0 -3,-1 -3,-2 0,-2 2,-3 3,-3z"/>
  <path class="fil1 str1" d="M595 40c2,0 3,1 3,3 0,2 -1,3 -3,3 -1,0 -3,-1 -3,-3 0,-2 2,-3 3,-3z"/>
  <g id="_1003190744">
   <path class="fil3" d="M711 36l-9 0 0 0c0,-1 -1,-1 -1,-1l-1 0 0 -4c0,-4 -4,-8 -8,-8 -4,0 -8,4 -8,8l0 4 -1 0c0,0 -1,0 -1,1 0,2 0,5 0,7 0,5 5,10 10,10 5,0 9,-4 10,-8l9 0c1,0 2,-1 2,-2l0 -5c0,-1 -1,-2 -2,-2zm-14 -1l-10 0 0 -4c0,-3 2,-5 5,-5 3,0 5,2 5,5l0 4z"/>
   <path class="fil4" d="M710 38l-21 0c-1,0 -1,0 -1,1l0 4c0,0 0,1 1,1l21 0c1,0 1,-1 1,-1l0 -4c0,-1 0,-1 -1,-1z"/>
   <path class="fil3" d="M699 41l0 -1c-1,0 -1,0 -2,0 0,0 0,-1 0,-1l0 0c0,0 0,1 0,1 -1,0 -1,0 -2,0l0 1c0,0 1,0 1,0 0,0 0,1 -1,1l1 1c0,-1 1,-1 1,-2 0,1 1,1 1,2l1 -1c-1,0 -1,-1 -1,-1 0,0 1,0 1,0zm5 0l0 -1c-1,0 -1,0 -1,0 0,0 0,-1 0,-1l-1 0c0,0 0,1 0,1 -1,0 -1,0 -2,0l0 1c1,0 1,0 2,0 -1,0 -1,1 -1,1l0 1c1,-1 1,-1 1,-2 1,1 1,1 1,2l1 -1c-1,0 -1,-1 -1,-1 0,0 1,0 1,0zm-10 0l0 -1c-1,0 -2,0 -2,0 0,0 0,-1 0,-1l-1 0c0,0 0,1 1,1 -1,0 -1,0 -2,0l0 1c0,0 1,0 1,0 0,0 0,1 -1,1l1 1c0,-1 0,-1 1,-2 0,1 0,1 1,2l0 -1c0,0 0,-1 -1,-1 1,0 1,0 2,0zm16 0l-1 -1c0,0 -1,0 -1,0 0,0 0,-1 0,-1l-1 0c0,0 0,1 0,1 0,0 -1,0 -1,0l-1 1c1,0 1,0 2,0 0,0 -1,1 -1,1l1 1c0,-1 0,-1 0,-2 1,1 1,1 1,2l1 -1c0,0 -1,-1 -1,-1 1,0 1,0 2,0z"/>
  </g>
  <path class="fil1 str1" d="M386 88c2,0 3,2 3,3 0,2 -1,3 -3,3 -2,0 -3,-1 -3,-3 0,-1 1,-3 3,-3z"/>
  <path class="fil3" d="M368 45c-1,0 -2,0 -2,1 0,1 1,1 2,1 1,0 1,0 1,-1 0,-1 0,-1 -1,-1zm18 27l0 -2 -1 0 0 2 -1 0 0 -2 -2 0 0 2 0 0 0 -2 -2 0 0 2 -1 0 0 -2 -1 0 0 2 -1 0 0 -2 -1 0 0 2 -1 0 0 -2 -1 0 0 2 -1 0 0 -2 -1 0 0 2 -1 0 0 -2 -1 0 0 2 -1 0 0 -2 -2 0 0 2 0 0 0 -2 -2 0 0 2 -1 0 0 -2 -1 0 -4 -4 0 -1 -2 0 0 -1 2 0 0 -2 -2 0 0 0 2 0 0 -2 -2 0 0 -1 2 0 0 -1 -2 0 0 -1 2 0 0 -1 -2 0 0 -1 2 0 0 -1 -2 0 0 -1 2 0 0 -1 -2 0 0 -1 2 0 0 -1 -2 0 0 -1 2 0 0 -2 -2 0 0 0 2 0 0 -2 -2 0 0 -1 2 0 0 -1 -2 0 0 -1 2 0 0 -1 4 -4 1 0 0 -2 1 0 0 2 2 0 0 -2 0 0 0 2 2 0 0 -2 1 0 0 2 1 0 0 -2 1 0 0 2 1 0 0 -2 1 0 0 2 1 0 0 -2 1 0 0 2 1 0 0 -2 1 0 0 2 1 0 0 -2 1 0 0 2 2 0 0 -2 0 0 0 2 2 0 0 -2 1 0 0 2 1 0 0 -2 1 0 0 2 1 0 4 4 0 1 2 0 0 1 -2 0 0 1 2 0 0 1 -2 0 0 2 2 0 0 0 -2 0 0 2 2 0 0 1 -2 0 0 1 2 0 0 1 -2 0 0 1 2 0 0 1 -2 0 0 1 2 0 0 1 -2 0 0 1 2 0 0 1 -2 0 0 1 2 0 0 1 -2 0 0 2 2 0 0 0 -2 0 0 2 2 0 0 1 -2 0 0 1 -4 4 -1 0 0 2 -1 0zm0 -31l-20 0 -3 2 0 20 3 3 20 0 2 -3 0 -20 -2 -2zm-18 16l0 1 -1 0 0 -1 1 0zm10 0l-1 0 0 1 1 0 0 -1zm-2 0l0 1 -1 0 0 -1 1 0zm-2 0l0 1 -1 0 0 -1 1 0zm-2 0l0 1 -1 0 0 -1 1 0zm-2 0l0 1 -1 0 0 -1 1 0zm4 3l0 0 7 0 0 0 -7 0zm-7 0l0 0 7 0 0 0 -7 0zm3 2l0 0 -3 0 0 0 3 0zm12 0l0 0 -1 0 0 0 1 0zm-3 0l0 0 -3 0 0 0 3 0zm-5 0l0 0 -1 0 0 0 1 0zm-1 0l0 0 -1 0 0 0 1 0zm14 -22l-23 0 -2 2 0 23 2 2 23 0 2 -2 0 -23 -2 -2z"/>
  <g id="_1003186208">
   <path class="fil2" d="M469 47l5 6c1,0 1,1 0,1l-5 5c0,1 -1,1 -1,0l-6 -5c0,0 0,-1 0,-1l6 -6c0,0 1,0 1,0z"/>
   <path class="fil4" d="M470 57c0,0 -1,0 -1,0l0 -1 0 1c0,0 -1,0 -1,0l0 -1 0 1c-1,0 -1,0 -1,0 0,0 0,0 0,-1l0 0 0 -1 -1 1c0,0 0,0 0,0 0,0 0,0 0,-1l0 0 0 -1 -1 1c0,0 0,0 0,0 0,0 0,-1 0,-1l0 0 0 0c0,0 0,-1 0,-1l0 0 0 -1c0,0 0,0 0,0 0,0 0,0 0,0l1 0 0 0 0 -1c0,0 0,0 0,0 0,0 0,0 0,0l1 0 0 0 0 -1c0,0 0,0 0,0 0,0 0,0 1,0l0 0 0 0c0,0 1,0 1,0l0 0 0 0c0,0 1,0 1,0 0,0 0,0 0,0l-1 1 1 0 0 0c1,0 1,0 1,0 0,0 0,0 0,0l-1 1 1 0 0 0c1,0 1,0 1,0 0,0 0,0 0,0l0 1 0 0c0,0 0,1 0,1l0 0 0 0c0,0 0,1 0,1 0,0 0,0 -1,0l0 -1 -1 1 1 0c0,1 0,1 0,1 0,0 0,0 -1,0l0 -1 -1 1 1 0c0,1 0,1 0,1z"/>
   <path class="fil5" d="M471 53l-2 -2c0,0 -1,0 -1,0l-2 2c0,0 0,1 0,1l2 2c0,0 1,0 1,0l2 -2c0,0 0,-1 0,-1z"/>
  </g>
  <polyline class="fil0 str2" points="266,54 266,90 134,90 "/>
  <polyline class="fil0 str2" points="266,53 266,22 367,22 "/>
  <polyline class="fil0 str2" points="468,59 468,91 389,91 "/>
  <circle class="fil1 str1" cx="293" cy="74" r="7"/>
  <g id="_1052340152">
   <path class="fil2" d="M292 69c1,0 2,1 2,3l0 1 1 0c0,0 0,0 0,0l0 1c-1,0 -2,1 -2,2 0,1 0,1 1,2 -1,0 -1,0 -2,0 -2,0 -3,-1 -3,-3 0,-1 0,-1 0,-2 0,0 0,0 1,0l0 0 0 -1c0,-2 1,-3 2,-3zm2 4l0 -1c0,-1 -1,-2 -2,-2 -1,0 -1,1 -1,2l0 1 3 0zm-2 2c0,0 1,0 1,0 0,0 0,0 -1,1l1 1 -1 0 0 -1c0,-1 0,-1 0,-1 0,0 0,0 0,0z"/>
   <path class="fil2" d="M295 75c1,0 2,0 2,1 0,1 -1,2 -2,2 -1,0 -1,-1 -1,-2 0,-1 0,-1 1,-1zm0 2c0,0 0,0 0,0 0,0 0,0 0,-1 1,0 1,0 1,0 0,0 0,0 0,0 0,0 0,0 0,0 0,0 0,0 -1,0 0,0 0,0 0,0 0,0 0,0 0,0l0 0 0 0c0,0 0,0 0,-1 0,0 0,0 0,0 1,0 1,0 1,0 0,1 0,1 0,1 0,0 0,0 0,0 0,0 0,1 0,1 0,0 0,0 0,0 0,0 0,0 0,0l-1 0zm1 1l-1 0 0 -1 1 0 0 1z"/>
  </g>
  <path class="fil2" d="M88 16c2,0 4,-1 4,-3 0,-2 -2,-4 -4,-4 -1,0 -3,2 -3,4 0,2 2,3 3,3zm6 6c-1,0 -1,1 -1,1 0,1 0,1 1,1 0,0 1,0 1,-1 0,0 -1,-1 -1,-1zm2 4l0 1c1,0 1,0 1,0l0 -1c0,0 0,0 0,0l0 -1c0,0 0,-1 0,-1l1 0c0,0 0,0 0,0l0 -1c0,0 0,0 0,0l-1 -1c0,0 0,0 0,-1l0 -1c0,0 0,0 0,0l0 0c0,0 0,0 -1,0l0 0c-1,0 -1,0 -1,0l-1 -1c0,0 0,0 0,0l-1 0c0,0 0,0 0,0l0 1c0,0 -1,0 -1,0l-1 0c0,0 0,0 0,0l-1 0c0,0 0,0 0,0l1 1c0,1 0,1 0,1l-2 1c0,0 0,0 0,0l0 1c0,0 0,0 0,0l1 0c1,0 1,1 1,1l-1 1c0,0 0,0 0,0l1 1c0,0 0,0 0,0l1 -1c0,0 1,0 1,0l0 2c0,0 0,0 0,0l1 0c0,0 0,0 0,0l1 -2c0,0 0,0 1,0zm-6 -9l-1 2c0,0 0,0 -1,0 0,0 0,0 0,0l-1 -2c0,0 0,0 0,0 -2,0 -4,2 -4,4l0 4c0,1 0,1 0,1l6 0c0,0 0,-1 0,-1l0 0 1 0 -1 0c0,0 0,0 0,-1l0 0c-1,0 -1,0 -1,0l0 -1c0,-1 0,-1 1,-1l0 0c0,0 0,0 0,0l1 -1 -1 0 0 0c0,0 0,0 0,-1 0,0 0,0 1,0l0 -1c0,0 1,0 1,0 0,0 1,0 1,0l0 0 0 0 0 0c0,-1 0,-1 0,-1 0,0 -1,-1 -2,-1 0,0 0,0 0,0z"/>
  <rect class="fil4" x="616" y="84" width="15.5567" height="14.1367"/>
  <path class="fil2" d="M616 96l15 0 0 -11 -15 0c0,5 0,5 0,11zm-1 -13l17 0 0 14 -17 0c0,-6 0,-8 0,-14zm4 7c0,0 0,-1 0,-1 1,0 0,0 0,0l0 2c0,0 1,0 0,0 0,0 0,-1 0,-1zm3 1c0,0 0,0 1,0l6 0 0 0 -6 0 0 0 6 0 0 -1 -1 0 0 0 0 0 0 0 -1 0 0 0 -1 0 0 0 0 0 0 0 0 0 -1 0 0 0 0 -1 -2 0c-1,0 -1,0 -1,0l0 -1c0,0 1,1 0,0 0,0 -3,-1 -4,0 -1,1 -1,3 0,4 1,1 3,1 4,0 0,0 0,0 0,0l0 -1z"/>
  <path class="fil5" d="M214 34l-1 -1 1 -2c0,0 0,0 0,0l-1 -2c0,0 0,0 0,0l-2 2 -2 -2c0,0 0,0 0,0l-1 2c0,0 0,0 0,0l1 2 -1 1c0,0 0,0 0,1l1 1c0,0 0,0 0,0l2 -2 2 2c0,0 0,0 0,0l1 -1c0,-1 0,-1 0,-1z"/>
  <path class="fil1 str1" d="M468 27c-3,0 -6,2 -6,6 0,3 3,6 6,6 4,0 6,-3 6,-6 0,-4 -2,-6 -6,-6z"/>
  <path class="fil5" d="M465 33l1 -1c0,-1 0,-1 0,0l2 1c0,0 0,0 0,0l3 -3c0,0 0,0 0,0l2 1c0,0 0,0 0,0l-5 5c0,0 0,0 0,0 -1,-1 -2,-2 -3,-3 0,0 0,0 0,0z"/>
  <path class="fil3" d="M629 17c2,0 4,2 4,4 0,2 -2,3 -4,3 -2,0 -3,-1 -3,-3 0,-2 1,-4 3,-4zm0 15l-6 0c0,0 0,0 0,0 0,0 -1,-1 -1,-1 1,-3 4,-6 7,-6 4,0 7,3 7,6 0,0 0,1 0,1 0,0 -1,0 -1,0l-6 0z"/>
  <path class="fil2" d="M579 17l-1 1c0,0 0,0 -1,0l-1 -1c0,0 0,0 0,0l1 -2c0,-1 0,-1 0,-2l-2 0c0,0 -1,0 -1,0l0 -2c0,0 1,0 1,0l2 -1c0,0 0,-1 0,-2l-1 -1c0,0 0,0 0,-1l1 -1c1,0 1,0 1,0l1 1c1,0 2,0 2,0l1 -2c0,-1 0,-1 0,-1l2 0c0,0 0,0 0,1l0 2c1,0 1,0 2,0l2 -1c0,0 0,0 0,0l1 1c0,1 0,1 0,1l-1 1c0,1 1,2 1,2l2 1c0,0 0,0 0,0l0 2c0,0 0,0 0,0l-2 0c0,1 -1,1 -1,2l1 2c0,0 0,0 0,0l-1 1c0,0 0,0 0,0l-2 -1c-1,0 -1,1 -2,1l0 2c0,0 0,0 0,0l-2 0c0,0 0,0 0,0l-1 -2c0,0 -1,-1 -2,-1zm2 -3c1,-1 1,-1 1,-2 0,0 0,0 1,-1 0,0 0,0 0,0 1,0 1,-1 1,-1 0,-1 -2,-1 -2,0l-2 0 0 0c0,-4 6,-3 6,0 0,0 -1,1 -1,1 0,1 0,1 -1,1 0,0 0,1 0,1 -1,0 -1,0 -1,1l-2 0zm2 2l-1 0 0 -2 1 0 0 2z"/>
  <path class="fil2" d="M74 76l0 1c0,1 1,2 2,2l8 0c0,0 1,0 2,0l1 3c0,0 0,0 1,0 0,0 0,0 0,0 0,-4 0,-7 0,-11 0,-1 0,-2 -1,-2l0 3c0,2 -2,4 -4,4l-9 0zm9 -13l-12 0c-1,0 -3,1 -3,3l0 6c0,0 0,0 0,0 0,0 0,0 0,0l0 7c0,0 0,0 1,0 0,0 0,0 1,0l1 -3c1,0 1,-1 2,-1l10 0c2,0 3,-1 3,-3l0 -6c0,-2 -1,-3 -3,-3zm-10 6c1,0 1,0 1,1 0,0 0,1 -1,1 0,0 0,-1 0,-1 0,-1 0,-1 0,-1zm4 0c1,0 1,0 1,1 0,0 0,1 -1,1 0,0 -1,-1 -1,-1 0,-1 1,-1 1,-1zm4 0c1,0 1,0 1,1 0,0 0,1 -1,1 0,0 -1,-1 -1,-1 0,-1 1,-1 1,-1z"/>
  <polyline class="fil0 str2" points="485,33 485,91 616,91 "/>
 </g>
</svg>
