<?xml version="1.0" encoding="UTF-8"?>
<!DOCTYPE svg PUBLIC "-//W3C//DTD SVG 1.1//EN" "http://www.w3.org/Graphics/SVG/1.1/DTD/svg11.dtd">
<!-- Creator: CorelDRAW X7 -->
<svg xmlns="http://www.w3.org/2000/svg" xml:space="preserve" width="100%" height="100%" version="1.1" style="shape-rendering:geometricPrecision; text-rendering:geometricPrecision; image-rendering:optimizeQuality; fill-rule:evenodd; clip-rule:evenodd"
viewBox="0 0 3387 847"
 xmlns:xlink="http://www.w3.org/1999/xlink">
 <defs>
  <style type="text/css">
   <![CDATA[
    .fil1 {fill:#303030}
    .fil2 {fill:#6391B9}
    .fil0 {fill:#303030;fill-rule:nonzero}
   ]]>
  </style>
 </defs>
 <g id="Layer_x0020_1">
  <metadata id="CorelCorpID_0Corel-Layer"/>
  <path class="fil0" d="M288 573c0,-15 -5,-28 -16,-36 -11,-9 -30,-18 -58,-27 -28,-10 -50,-19 -68,-27 -57,-28 -85,-67 -85,-116 0,-24 7,-46 21,-64 14,-19 34,-33 60,-44 26,-10 56,-15 88,-15 32,0 60,5 85,16 25,12 45,28 59,49 13,20 20,44 20,71l-105 0c0,-18 -6,-32 -17,-42 -11,-10 -26,-15 -44,-15 -19,0 -34,5 -45,13 -11,8 -17,19 -17,32 0,11 6,21 18,31 12,9 34,18 64,28 31,10 56,21 75,32 48,27 71,65 71,113 0,39 -14,69 -43,91 -29,22 -69,33 -119,33 -36,0 -68,-7 -97,-19 -29,-13 -51,-31 -66,-53 -14,-22 -21,-48 -21,-77l106 0c0,24 6,42 18,53 12,12 32,17 60,17 17,0 31,-4 41,-11 10,-8 15,-19 15,-33z"/>
  <polygon id="1" class="fil0" points="824,690 718,690 562,416 562,690 456,690 456,250 562,250 718,523 718,250 824,250 "/>
  <polygon id="2" class="fil0" points="1011,690 906,690 906,250 1011,250 "/>
  <path id="3" class="fil0" d="M1199 540l0 150 -106 0 0 -440 175 0c34,0 64,6 89,18 26,13 46,30 60,53 15,23 22,49 22,78 0,43 -16,77 -46,102 -31,26 -73,39 -127,39l-67 0zm0 -82l69 0c21,0 36,-5 47,-15 11,-10 16,-25 16,-44 0,-20 -5,-37 -16,-49 -11,-12 -27,-18 -46,-19l-70 0 0 127z"/>
  <path id="4" class="fil0" d="M2068 541c-2,30 -10,57 -25,81 -15,23 -36,41 -64,54 -27,13 -58,20 -93,20 -58,0 -104,-19 -137,-57 -33,-37 -50,-91 -50,-159l0 -22c0,-43 8,-81 23,-113 15,-32 37,-57 65,-75 28,-18 61,-26 98,-26 53,0 96,14 128,42 33,28 51,67 55,116l-105 0c-1,-27 -8,-46 -20,-58 -13,-12 -32,-18 -58,-18 -27,0 -46,10 -58,30 -13,20 -19,51 -20,95l0 31c0,47 6,80 18,101 12,20 32,30 61,30 24,0 43,-6 56,-17 13,-12 19,-30 20,-55l106 0z"/>
  <path id="5" class="fil0" d="M2498 479c0,43 -8,81 -24,114 -16,33 -39,58 -68,76 -29,18 -63,27 -100,27 -38,0 -71,-9 -100,-26 -29,-17 -51,-42 -68,-74 -16,-32 -24,-69 -25,-110l0 -25c0,-43 8,-81 24,-114 15,-33 38,-59 68,-77 29,-17 63,-26 100,-26 38,0 71,8 100,26 29,18 52,43 68,76 16,33 24,70 25,113l0 20zm-108 -18c0,-44 -7,-78 -22,-100 -15,-23 -35,-35 -63,-35 -53,0 -81,41 -84,121l0 32c0,44 7,77 21,100 14,23 36,35 64,35 27,0 47,-11 62,-34 14,-23 22,-56 22,-99l0 -20z"/>
  <polygon id="6" class="fil0" points="2927,690 2822,690 2666,416 2666,690 2560,690 2560,250 2666,250 2822,523 2822,250 2927,250 "/>
  <path id="7" class="fil0" d="M3229 573c0,-15 -6,-28 -16,-36 -11,-9 -31,-18 -58,-27 -28,-10 -50,-19 -68,-27 -57,-28 -85,-67 -85,-116 0,-24 7,-46 21,-64 14,-19 34,-33 60,-44 26,-10 55,-15 88,-15 31,0 60,5 85,16 25,12 44,28 58,49 14,20 21,44 21,71l-106 0c0,-18 -5,-32 -16,-42 -11,-10 -26,-15 -45,-15 -19,0 -34,5 -45,13 -11,8 -16,19 -16,32 0,11 6,21 18,31 12,9 33,18 64,28 30,10 55,21 75,32 47,27 71,65 71,113 0,39 -14,69 -43,91 -29,22 -69,33 -120,33 -35,0 -68,-7 -97,-19 -28,-13 -50,-31 -65,-53 -14,-22 -22,-48 -22,-77l107 0c0,24 6,42 18,53 12,12 32,17 59,17 18,0 32,-4 42,-11 10,-8 15,-19 15,-33z"/>
  <g id="_1177443688">
   <path class="fil1" d="M1635 261c0,137 0,273 1,411 0,9 -8,18 -18,18l-108 0c-9,0 -18,-9 -18,-18 1,-138 1,-274 1,-411 4,-8 8,-16 12,-25 36,22 82,22 118,0 4,9 8,17 12,25z"/>
   <path class="fil2" d="M1525 188c12,-23 24,-46 35,-69 2,-5 6,-5 8,0 12,23 24,46 35,69 -24,13 -54,13 -78,0l0 0z"/>
  </g>
 </g>
</svg>
