<?xml version="1.0" encoding="UTF-8"?>
<!DOCTYPE svg PUBLIC "-//W3C//DTD SVG 1.1//EN" "http://www.w3.org/Graphics/SVG/1.1/DTD/svg11.dtd">
<!-- Creator: CorelDRAW X7 -->
<svg xmlns="http://www.w3.org/2000/svg" xml:space="preserve" width="100%" height="100%" version="1.1" style="shape-rendering:geometricPrecision; text-rendering:geometricPrecision; image-rendering:optimizeQuality; fill-rule:evenodd; clip-rule:evenodd"
viewBox="0 0 500 500"
 xmlns:xlink="http://www.w3.org/1999/xlink">
 <defs>
  <style type="text/css">
   <![CDATA[
    .str0 {stroke:#303030;stroke-width:15}
    .str1 {stroke:#303030;stroke-width:30;stroke-linecap:round}
    .fil2 {fill:none}
    .fil0 {fill:#008EED}
    .fil1 {fill:url(#id0)}
   ]]>
  </style>
  <linearGradient id="id0" gradientUnits="userSpaceOnUse" x1="267.375" y1="300.019" x2="186.173" y2="157.667">
   <stop offset="0" style="stop-opacity:1; stop-color:#F2F2F2"/>
   <stop offset="1" style="stop-opacity:1; stop-color:#CBCBCB"/>
  </linearGradient>
 </defs>
 <g id="Layer_x0020_1">
  <metadata id="CorelCorpID_0Corel-Layer"/>
  <path class="fil0" d="M432 471c24,0 43,-20 43,-43 0,-6 -1,-12 -4,-17 -8,-20 -18,-50 -28,-68 -2,-4 -6,-6 -11,-6 -4,0 -8,2 -10,6 -10,18 -20,48 -28,68 -3,5 -4,11 -4,17 0,23 19,43 42,43z"/>
  <path class="fil1" d="M283 29l146 252 -252 145c-6,4 -15,2 -18,-4l-132 -229c-4,-6 -2,-15 5,-18l251 -146z"/>
  <path class="fil0" d="M428 281l-251 145c-6,4 -15,2 -18,-4l-81 -141 350 0z"/>
  <path class="fil2 str0" d="M283 29l146 252 -252 145c-6,4 -15,2 -18,-4l-132 -229c-4,-6 -2,-15 5,-18l251 -146z"/>
  <line class="fil2 str1" x1="282" y1="29" x2="429" y2= "284" />
 </g>
</svg>
