<?xml version="1.0" encoding="UTF-8"?>
<!DOCTYPE svg PUBLIC "-//W3C//DTD SVG 1.1//EN" "http://www.w3.org/Graphics/SVG/1.1/DTD/svg11.dtd">
<!-- Creator: CorelDRAW X6 -->
<svg xmlns="http://www.w3.org/2000/svg" xml:space="preserve" width="100%" height="100%" version="1.1" style="shape-rendering:geometricPrecision; text-rendering:geometricPrecision; image-rendering:optimizeQuality; fill-rule:evenodd; clip-rule:evenodd"
viewBox="0 0 500 500"
 xmlns:xlink="http://www.w3.org/1999/xlink">
 <defs>
  <style type="text/css">
   <![CDATA[
    .str1 {stroke:#3B9CFF;stroke-width:0.01}
    .str0 {stroke:#434242;stroke-width:10}
    .fil2 {fill:none}
    .fil3 {fill:#434242}
    .fil0 {fill:url(#id0)}
    .fil1 {fill:url(#id1)}
   ]]>
  </style>
  <linearGradient id="id0" gradientUnits="userSpaceOnUse" x1="113.061" y1="289.883" x2="204.349" y2="381.171">
   <stop offset="0" style="stop-color:#C5C5C5"/>
   <stop offset="1" style="stop-color:#E7E7E7"/>
  </linearGradient>
  <linearGradient id="id1" gradientUnits="userSpaceOnUse" x1="347.449" y1="252.408" x2="242.599" y2="147.558">
   <stop offset="0" style="stop-color:#0075C4"/>
   <stop offset="1" style="stop-color:#14A1FF"/>
  </linearGradient>
 </defs>
 <g id="Layer_x0020_1">
  <metadata id="CorelCorpID_0Corel-Layer"/>
  <g id="_1132307488">
   <path class="fil0" d="M30 464c81,6 216,-106 263,-153l-109 -110c-48,47 -160,182 -154,263z"/>
   <path class="fil1" d="M449 46c-42,-42 -169,59 -257,147l109 109c89,-88 190,-214 148,-256z"/>
   <path class="fil2 str0" d="M301 302c-57,58 -191,168 -271,162 -5,-79 105,-214 162,-271 88,-88 215,-189 257,-147 42,42 -59,168 -148,256z"/>
   <path class="fil3" d="M445 118c5,5 10,10 15,14 14,15 13,40 -3,57 -48,47 -95,95 -143,143 -3,-12 -11,-20 -3,-28l21 -21c4,4 12,3 16,-1l85 -84c16,-17 1,-32 -10,-44 7,-9 15,-26 22,-36zm-253 75l109 109 -8 9 -109 -110 8 -8zm-162 271c0,-10 0,-21 3,-34l31 31c-13,3 -24,4 -34,3z"/>
  </g>
  <rect class="fil2 str1" width="500" height="500"/>
 </g>
</svg>
