<?xml version="1.0" encoding="UTF-8"?>
<!DOCTYPE svg PUBLIC "-//W3C//DTD SVG 1.1//EN" "http://www.w3.org/Graphics/SVG/1.1/DTD/svg11.dtd">
<!-- Creator: CorelDRAW X7 -->
<svg xmlns="http://www.w3.org/2000/svg" xml:space="preserve" width="100%" height="100%" version="1.1" style="shape-rendering:geometricPrecision; text-rendering:geometricPrecision; image-rendering:optimizeQuality; fill-rule:evenodd; clip-rule:evenodd"
viewBox="0 0 5000 5000"
 xmlns:xlink="http://www.w3.org/1999/xlink">
 <defs>
  <style type="text/css">
   <![CDATA[
    .str0 {stroke:#303030;stroke-width:100}
    .fil2 {fill:#202020}
    .fil1 {fill:#484848}
    .fil0 {fill:url(#id0)}
   ]]>
  </style>
  <linearGradient id="id0" gradientUnits="userSpaceOnUse" x1="2500" y1="2510.93" x2="2500" y2="3554.93">
   <stop offset="0" style="stop-opacity:1; stop-color:#17A2FF"/>
   <stop offset="1" style="stop-opacity:1; stop-color:#0078C8"/>
  </linearGradient>
 </defs>
 <g id="Layer_x0020_1">
  <metadata id="CorelCorpID_0Corel-Layer"/>
  <path class="fil0 str0" d="M1250 1583c-41,240 -91,360 -300,600 -209,240 -650,650 -650,1300 0,646 576,1000 1300,1000l1800 0c724,0 1300,-354 1300,-1000 0,-650 -441,-1060 -650,-1300 -209,-240 -250,-339 -300,-600l-2500 0z"/>
  <path class="fil1" d="M2274 1097l152 262 108 -62 -152 -263c41,-37 72,-86 88,-143 42,-158 -52,-321 -210,-364 -158,-42 -321,52 -364,210 -42,159 52,321 210,364 58,15 116,13 168,-4z"/>
  <path class="fil2" d="M2725 1097l-152 262 -108 -62 152 -263c-41,-37 -72,-86 -88,-143 -42,-158 52,-321 210,-364 159,-42 321,52 364,210 42,159 -52,321 -210,364 -57,15 -115,13 -168,-4z"/>
  <path class="fil1" d="M3870 1485c0,228 92,502 366,731l0 -731c0,-229 -92,-274 -274,-274l-2924 0c-182,0 -274,45 -274,274l0 731c274,-229 366,-503 366,-731l2740 0z"/>
 </g>
</svg>
