<?xml version="1.0" encoding="UTF-8"?>
<!DOCTYPE svg PUBLIC "-//W3C//DTD SVG 1.1//EN" "http://www.w3.org/Graphics/SVG/1.1/DTD/svg11.dtd">
<!-- Creator: CorelDRAW X7 -->
<svg xmlns="http://www.w3.org/2000/svg" xml:space="preserve" width="100%" height="100%" version="1.1" style="shape-rendering:geometricPrecision; text-rendering:geometricPrecision; image-rendering:optimizeQuality; fill-rule:evenodd; clip-rule:evenodd"
viewBox="0 0 5000 5000"
 xmlns:xlink="http://www.w3.org/1999/xlink">
 <defs>
  <style type="text/css">
   <![CDATA[
    .str1 {stroke:#303030;stroke-width:100}
    .str2 {stroke:#303030;stroke-width:50}
    .str0 {stroke:#FF3300;stroke-width:200;stroke-linecap:round}
    .fil0 {fill:none}
    .fil2 {fill:#303030}
    .fil1 {fill:url(#id0)}
   ]]>
  </style>
  <linearGradient id="id0" gradientUnits="userSpaceOnUse" x1="2500" y1="2000" x2="2500" y2="4699.98">
   <stop offset="0" style="stop-opacity:1; stop-color:#E5E5E5"/>
   <stop offset="1" style="stop-opacity:1; stop-color:#B1B1B1"/>
  </linearGradient>
 </defs>
 <g id="Layer_x0020_1">
  <metadata id="CorelCorpID_0Corel-Layer"/>
  <path class="fil0 str0" d="M1763 300c-70,67 -113,191 -113,325 0,134 43,258 113,325 70,67 114,191 114,325 0,134 -44,258 -114,325"/>
  <path class="fil0 str0" d="M2500 300c-70,67 -113,191 -113,325 0,134 43,258 113,325 70,67 113,191 113,325 0,134 -43,258 -113,325"/>
  <path class="fil0 str0" d="M3237 300c-70,67 -114,191 -114,325 0,134 44,258 114,325 70,67 113,191 113,325 0,134 -43,258 -113,325"/>
  <path class="fil1 str1" d="M3850 2000c165,0 300,135 300,300l0 2100c0,165 -135,300 -300,300 -165,0 -300,-135 -300,-300l0 -2100c0,-165 135,-300 300,-300zm-900 0c165,0 300,135 300,300l0 2100c0,165 -135,300 -300,300 -165,0 -300,-135 -300,-300l0 -2100c0,-165 135,-300 300,-300zm-900 0c165,0 300,135 300,300l0 2100c0,165 -135,300 -300,300 -165,0 -300,-135 -300,-300l0 -2100c0,-165 135,-300 300,-300zm-900 0c165,0 300,135 300,300l0 2100c0,165 -135,300 -300,300 -165,0 -300,-135 -300,-300l0 -2100c0,-165 135,-300 300,-300z"/>
  <path class="fil0 str2" d="M3850 4700l0 -2700m-900 2700l0 -2700m-900 2700l0 -2700m-900 2700l0 -2700"/>
  <path class="fil2" d="M600 2325l250 0 0 200 -250 0c-55,0 -100,-45 -100,-100 0,-55 45,-100 100,-100zm0 1850l250 0 0 200 -250 0c-55,0 -100,-45 -100,-100 0,-55 45,-100 100,-100zm3800 -1850l-250 0 0 200 250 0c55,0 100,-45 100,-100 0,-55 -45,-100 -100,-100zm0 1850l-250 0 0 200 250 0c55,0 100,-45 100,-100 0,-55 -45,-100 -100,-100zm-2950 -1850l300 0 0 200 -300 0 0 -200zm0 1850l300 0 0 200 -300 0 0 -200zm900 -1850l300 0 0 200 -300 0 0 -200zm0 1850l300 0 0 200 -300 0 0 -200zm900 -1850l300 0 0 200 -300 0 0 -200zm0 1850l300 0 0 200 -300 0 0 -200z"/>
 </g>
</svg>
