<?xml version="1.0" encoding="UTF-8"?>
<!DOCTYPE svg PUBLIC "-//W3C//DTD SVG 1.1//EN" "http://www.w3.org/Graphics/SVG/1.1/DTD/svg11.dtd">
<!-- Creator: CorelDRAW X6 -->
<svg xmlns="http://www.w3.org/2000/svg" xml:space="preserve" width="100%" height="100%" version="1.1" style="shape-rendering:geometricPrecision; text-rendering:geometricPrecision; image-rendering:optimizeQuality; fill-rule:evenodd; clip-rule:evenodd"
viewBox="0 0 500 500"
 xmlns:xlink="http://www.w3.org/1999/xlink">
 <defs>
  <style type="text/css">
   <![CDATA[
    .str0 {stroke:#3B9CFF;stroke-width:0.01}
    .str3 {stroke:#434242;stroke-width:7.5}
    .str2 {stroke:#434242;stroke-width:10}
    .str1 {stroke:#434242;stroke-width:15}
    .fil0 {fill:none}
    .fil2 {fill:url(#id0)}
    .fil1 {fill:url(#id1)}
   ]]>
  </style>
  <linearGradient id="id0" gradientUnits="userSpaceOnUse" x1="235.157" y1="166.445" x2="235.157" y2="26.447">
   <stop offset="0" style="stop-color:#006AB1"/>
   <stop offset="1" style="stop-color:#3BB0FF"/>
  </linearGradient>
  <linearGradient id="id1" gradientUnits="userSpaceOnUse" x1="230.38" y1="442.65" x2="230.38" y2="278.74">
   <stop offset="0" style="stop-color:#2E2E2E"/>
   <stop offset="1" style="stop-color:gray"/>
  </linearGradient>
 </defs>
 <g id="Layer_x0020_1">
  <metadata id="CorelCorpID_0Corel-Layer"/>
  <rect class="fil0 str0" width="500" height="500"/>
  <path class="fil0 str1" d="M391 96l19 0c11,0 20,9 20,20l0 90c0,11 -9,20 -20,20l-160 0c-11,0 -20,9 -20,20l0 24"/>
  <path class="fil1 str2" d="M278 422c2,27 -21,49 -48,49 -26,0 -49,-21 -48,-49l10 -167c0,-3 2,-5 4,-5l68 0c3,0 5,2 5,5l9 167z"/>
  <rect class="fil2 str3" x="70" y="26" width="330" height="140" rx="14" ry="20"/>
 </g>
</svg>
