<?xml version="1.0" encoding="UTF-8"?>
<!DOCTYPE svg PUBLIC "-//W3C//DTD SVG 1.1//EN" "http://www.w3.org/Graphics/SVG/1.1/DTD/svg11.dtd">
<!-- Creator: CorelDRAW X7 -->
<svg xmlns="http://www.w3.org/2000/svg" xml:space="preserve" width="100%" height="100%" version="1.1" style="shape-rendering:geometricPrecision; text-rendering:geometricPrecision; image-rendering:optimizeQuality; fill-rule:evenodd; clip-rule:evenodd"
viewBox="0 0 5000 5000"
 xmlns:xlink="http://www.w3.org/1999/xlink">
 <defs>
  <style type="text/css">
   <![CDATA[
    .fil0 {fill:#303030;fill-rule:nonzero}
   ]]>
  </style>
 </defs>
 <g id="Layer_x0020_1">
  <metadata id="CorelCorpID_0Corel-Layer"/>
  <path class="fil0" d="M2788 3562c332,-170 604,-442 774,-774 107,42 178,146 178,263 0,72 -27,144 -82,199l-408 408c-53,53 -124,82 -199,82 -117,0 -221,-71 -263,-178zm328 -841l-395 395c-213,139 -468,221 -743,221 -750,0 -1358,-608 -1358,-1359 0,-750 608,-1358 1358,-1358 750,0 1359,608 1359,1358 0,275 -82,530 -221,743zm-178 -730c0,64 51,116 114,116 64,1 116,-51 117,-114 4,-322 -120,-628 -349,-857 -215,-215 -513,-349 -842,-349 -65,0 -117,51 -117,116 0,64 52,116 116,116 256,0 498,100 680,281 182,183 284,433 281,691zm-1227 -934c61,-18 96,-82 78,-143 -18,-61 -81,-97 -143,-79 -168,49 -320,133 -452,248 -48,42 -53,115 -11,163 42,48 115,52 163,10 105,-91 231,-161 365,-199zm1589 2806c24,37 49,76 76,116 202,300 461,797 877,820 318,18 564,-228 546,-546 -23,-419 -515,-667 -820,-868 -41,-27 -82,-53 -121,-78 50,-78 75,-167 75,-256 0,-193 -116,-366 -293,-439 75,-197 117,-410 117,-634 0,-982 -797,-1778 -1779,-1778 -982,0 -1778,796 -1778,1778 0,982 796,1779 1778,1779 224,0 437,-42 634,-117 73,177 246,293 439,293 86,0 173,-23 249,-70z"/>
 </g>
</svg>
