<?xml version="1.0" encoding="UTF-8"?>
<!DOCTYPE svg PUBLIC "-//W3C//DTD SVG 1.1//EN" "http://www.w3.org/Graphics/SVG/1.1/DTD/svg11.dtd">
<!-- Creator: CorelDRAW X7 -->
<svg xmlns="http://www.w3.org/2000/svg" xml:space="preserve" width="100%" height="100%" version="1.1" style="shape-rendering:geometricPrecision; text-rendering:geometricPrecision; image-rendering:optimizeQuality; fill-rule:evenodd; clip-rule:evenodd"
viewBox="0 0 5000 5000"
 xmlns:xlink="http://www.w3.org/1999/xlink">
 <defs>
  <style type="text/css">
   <![CDATA[
    .fil3 {fill:#202020}
    .fil0 {fill:#476884}
    .fil1 {fill:#E3EBF2}
    .fil2 {fill:#F1F5F9}
   ]]>
  </style>
 </defs>
 <g id="Layer_x0020_1">
  <metadata id="CorelCorpID_0Corel-Layer"/>
  <g id="_1826856336">
   <path class="fil0" d="M4800 4300c0,110 -90,200 -200,200l-4200 0c-110,0 -200,-90 -200,-200 0,-1200 0,-2400 0,-3600 0,-110 90,-200 200,-200l4200 0c110,0 200,90 200,200 0,1200 0,2400 0,3600z"/>
   <path class="fil1" d="M500 1444l4000 0 0 2614c0,92 -75,167 -167,167l-3666 0c-92,0 -167,-75 -167,-167l0 -2614z"/>
   <path class="fil2" d="M1685 753c100,0 181,81 181,181 0,100 -81,181 -181,181 -100,0 -181,-81 -181,-181 0,-100 81,-181 181,-181zm-508 0c100,0 182,81 182,181 0,100 -82,181 -182,181 -100,0 -181,-81 -181,-181 0,-100 81,-181 181,-181zm-507 0c100,0 181,81 181,181 0,100 -81,181 -181,181 -101,0 -182,-81 -182,-181 0,-100 81,-181 182,-181z"/>
  </g>
  <path class="fil3" d="M3514 2240c18,17 18,45 0,62l-405 405c-17,18 -45,18 -63,0l-405 -405c-17,-17 -17,-45 0,-62l873 0zm-638 1596l403 202 0 -1161c0,-50 26,-75 51,-100l756 -757c26,-25 26,-50 0,-50l-2017 0c-25,0 -25,25 0,50l756 757c26,25 51,50 51,102l0 957z"/>
 </g>
</svg>
