<?xml version="1.0" encoding="UTF-8"?>
<!DOCTYPE svg PUBLIC "-//W3C//DTD SVG 1.1//EN" "http://www.w3.org/Graphics/SVG/1.1/DTD/svg11.dtd">
<!-- Creator: CorelDRAW X7 -->
<svg xmlns="http://www.w3.org/2000/svg" xml:space="preserve" width="100%" height="100%" version="1.1" style="shape-rendering:geometricPrecision; text-rendering:geometricPrecision; image-rendering:optimizeQuality; fill-rule:evenodd; clip-rule:evenodd"
viewBox="0 0 500 500"
 xmlns:xlink="http://www.w3.org/1999/xlink">
 <defs>
  <style type="text/css">
   <![CDATA[
    .str0 {stroke:#303030;stroke-width:10}
    .str1 {stroke:#303030;stroke-width:5}
    .fil2 {fill:#F2F2F2}
    .fil0 {fill:url(#id0)}
    .fil1 {fill:url(#id1)}
   ]]>
  </style>
  <linearGradient id="id0" gradientUnits="userSpaceOnUse" x1="250" y1="215.473" x2="250" y2="30.001">
   <stop offset="0" style="stop-opacity:1; stop-color:#46B5FF"/>
   <stop offset="1" style="stop-opacity:1; stop-color:#0083DB"/>
  </linearGradient>
  <linearGradient id="id1" gradientUnits="userSpaceOnUse" x1="250" y1="250.953" x2="250" y2="453.511">
   <stop offset="0" style="stop-opacity:1; stop-color:#7D7D7D"/>
   <stop offset="1" style="stop-opacity:1; stop-color:#484848"/>
  </linearGradient>
 </defs>
 <g id="Layer_x0020_1">
  <metadata id="CorelCorpID_0Corel-Layer"/>
  <path class="fil0 str0" d="M250 215c51,0 92,-41 92,-92 0,-51 -41,-93 -92,-93 -51,0 -92,42 -92,93 0,51 41,92 92,92z"/>
  <path class="fil1 str0" d="M285 239l-26 41c-2,3 -5,5 -9,5 -4,0 -7,-2 -9,-5l-26 -41c-2,-3 -6,-5 -10,-5 -57,3 -103,47 -103,100l0 125c0,6 5,11 11,11l274 0c6,0 11,-5 11,-11l0 -125c0,-53 -46,-97 -103,-100 -4,0 -8,2 -10,5z"/>
  <path class="fil2 str1" d="M247 430l-29 -39c-3,-4 -3,-6 -1,-10l19 -106c1,-3 1,-4 3,-4l22 0c2,0 2,1 3,4l19 106c2,4 2,6 -1,10l-29 39c-1,2 -5,2 -6,0z"/>
 </g>
</svg>
