<?xml version="1.0" encoding="UTF-8"?>
<!DOCTYPE svg PUBLIC "-//W3C//DTD SVG 1.1//EN" "http://www.w3.org/Graphics/SVG/1.1/DTD/svg11.dtd">
<!-- Creator: CorelDRAW X7 -->
<svg xmlns="http://www.w3.org/2000/svg" xml:space="preserve" width="100%" height="100%" version="1.1" style="shape-rendering:geometricPrecision; text-rendering:geometricPrecision; image-rendering:optimizeQuality; fill-rule:evenodd; clip-rule:evenodd"
viewBox="0 0 500 500"
 xmlns:xlink="http://www.w3.org/1999/xlink">
 <defs>
  <style type="text/css">
   <![CDATA[
    .str0 {stroke:black;stroke-width:10}
    .str2 {stroke:white;stroke-width:10}
    .str3 {stroke:#303030;stroke-width:15;stroke-dasharray:30.000000 30.000000}
    .str1 {stroke:white;stroke-width:15;stroke-dasharray:30.000000 30.000000}
    .fil2 {fill:none}
    .fil3 {fill:#303030}
    .fil1 {fill:url(#id0)}
    .fil0 {fill:url(#id1)}
   ]]>
  </style>
  <linearGradient id="id0" gradientUnits="userSpaceOnUse" x1="249.998" y1="120.001" x2="249.998" y2="59.999">
   <stop offset="0" style="stop-opacity:1; stop-color:#0078C8"/>
   <stop offset="1" style="stop-opacity:1; stop-color:#2EACFF"/>
  </linearGradient>
  <linearGradient id="id1" gradientUnits="userSpaceOnUse" x1="249.998" y1="203.201" x2="249.998" y2="356.801">
   <stop offset="0" style="stop-opacity:1; stop-color:#D8D8D8"/>
   <stop offset="1" style="stop-opacity:1; stop-color:#F2F2F2"/>
  </linearGradient>
 </defs>
 <g id="Layer_x0020_1">
  <metadata id="CorelCorpID_0Corel-Layer"/>
  <path class="fil0 str0" d="M30 120l440 0 0 300c0,11 -9,20 -20,20l-400 0c-11,0 -20,-9 -20,-20l0 -300z"/>
  <path class="fil1 str0" d="M30 120l440 0 0 -40c0,-11 -9,-20 -20,-20l-400 0c-11,0 -20,9 -20,20l0 40z"/>
  <line class="fil2 str1" x1="60" y1="273" x2="440" y2= "273" />
  <polyline class="fil2 str2" points="40,414 40,127 465,127 "/>
  <line class="fil2 str3" x1="60" y1="280" x2="440" y2= "280" />
  <polygon class="fil3" points="250,396 301,308 199,308 "/>
  <polygon class="fil3" points="250,155 301,243 199,243 "/>
 </g>
</svg>
