<?xml version="1.0" encoding="UTF-8"?>
<!DOCTYPE svg PUBLIC "-//W3C//DTD SVG 1.1//EN" "http://www.w3.org/Graphics/SVG/1.1/DTD/svg11.dtd">
<!-- Creator: CorelDRAW X8 -->
<svg xmlns="http://www.w3.org/2000/svg" xml:space="preserve" width="100%" height="100%" version="1.1" style="shape-rendering:geometricPrecision; text-rendering:geometricPrecision; image-rendering:optimizeQuality; fill-rule:evenodd; clip-rule:evenodd"
viewBox="0 0 5000 5000"
 xmlns:xlink="http://www.w3.org/1999/xlink">
 <defs>
  <style type="text/css">
   <![CDATA[
    .fil0 {fill:#3C5E00}
   ]]>
  </style>
 </defs>
 <g id="Layer_x0020_1">
  <metadata id="CorelCorpID_0Corel-Layer"/>
  <path class="fil0" d="M2263 765l433 -38c47,-4 90,32 94,79l23 260 -607 53 -22 -260c-4,-47 31,-90 79,-94zm2211 1520l0 291c0,40 -33,73 -73,73l-408 0 0 393c0,48 -39,87 -87,87l-263 0c-48,0 -87,-39 -87,-87l0 -393 -408 0c-40,0 -73,-33 -73,-73l0 -291c0,-40 33,-73 73,-73l408 0 0 -394c0,-48 39,-87 87,-87l263 0c48,0 87,39 87,87l0 394 408 0c40,0 73,33 73,73zm-699 -880c566,0 1025,459 1025,1025 0,567 -459,1026 -1025,1026 -567,0 -1026,-459 -1026,-1026 0,-566 459,-1025 1026,-1025zm-3401 -663l782 0c95,0 173,78 173,173l0 3128c0,95 -78,174 -173,174l-782 0c-96,0 -174,-79 -174,-174l0 -3128c0,-95 78,-173 174,-173zm1216 0l434 0c48,0 87,39 87,87l0 3344c0,48 -39,87 -87,87l-434 0c-48,0 -87,-39 -87,-87l0 -3344c0,-48 39,-87 87,-87zm221 3000c97,0 175,-79 175,-176 0,-96 -78,-175 -175,-175 -97,0 -175,79 -175,175 0,97 78,176 175,176zm-221 -957l434 0 0 -1651 -434 0 0 1651zm72 -1448l290 0 0 -116 -290 0 0 116zm-897 2490c144,0 260,-117 260,-261 0,-143 -116,-260 -260,-260 -144,0 -261,117 -261,260 0,144 117,261 261,261zm-261 -1042l521 0 0 -1651 -521 0 0 1651zm87 -1448l347 0 0 -116 -347 0 0 116zm2233 -141l37 426c-190,215 -306,498 -306,808 0,387 180,732 461,955l24 279 -606 53 -216 -2468 606 -53zm220 2512l7 86 -606 53 -7 -86 606 -53zm11 130l27 303c4,47 -32,90 -79,94l-433 38c-48,4 -90,-32 -94,-79l-27 -303 606 -53zm-25 -3034l428 -76c47,-8 92,24 101,71l45 257 -599 106 -46 -257c-8,-47 24,-93 71,-101zm597 380l6 35c-148,17 -288,61 -415,126l-176 31 -15 -86 600 -106zm-572 262l-5 -28 59 -10c-18,12 -36,25 -54,38zm1001 2171l24 136 -600 106 -45 -257c108,31 222,48 340,48 96,0 190,-11 281,-33zm31 179l53 299c8,47 -24,93 -71,101l-428 76c-47,8 -92,-24 -101,-71l-52 -300 599 -105z"/>
 </g>
</svg>
