<?xml version="1.0" encoding="UTF-8"?>
<!DOCTYPE svg PUBLIC "-//W3C//DTD SVG 1.1//EN" "http://www.w3.org/Graphics/SVG/1.1/DTD/svg11.dtd">
<!-- Creator: CorelDRAW X8 -->
<svg xmlns="http://www.w3.org/2000/svg" xml:space="preserve" width="100%" height="100%" version="1.1" style="shape-rendering:geometricPrecision; text-rendering:geometricPrecision; image-rendering:optimizeQuality; fill-rule:evenodd; clip-rule:evenodd"
viewBox="0 0 5000 5000"
 xmlns:xlink="http://www.w3.org/1999/xlink">
 <defs>
  <style type="text/css">
   <![CDATA[
    .fil0 {fill:#303030}
   ]]>
  </style>
 </defs>
 <g id="Layer_x0020_1">
  <metadata id="CorelCorpID_0Corel-Layer"/>
  <path class="fil0" d="M200 4500l2435 0c229,187 521,300 840,300 732,0 1325,-593 1325,-1325 0,-701 -545,-1276 -1235,-1322l0 -1953 -3365 0 0 4300zm2179 -280l-1899 0 0 -1122 1725 0c-36,119 -55,246 -55,377 0,38 2,76 5,114l-740 0 0 140 759 0c35,179 106,345 205,491zm-103 -1309l-1796 0 0 -1122 2805 0 0 375c-448,64 -823,352 -1009,747zm-1796 -1309l2805 0 0 -1122 -2805 0 0 1122zm935 -491l935 0 0 -140 -935 0 0 140zm0 1309l935 0 0 -140 -935 0 0 140zm1830 1410c0,-102 19,-180 55,-232 37,-52 103,-111 199,-179 50,-31 89,-69 117,-115 29,-46 43,-99 43,-159 0,-62 -16,-112 -50,-149 -33,-37 -81,-55 -142,-55 -50,0 -91,15 -125,45 -33,30 -50,76 -52,135l-365 0 -2 -6c-3,-154 46,-270 147,-347 100,-78 233,-117 397,-117 176,0 315,45 416,134 101,89 152,209 152,360 0,93 -28,177 -83,255 -55,78 -125,139 -210,184 -48,31 -80,64 -96,100 -17,36 -25,85 -25,146l-376 0zm374 462l-373 0 0 -300 373 0 0 300z"/>
 </g>
</svg>
