<?xml version="1.0" encoding="UTF-8"?>
<!DOCTYPE svg PUBLIC "-//W3C//DTD SVG 1.1//EN" "http://www.w3.org/Graphics/SVG/1.1/DTD/svg11.dtd">
<!-- Creator: CorelDRAW X8 -->
<svg xmlns="http://www.w3.org/2000/svg" xml:space="preserve" width="100%" height="100%" version="1.1" style="shape-rendering:geometricPrecision; text-rendering:geometricPrecision; image-rendering:optimizeQuality; fill-rule:evenodd; clip-rule:evenodd"
viewBox="0 0 5000 5000"
 xmlns:xlink="http://www.w3.org/1999/xlink">
 <defs>
  <style type="text/css">
   <![CDATA[
    .str0 {stroke:black;stroke-width:7.62}
    .fil0 {fill:#303030}
   ]]>
  </style>
 </defs>
 <g id="Layer_x0020_1">
  <metadata id="CorelCorpID_0Corel-Layer"/>
  <path class="fil0 str0" d="M200 4097l1987 0 0 0 64 0c-149,-217 -235,-479 -235,-761 0,-706 543,-1286 1234,-1344l0 -12 0 -180 0 -1600 -3050 0 0 3897zm2576 -1321c-294,295 -294,772 0,1067 295,295 773,295 1067,0 295,-295 295,-772 0,-1067 -294,-295 -772,-295 -1067,0zm-145 -145c-375,375 -375,982 0,1357 314,314 791,365 1159,153l156 163c121,184 271,482 524,496 192,10 340,-138 330,-330 -14,-252 -314,-408 -496,-530l-161 -154c210,-367 159,-842 -154,-1155 -375,-375 -983,-375 -1358,0zm-722 1212l-1455 0 0 -1017 1456 0c-49,140 -78,290 -85,445l-524 0 0 127 524 0c6,155 35,305 84,445zm72 -1186l-1527 0 0 -1017 2542 0 0 200c-446,110 -816,414 -1015,817zm-1527 -1186l2542 0 0 -1017 -2542 0 0 1017zm847 -445l848 0 0 -127 -848 0 0 127zm0 1186l848 0 0 -127 -848 0 0 127z"/>
 </g>
</svg>
