<?xml version="1.0" encoding="UTF-8"?>
<!DOCTYPE svg PUBLIC "-//W3C//DTD SVG 1.1//EN" "http://www.w3.org/Graphics/SVG/1.1/DTD/svg11.dtd">
<!-- Creator: CorelDRAW X8 -->
<svg xmlns="http://www.w3.org/2000/svg" xml:space="preserve" width="100%" height="100%" version="1.1" style="shape-rendering:geometricPrecision; text-rendering:geometricPrecision; image-rendering:optimizeQuality; fill-rule:evenodd; clip-rule:evenodd"
viewBox="0 0 5000 5000"
 xmlns:xlink="http://www.w3.org/1999/xlink">
 <defs>
  <style type="text/css">
   <![CDATA[
    .fil0 {fill:#303030}
   ]]>
  </style>
 </defs>
 <g id="Layer_x0020_1">
  <metadata id="CorelCorpID_0Corel-Layer"/>
  <path class="fil0" d="M778 4700l3444 0 0 -4400 -3444 0 0 4400zm287 -287l2870 0 0 -1148 -2870 0 0 1148zm957 -502l956 0 0 -144 -956 0 0 144zm-957 -2176l2870 0 0 -1148 -2870 0 0 1148zm957 -502l956 0 0 -144 -956 0 0 144zm-957 1841l2870 0 0 -1148 -2870 0 0 1148zm957 -502l956 0 0 -144 -956 0 0 144z"/>
 </g>
</svg>
