<?xml version="1.0" encoding="UTF-8"?>
<!DOCTYPE svg PUBLIC "-//W3C//DTD SVG 1.1//EN" "http://www.w3.org/Graphics/SVG/1.1/DTD/svg11.dtd">
<!-- Creator: CorelDRAW X8 -->
<svg xmlns="http://www.w3.org/2000/svg" xml:space="preserve" width="100%" height="100%" version="1.1" style="shape-rendering:geometricPrecision; text-rendering:geometricPrecision; image-rendering:optimizeQuality; fill-rule:evenodd; clip-rule:evenodd"
viewBox="0 0 5000 5000"
 xmlns:xlink="http://www.w3.org/1999/xlink">
 <defs>
  <style type="text/css">
   <![CDATA[
    .fil0 {fill:#303030}
   ]]>
  </style>
 </defs>
 <g id="Layer_x0020_1">
  <metadata id="CorelCorpID_0Corel-Layer"/>
  <path class="fil0" d="M1415 2420l935 0 0 -140 -935 0 0 140zm0 -1309l935 0 0 -140 -935 0 0 140zm-935 491l2805 0 0 -1122 -2805 0 0 1122zm1796 1309l-1796 0 0 -1122 2805 0 0 375c-448,64 -823,352 -1009,747zm103 1309l-1899 0 0 -1122 1725 0c-36,119 -55,246 -55,377 0,38 2,76 5,114l-740 0 0 140 759 0c35,179 106,345 205,491zm-2179 280l2435 0c229,187 521,300 840,300 732,0 1325,-593 1325,-1325 0,-701 -545,-1276 -1235,-1322l0 -1953 -3365 0 0 4300zm3504 -1519l0 -327c-156,0 -311,0 -467,0l0 324 74 796c106,0 213,0 319,0l74 -793zm-333 979l187 0c51,0 93,42 93,93l0 187c0,51 -42,93 -93,93l-187 0c-51,0 -93,-42 -93,-93l0 -187c0,-51 42,-93 93,-93z"/>
 </g>
</svg>
