<?xml version="1.0" encoding="UTF-8"?>
<!DOCTYPE svg PUBLIC "-//W3C//DTD SVG 1.1//EN" "http://www.w3.org/Graphics/SVG/1.1/DTD/svg11.dtd">
<!-- Creator: CorelDRAW X7 -->
<svg xmlns="http://www.w3.org/2000/svg" xml:space="preserve" width="100%" height="100%" version="1.1" style="shape-rendering:geometricPrecision; text-rendering:geometricPrecision; image-rendering:optimizeQuality; fill-rule:evenodd; clip-rule:evenodd"
viewBox="0 0 500 500"
 xmlns:xlink="http://www.w3.org/1999/xlink">
 <defs>
  <style type="text/css">
   <![CDATA[
    .fil0 {fill:#333333}
   ]]>
  </style>
 </defs>
 <g id="Layer_x0020_1">
  <metadata id="CorelCorpID_0Corel-Layer"/>
  <path class="fil0" d="M381 219c-44,0 -50,44 -50,44l94 0c0,0 0,-44 -44,-44zm-213 44l-83 0 0 76 74 0c1,0 3,0 5,0 12,0 34,-4 34,-37 0,-40 -30,-39 -30,-39zm311 38l-148 0c0,53 51,49 51,49 47,0 45,-30 45,-30l51 0c0,81 -98,76 -98,76 -117,0 -110,-109 -110,-109 0,0 0,-110 110,-110 115,0 99,124 99,124zm-220 4c0,87 -91,85 -91,85 -49,0 -99,0 -148,0l0 -286c49,0 99,0 148,0 46,0 81,25 81,76 0,51 -43,55 -43,55 57,0 53,70 53,70zm60 -184l117 0 0 35 -117 0 0 -35zm-130 64c0,-30 -21,-30 -21,-30l-10 0 -73 0 0 64 78 0c14,0 26,-5 26,-34z"/>
 </g>
</svg>
