<?xml version="1.0" encoding="UTF-8"?>
<!DOCTYPE svg PUBLIC "-//W3C//DTD SVG 1.1//EN" "http://www.w3.org/Graphics/SVG/1.1/DTD/svg11.dtd">
<!-- Creator: CorelDRAW X8 -->
<svg xmlns="http://www.w3.org/2000/svg" xml:space="preserve" width="100%" height="100%" version="1.1" style="shape-rendering:geometricPrecision; text-rendering:geometricPrecision; image-rendering:optimizeQuality; fill-rule:evenodd; clip-rule:evenodd"
viewBox="0 0 5000 5000"
 xmlns:xlink="http://www.w3.org/1999/xlink">
 <defs>
  <style type="text/css">
   <![CDATA[
    .fil0 {fill:#6391B9}
   ]]>
  </style>
 </defs>
 <g id="Layer_x0020_1">
  <metadata id="CorelCorpID_0Corel-Layer"/>
  <path class="fil0" d="M3110 1885c-102,0 -186,84 -186,186l0 2043c0,102 84,186 186,186 102,0 185,-83 185,-186l0 -2043c0,-102 -83,-186 -185,-186zm-1220 0c-102,0 -185,84 -185,186l0 2043c0,102 83,186 185,186 102,0 186,-83 186,-186l0 -2043c0,-102 -84,-186 -186,-186zm2460 -1017c0,-260 -216,-475 -476,-475l-775 0c0,-106 -87,-193 -193,-193l-807 0c-108,0 -196,86 -200,193l-773 0c-261,0 -475,214 -475,475l3699 0zm-338 332c-961,0 -2063,0 -3024,0l0 3209c0,215 176,391 391,391l2242 0c215,0 391,-176 391,-391l0 -3209z"/>
 </g>
</svg>
