<?xml version="1.0" encoding="UTF-8"?>
<!DOCTYPE svg PUBLIC "-//W3C//DTD SVG 1.1//EN" "http://www.w3.org/Graphics/SVG/1.1/DTD/svg11.dtd">
<!-- Creator: CorelDRAW X7 -->
<svg xmlns="http://www.w3.org/2000/svg" xml:space="preserve" width="100%" height="100%" version="1.1" style="shape-rendering:geometricPrecision; text-rendering:geometricPrecision; image-rendering:optimizeQuality; fill-rule:evenodd; clip-rule:evenodd"
viewBox="0 0 5000 5000"
 xmlns:xlink="http://www.w3.org/1999/xlink">
 <defs>
  <style type="text/css">
   <![CDATA[
    .fil0 {fill:#6391B9;fill-rule:nonzero}
   ]]>
  </style>
 </defs>
 <g id="Layer_x0020_1">
  <metadata id="CorelCorpID_0Corel-Layer"/>
  <path class="fil0" d="M1208 535l2379 0c559,0 1015,456 1015,1014l0 828c0,43 -3,85 -8,127 130,111 212,277 212,460l0 277c0,283 -196,523 -460,589 -41,13 -100,19 -92,46l55 359c0,28 -28,22 -55,0l-414 -358c-28,-15 -28,-28 -83,-28l-608 0c-283,0 -522,-196 -589,-458l-3 0 -995 995c-7,0 -92,104 -210,73 -78,-20 -123,-89 -123,-168l-1 -900c-571,0 -1034,-439 -1034,-1014l0 -828c0,-558 456,-1014 1014,-1014zm-50 2109c-53,0 -96,-43 -96,-96 0,-53 43,-96 96,-96l1377 0c53,0 96,43 96,96 0,53 -43,96 -96,96l-1377 0zm0 -551c-53,0 -96,-43 -96,-96 0,-53 43,-96 96,-96l2480 0c52,0 95,43 95,96 0,53 -43,96 -95,96l-2480 0zm0 -551c-53,0 -96,-43 -96,-96 0,-53 43,-96 96,-96l1984 0c52,0 95,43 95,96 0,53 -43,96 -95,96l-1984 0zm2429 -737l-2379 0c-409,0 -745,335 -745,744l0 828c0,409 336,744 745,744l52 0c125,0 238,114 238,239l0 709 947 -948 1142 0c410,0 745,-335 745,-744l0 -828c0,-409 -335,-744 -745,-744z"/>
 </g>
</svg>
