<?xml version="1.0" encoding="UTF-8"?>
<!DOCTYPE svg PUBLIC "-//W3C//DTD SVG 1.1//EN" "http://www.w3.org/Graphics/SVG/1.1/DTD/svg11.dtd">
<!-- Creator: CorelDRAW X8 -->
<svg xmlns="http://www.w3.org/2000/svg" xml:space="preserve" width="100%" height="100%" version="1.1" style="shape-rendering:geometricPrecision; text-rendering:geometricPrecision; image-rendering:optimizeQuality; fill-rule:evenodd; clip-rule:evenodd"
viewBox="0 0 500 500"
 xmlns:xlink="http://www.w3.org/1999/xlink">
 <defs>
  <style type="text/css">
   <![CDATA[
    .fil0 {fill:#404040}
   ]]>
  </style>
 </defs>
 <g id="Layer_x0020_1">
  <metadata id="CorelCorpID_0Corel-Layer"/>
  <path class="fil0" d="M81 199c6,0 11,1 16,2 -6,-9 -10,-21 -10,-33 0,-34 28,-61 62,-61 7,0 15,1 21,4 9,-45 48,-79 95,-79 53,0 96,43 96,96 0,1 0,3 0,4 8,-2 15,-2 23,-2 53,0 96,43 96,96 0,53 -43,96 -96,96l-18 0c-6,14 -15,26 -26,37l-24 -24c17,-18 27,-41 27,-66 0,-51 -42,-93 -93,-93 -51,0 -93,42 -93,93 0,25 10,48 27,66l-24 24c-11,-11 -20,-23 -26,-37l-52 0c-34,1 -62,-27 -62,-61 0,-34 28,-62 61,-62zm147 205c-7,17 -24,29 -44,29l-62 0 0 35 62 0c26,0 50,-12 66,-32 16,20 40,32 66,32l62 0 0 -35 -62 0c-20,0 -37,-12 -44,-29l0 -110 29 0c7,0 14,-7 14,-15 0,-7 -3,-11 -7,-14l-44 -44c-9,-9 -19,-9 -28,0l-44 44c-3,3 -7,7 -7,14 0,8 7,15 14,15l29 0 0 110z"/>
 </g>
</svg>
