<?xml version="1.0" encoding="UTF-8"?>
<!DOCTYPE svg PUBLIC "-//W3C//DTD SVG 1.1//EN" "http://www.w3.org/Graphics/SVG/1.1/DTD/svg11.dtd">
<!-- Creator: CorelDRAW X8 -->
<svg xmlns="http://www.w3.org/2000/svg" xml:space="preserve" width="100%" height="100%" version="1.1" style="shape-rendering:geometricPrecision; text-rendering:geometricPrecision; image-rendering:optimizeQuality; fill-rule:evenodd; clip-rule:evenodd"
viewBox="0 0 500 500"
 xmlns:xlink="http://www.w3.org/1999/xlink">
 <defs>
  <style type="text/css">
   <![CDATA[
    .fil0 {fill:#404040}
   ]]>
  </style>
 </defs>
 <g id="Layer_x0020_1">
  <metadata id="CorelCorpID_0Corel-Layer"/>
  <g id="_1908343751328">
   <path class="fil0" d="M269 471l51 -50c4,-4 8,-9 8,-17 0,-9 -8,-17 -17,-17l-33 0 0 -142c0,-7 -6,-13 -13,-13l-25 0c-7,0 -13,6 -13,13l0 142 -34 0c-8,0 -17,8 -17,17 0,8 5,13 9,17l50 50c12,12 23,12 34,0z"/>
   <path class="fil0" d="M85 185c5,0 10,0 15,2 -6,-10 -10,-21 -10,-33 0,-33 27,-60 61,-60 7,0 14,1 21,4 8,-45 47,-78 93,-78 52,0 94,42 94,95 0,1 0,2 0,4 7,-2 15,-3 22,-3 52,0 95,43 95,95 0,52 -42,94 -94,94l-18 0c-6,14 -15,26 -26,37l-24 -24c18,-17 27,-40 27,-65 0,-50 -41,-91 -91,-91 -50,0 -91,41 -91,91 0,25 9,48 27,65l-24 24c-11,-11 -20,-23 -26,-37l-51 0c-33,1 -61,-26 -61,-60 0,-33 27,-60 61,-60z"/>
  </g>
 </g>
</svg>
