<?xml version="1.0" encoding="UTF-8"?>
<!DOCTYPE svg PUBLIC "-//W3C//DTD SVG 1.1//EN" "http://www.w3.org/Graphics/SVG/1.1/DTD/svg11.dtd">
<!-- Creator: CorelDRAW X7 -->
<svg xmlns="http://www.w3.org/2000/svg" xml:space="preserve" width="100%" height="100%" version="1.1" style="shape-rendering:geometricPrecision; text-rendering:geometricPrecision; image-rendering:optimizeQuality; fill-rule:evenodd; clip-rule:evenodd"
viewBox="0 0 5000 5000"
 xmlns:xlink="http://www.w3.org/1999/xlink">
 <defs>
  <style type="text/css">
   <![CDATA[
    .fil0 {fill:#303030}
   ]]>
  </style>
 </defs>
 <g id="Layer_x0020_1">
  <metadata id="CorelCorpID_0Corel-Layer"/>
  <path class="fil0" d="M403 415l913 0c112,0 203,91 203,203l0 3652c0,112 -91,203 -203,203l-913 0c-112,0 -203,-91 -203,-203l0 -3652c0,-112 91,-203 203,-203zm2274 30l505 -45c56,-4 105,37 110,93l26 303 -707 62 -27 -304c-4,-55 37,-105 93,-109zm655 503l252 2880 -708 62 -252 -2881 708 -61zm256 2931l9 101 -707 62 -9 -101 707 -62zm14 152l30 353c5,56 -36,105 -92,110l-505 44c-56,5 -105,-36 -110,-92l-31 -354 708 -61zm-30 -3541l500 -88c55,-10 107,27 117,82l53 300 -699 123 -53 -300c-10,-55 27,-107 82,-117zm697 444l17 100 -699 123 -18 -100 700 -123zm26 150l502 2848 -699 123 -503 -2848 700 -123zm511 2898l62 349c9,55 -28,108 -83,118l-499 88c-55,10 -108,-27 -118,-82l-62 -350 700 -123zm-2982 -3567l507 0c56,0 101,45 101,101l0 3907c0,56 -45,101 -101,101l-507 0c-56,0 -102,-45 -102,-101l0 -3907c0,-56 46,-101 102,-101zm258 3504c113,0 204,-92 204,-205 0,-113 -91,-205 -204,-205 -113,0 -205,92 -205,205 0,113 92,205 205,205zm-258 -1118l507 0 0 -1928 -507 0 0 1928zm84 -1691l338 0 0 -136 -338 0 0 136zm-1048 2909c168,0 304,-137 304,-305 0,-168 -136,-304 -304,-304 -168,0 -305,136 -305,304 0,168 137,305 305,305zm-305 -1218l609 0 0 -1928 -609 0 0 1928zm102 -1691l405 0 0 -136 -405 0 0 136z"/>
 </g>
</svg>
