<?xml version="1.0" encoding="UTF-8"?>
<!DOCTYPE svg PUBLIC "-//W3C//DTD SVG 1.1//EN" "http://www.w3.org/Graphics/SVG/1.1/DTD/svg11.dtd">
<!-- Creator: CorelDRAW X8 -->
<svg xmlns="http://www.w3.org/2000/svg" xml:space="preserve" width="100%" height="100%" version="1.1" style="shape-rendering:geometricPrecision; text-rendering:geometricPrecision; image-rendering:optimizeQuality; fill-rule:evenodd; clip-rule:evenodd"
viewBox="0 0 500 500"
 xmlns:xlink="http://www.w3.org/1999/xlink">
 <defs>
  <style type="text/css">
   <![CDATA[
    .fil0 {fill:#404040}
   ]]>
  </style>
 </defs>
 <g id="Layer_x0020_1">
  <metadata id="CorelCorpID_0Corel-Layer"/>
  <path class="fil0" d="M179 162c12,-2 21,-13 21,-25l0 -85 102 0c4,0 8,3 8,8l0 41 31 0 0 -57c0,-13 -11,-24 -24,-24l-133 0 -126 126 0 212c0,13 11,23 24,23l63 0 0 -32 -48 0c-4,0 -7,-3 -7,-7l0 -180 89 0zm101 98c11,-2 20,-12 20,-24l0 -85 103 0c4,0 7,3 7,7l0 282c0,5 -3,8 -7,8l-205 0c-4,0 -8,-3 -8,-8l0 -180 90 0zm90 142l-139 0 0 -20 139 0 0 20zm0 -94l-139 0 0 -20 139 0 0 20zm0 47l-139 0 0 -20 139 0 0 20zm0 -95l-52 0 0 -19 52 0 0 19zm-211 -15l0 211c0,13 11,24 24,24l235 0c13,0 24,-11 24,-24l0 -314c0,-13 -11,-23 -24,-23l-133 0 -126 126z"/>
 </g>
</svg>
