<?xml version="1.0" encoding="UTF-8"?>
<!DOCTYPE svg PUBLIC "-//W3C//DTD SVG 1.1//EN" "http://www.w3.org/Graphics/SVG/1.1/DTD/svg11.dtd">
<!-- Creator: CorelDRAW X8 -->
<svg xmlns="http://www.w3.org/2000/svg" xml:space="preserve" width="100%" height="100%" version="1.1" style="shape-rendering:geometricPrecision; text-rendering:geometricPrecision; image-rendering:optimizeQuality; fill-rule:evenodd; clip-rule:evenodd"
viewBox="0 0 500 500"
 xmlns:xlink="http://www.w3.org/1999/xlink">
 <defs>
  <style type="text/css">
   <![CDATA[
    .fil0 {fill:#404040}
    .fil1 {fill:#F2F2F2}
   ]]>
  </style>
 </defs>
 <g id="Layer_x0020_1">
  <metadata id="CorelCorpID_0Corel-Layer"/>
  <polygon class="fil0" points="45,15 123,15 123,454 45,454 "/>
  <path class="fil0" d="M234 454l0 31 -60 0 0 -31 -29 0 0 -439 266 0c24,0 44,20 44,44l0 351c0,24 -20,44 -44,44l-177 0z"/>
  <path class="fil1" d="M282 371l0 -39 36 0 0 39 -36 0zm35 -62l-36 0c0,-5 0,-9 0,-10 0,-11 2,-21 5,-28 4,-8 12,-16 23,-26 12,-9 19,-15 21,-18 4,-4 5,-10 5,-15 0,-8 -3,-14 -9,-20 -6,-5 -14,-8 -25,-8 -10,0 -18,3 -25,9 -7,6 -11,14 -14,26l-36 -5c1,-16 8,-31 21,-42 14,-12 31,-18 53,-18 22,0 40,6 54,18 13,12 20,25 20,41 0,9 -3,17 -8,25 -5,8 -15,18 -31,31 -8,7 -14,13 -16,17 -2,4 -3,12 -2,23z"/>
 </g>
</svg>
