<?xml version="1.0" encoding="UTF-8"?>
<!DOCTYPE svg PUBLIC "-//W3C//DTD SVG 1.1//EN" "http://www.w3.org/Graphics/SVG/1.1/DTD/svg11.dtd">
<!-- Creator: CorelDRAW X8 -->
<svg xmlns="http://www.w3.org/2000/svg" xml:space="preserve" width="100%" height="100%" version="1.1" style="shape-rendering:geometricPrecision; text-rendering:geometricPrecision; image-rendering:optimizeQuality; fill-rule:evenodd; clip-rule:evenodd"
viewBox="0 0 5000 5000"
 xmlns:xlink="http://www.w3.org/1999/xlink">
 <defs>
  <style type="text/css">
   <![CDATA[
    .fil0 {fill:#303030}
   ]]>
  </style>
 </defs>
 <g id="Layer_x0020_1">
  <metadata id="CorelCorpID_0Corel-Layer"/>
  <path class="fil0" d="M2137 1642c-155,-154 -404,-154 -558,0 -155,154 -155,404 0,558l-252 251c-146,-146 -219,-338 -219,-530 0,-192 73,-384 219,-530 147,-146 339,-220 531,-220 191,0 383,74 530,220l-251 251zm1071 -480l1054 1054 -2021 2021 0 0 -638 213c-47,-142 -127,-275 -241,-388 -113,-113 -246,-193 -388,-241l213 -638 0 0 0 0 2021 -2021zm571 835l88 88c24,24 24,63 0,87l-1670 1670c-24,24 -63,24 -88,0l-87 -88c-25,-24 -25,-64 0,-88l1669 -1669c24,-24 64,-24 88,0zm-439 -440l87 88c25,24 25,64 0,88l-1669 1670c-24,24 -64,24 -88,0l-88 -88c-24,-24 -24,-64 0,-88l1670 -1670c24,-24 63,-24 88,0zm-1914 2952l-666 222c-53,18 -84,-14 -67,-67l222 -666c115,39 224,104 316,195 92,92 157,201 195,316zm3320 -3039l-791 -791c-73,-73 -191,-73 -264,0l-308 307 1055 1055 308 -308c72,-72 72,-191 0,-263zm-3585 1148c-192,-193 -288,-445 -288,-697 0,-252 96,-504 288,-696 192,-193 444,-289 697,-289 252,0 504,96 696,289l476 -476 -124 -123c-20,-20 -49,-16 -72,0l-324 227c-113,-69 -234,-118 -359,-148l-68 -390c-4,-28 -23,-51 -51,-51l-349 0c-28,0 -46,23 -51,51l-69 391c-124,30 -244,80 -356,148l-326 -228c-23,-16 -52,-20 -72,0l-247 247c-20,20 -16,49 0,72l229 326c-68,112 -116,232 -146,356l-394 68c-27,5 -51,23 -51,51l0 350c0,28 24,46 51,51l395 69c30,123 79,242 146,354l-230 327c-16,23 -20,53 0,73l124 123 475 -475z"/>
 </g>
</svg>
