<?xml version="1.0" encoding="UTF-8"?>
<!DOCTYPE svg PUBLIC "-//W3C//DTD SVG 1.1//EN" "http://www.w3.org/Graphics/SVG/1.1/DTD/svg11.dtd">
<!-- Creator: CorelDRAW X8 -->
<svg xmlns="http://www.w3.org/2000/svg" xml:space="preserve" width="100%" height="100%" version="1.1" style="shape-rendering:geometricPrecision; text-rendering:geometricPrecision; image-rendering:optimizeQuality; fill-rule:evenodd; clip-rule:evenodd"
viewBox="0 0 500 500"
 xmlns:xlink="http://www.w3.org/1999/xlink">
 <defs>
  <style type="text/css">
   <![CDATA[
    .fil0 {fill:#404040}
   ]]>
  </style>
 </defs>
 <g id="Layer_x0020_1">
  <metadata id="CorelCorpID_0Corel-Layer"/>
  <path class="fil0" d="M52 420l397 0c5,0 9,-5 10,-10l21 -145c1,-5 -5,-10 -11,-10l-9 0 0 -135c0,-5 -5,-10 -10,-10l-209 0c-21,0 -21,-30 -42,-30l-146 0c-6,0 -11,5 -11,10l0 196 -11 0c-6,0 -12,4 -11,10l21 114c1,5 5,10 11,10zm382 -165l-132 0c-21,0 -21,31 -42,31l-190 0 0 -170c0,-2 2,-5 5,-5l108 0c19,0 19,28 39,28l207 0c3,0 5,2 5,5l0 111z"/>
 </g>
</svg>
