<?xml version="1.0" encoding="UTF-8"?>
<!DOCTYPE svg PUBLIC "-//W3C//DTD SVG 1.1//EN" "http://www.w3.org/Graphics/SVG/1.1/DTD/svg11.dtd">
<!-- Creator: CorelDRAW X8 -->
<svg xmlns="http://www.w3.org/2000/svg" xml:space="preserve" width="100%" height="100%" version="1.1" style="shape-rendering:geometricPrecision; text-rendering:geometricPrecision; image-rendering:optimizeQuality; fill-rule:evenodd; clip-rule:evenodd"
viewBox="0 0 500 500"
 xmlns:xlink="http://www.w3.org/1999/xlink">
 <defs>
  <style type="text/css">
   <![CDATA[
    .fil0 {fill:#404040}
   ]]>
  </style>
 </defs>
 <g id="Layer_x0020_1">
  <metadata id="CorelCorpID_0Corel-Layer"/>
  <path class="fil0" d="M43 434l414 0c6,0 11,-5 11,-11l22 -272c0,-6 -5,-11 -11,-11l-11 0 0 -32c0,-6 -5,-10 -11,-10l-218 0c-22,0 -22,-32 -44,-32l-152 0c-6,0 -11,5 -11,11l0 95 -11 0c-6,0 -12,5 -11,10l22 241c0,6 5,11 11,11zm398 -294l-136 0c-22,0 -22,32 -44,32l-200 0 0 -68c0,-3 2,-5 5,-5l113 0c20,0 20,29 40,29l217 0c3,0 5,2 5,5l0 7z"/>
 </g>
</svg>
