<?xml version="1.0" encoding="UTF-8"?>
<!DOCTYPE svg PUBLIC "-//W3C//DTD SVG 1.1//EN" "http://www.w3.org/Graphics/SVG/1.1/DTD/svg11.dtd">
<!-- Creator: CorelDRAW X7 -->
<svg xmlns="http://www.w3.org/2000/svg" xml:space="preserve" width="100%" height="100%" version="1.1" style="shape-rendering:geometricPrecision; text-rendering:geometricPrecision; image-rendering:optimizeQuality; fill-rule:evenodd; clip-rule:evenodd"
viewBox="0 0 5000 5000"
 xmlns:xlink="http://www.w3.org/1999/xlink">
 <defs>
  <style type="text/css">
   <![CDATA[
    .fil0 {fill:#303030}
   ]]>
  </style>
 </defs>
 <g id="Layer_x0020_1">
  <metadata id="CorelCorpID_0Corel-Layer"/>
  <path class="fil0" d="M3909 1933l124 -461 66 18c24,6 49,-8 55,-32l124 -461c6,-24 -8,-49 -32,-55l-66 -18 123 -461 -64 -111 -567 -152 -111 64 -145 541 -2164 -580c-24,-6 -49,8 -55,32l-81 301c-7,24 8,49 32,56l2164 579 -145 542 64 110 568 152 110 -64zm-1689 568l-1794 0c-168,0 -112,224 0,280 617,337 1234,449 2131,561 449,56 561,897 0,897l-561 0 0 505c0,31 25,56 56,56 860,0 1720,0 2580,0 31,0 56,-25 56,-56l0 -505 -673 0c-337,-19 -416,-700 0,-897l726 -260c59,-20 59,-76 59,-116l0 -521c0,-62 -50,-112 -112,-112l-2411 0c-31,0 -57,25 -57,56l0 112z"/>
 </g>
</svg>
