<?xml version="1.0" encoding="UTF-8"?>
<!DOCTYPE svg PUBLIC "-//W3C//DTD SVG 1.1//EN" "http://www.w3.org/Graphics/SVG/1.1/DTD/svg11.dtd">
<!-- Creator: CorelDRAW X8 -->
<svg xmlns="http://www.w3.org/2000/svg" xml:space="preserve" width="100%" height="100%" version="1.1" style="shape-rendering:geometricPrecision; text-rendering:geometricPrecision; image-rendering:optimizeQuality; fill-rule:evenodd; clip-rule:evenodd"
viewBox="0 0 500 500"
 xmlns:xlink="http://www.w3.org/1999/xlink">
 <defs>
  <style type="text/css">
   <![CDATA[
    .fil0 {fill:#404040}
   ]]>
  </style>
 </defs>
 <g id="Layer_x0020_1">
  <metadata id="CorelCorpID_0Corel-Layer"/>
  <path class="fil0" d="M102 341l-32 44c-2,4 -3,8 0,10l35 35c2,3 6,2 10,0l45 -32c15,9 31,16 49,21l10 54c0,4 3,7 7,7l48 0c4,0 7,-3 7,-7l10 -55c17,-4 34,-11 49,-20l45 32c4,2 8,3 10,0l35 -35c3,-2 2,-6 0,-10l-32 -45c9,-15 16,-32 20,-49l55 -10c4,0 7,-3 7,-7l0 -48c0,-4 -3,-7 -7,-7l-55 -10c-4,-17 -11,-34 -20,-49l32 -45c2,-4 3,-8 0,-10l-35 -35c-2,-3 -6,-2 -10,0l-45 32c-15,-9 -32,-16 -49,-20l-10 -55c0,-4 -3,-7 -7,-7l-48 0c-4,0 -7,3 -7,7l-10 54c-18,5 -34,12 -49,21l-45 -32c-4,-2 -8,-3 -10,0l-35 35c-3,2 -2,6 0,10l32 44c-9,16 -17,32 -21,50l-54 10c-4,0 -7,3 -7,7l0 48c0,4 3,7 7,7l54 10c4,18 12,34 21,50zm284 -91c0,-75 -61,-136 -136,-136 -75,0 -136,61 -136,136 0,75 61,136 136,136 75,0 136,-61 136,-136zm-36 0c0,-55 -45,-100 -100,-100 -55,0 -100,45 -100,100 0,55 45,100 100,100 55,0 100,-45 100,-100zm-45 0c0,-30 -25,-55 -55,-55 -30,0 -55,25 -55,55 0,30 25,55 55,55 30,0 55,-25 55,-55z"/>
 </g>
</svg>
