<?xml version="1.0" encoding="UTF-8"?>
<!DOCTYPE svg PUBLIC "-//W3C//DTD SVG 1.1//EN" "http://www.w3.org/Graphics/SVG/1.1/DTD/svg11.dtd">
<!-- Creator: CorelDRAW X8 -->
<svg xmlns="http://www.w3.org/2000/svg" xml:space="preserve" width="100%" height="100%" version="1.1" style="shape-rendering:geometricPrecision; text-rendering:geometricPrecision; image-rendering:optimizeQuality; fill-rule:evenodd; clip-rule:evenodd"
viewBox="0 0 500 500"
 xmlns:xlink="http://www.w3.org/1999/xlink">
 <defs>
  <style type="text/css">
   <![CDATA[
    .fil0 {fill:#404040}
   ]]>
  </style>
 </defs>
 <g id="Layer_x0020_1">
  <metadata id="CorelCorpID_0Corel-Layer"/>
  <path class="fil0" d="M425 345c17,0 30,-14 30,-30 0,-5 -1,-9 -2,-13 -6,-14 -13,-35 -20,-48 -2,-3 -5,-4 -8,-4 -3,0 -6,1 -8,4 -6,13 -14,34 -20,48 -1,4 -2,8 -2,13 0,16 13,30 30,30zm-43 -135l-183 0 -27 -46c-2,-3 -1,-7 3,-9l131 -76 76 131zm7 174l73 0 0 73 -73 0 0 -73zm-369 -18l109 0 0 49 242 0 0 -49 109 0 0 109 -109 0 0 -49 -242 0 0 49 -109 0 0 -109zm297 -341l117 203 -17 10 -7 -12 -158 91c-10,6 -22,2 -28,-8l-83 -143c-5,-10 -2,-22 8,-28l158 -91 -7 -12 17 -10z"/>
 </g>
</svg>
