<?xml version="1.0" encoding="UTF-8"?>
<!DOCTYPE svg PUBLIC "-//W3C//DTD SVG 1.1//EN" "http://www.w3.org/Graphics/SVG/1.1/DTD/svg11.dtd">
<!-- Creator: CorelDRAW X8 -->
<svg xmlns="http://www.w3.org/2000/svg" xml:space="preserve" width="100%" height="100%" version="1.1" style="shape-rendering:geometricPrecision; text-rendering:geometricPrecision; image-rendering:optimizeQuality; fill-rule:evenodd; clip-rule:evenodd"
viewBox="0 0 500 500"
 xmlns:xlink="http://www.w3.org/1999/xlink">
 <defs>
  <style type="text/css">
   <![CDATA[
    .fil0 {fill:#6FAE00}
   ]]>
  </style>
 </defs>
 <g id="Layer_x0020_1">
  <metadata id="CorelCorpID_0Corel-Layer"/>
  <path class="fil0" d="M54 63l430 0 0 374 -430 0 0 -67c-23,-11 -38,-34 -38,-61 0,-27 15,-50 38,-61l0 -185zm243 226l-67 67c-4,3 -7,7 -14,7 -6,0 -13,-7 -13,-14l0 -33c0,-4 -3,-7 -7,-7l-114 0 0 105 374 0 0 -271 -374 0 0 99 0 0 114 0c4,0 7,-3 7,-7l0 -33c0,-7 7,-13 13,-13 7,0 10,3 14,6l67 67c9,9 9,18 0,27zm99 -165l60 0 0 -61 -60 0 0 61zm-69 0l38 0 0 -38 -38 0 0 38zm8 -8l23 0 0 -15 -23 0 0 15zm-69 8l38 0 0 -8 -38 0 0 8zm142 -20l7 7 11 -10 11 10 7 -7 -11 -11 11 -11 -7 -7 -11 11 -11 -11 -7 7 11 11 -11 11z"/>
 </g>
</svg>
