<?xml version="1.0" encoding="UTF-8"?>
<!DOCTYPE svg PUBLIC "-//W3C//DTD SVG 1.1//EN" "http://www.w3.org/Graphics/SVG/1.1/DTD/svg11.dtd">
<!-- Creator: CorelDRAW X7 -->
<svg xmlns="http://www.w3.org/2000/svg" xml:space="preserve" width="100%" height="100%" version="1.1" style="shape-rendering:geometricPrecision; text-rendering:geometricPrecision; image-rendering:optimizeQuality; fill-rule:evenodd; clip-rule:evenodd"
viewBox="0 0 5000 5000"
 xmlns:xlink="http://www.w3.org/1999/xlink">
 <defs>
  <style type="text/css">
   <![CDATA[
    .fil0 {fill:#303030}
   ]]>
  </style>
 </defs>
 <g id="Layer_x0020_1">
  <metadata id="CorelCorpID_0Corel-Layer"/>
  <path class="fil0" d="M2940 4328l0 450c0,29 -30,29 -60,0l-350 -350c-30,-30 -30,-30 -60,0l-350 350c-30,29 -60,29 -60,0l0 -450 -1260 0 0 -4128 3400 0 0 4128 -1260 0zm-1840 -3828l2800 0 0 3528 -960 0 0 -322 316 49 -110 -360 344 -153 -287 -243 207 -314 -373 -50 4 -376 -341 160 -200 -319 -200 319 -341 -160 4 376 -373 50 207 314 -287 243 344 153 -110 360 316 -49 0 322 -960 0 0 -3528zm1850 2558c0,-248 -201,-450 -450,-450 -249,0 -450,202 -450,450 0,249 201,450 450,450 249,0 450,-201 450,-450zm-1374 -2228l1848 0 0 200 -1848 0 0 -200zm299 400l1250 0 0 200 -1250 0 0 -200z"/>
 </g>
</svg>
