<?xml version="1.0" encoding="UTF-8"?>
<!DOCTYPE svg PUBLIC "-//W3C//DTD SVG 1.1//EN" "http://www.w3.org/Graphics/SVG/1.1/DTD/svg11.dtd">
<!-- Creator: CorelDRAW X8 -->
<svg xmlns="http://www.w3.org/2000/svg" xml:space="preserve" width="100%" height="100%" version="1.1" style="shape-rendering:geometricPrecision; text-rendering:geometricPrecision; image-rendering:optimizeQuality; fill-rule:evenodd; clip-rule:evenodd"
viewBox="0 0 5000 5000"
 xmlns:xlink="http://www.w3.org/1999/xlink">
 <defs>
  <style type="text/css">
   <![CDATA[
    .fil0 {fill:#303030}
   ]]>
  </style>
 </defs>
 <g id="Layer_x0020_1">
  <metadata id="CorelCorpID_0Corel-Layer"/>
  <path class="fil0" d="M2272 1430c170,0 300,-140 300,-300 0,-160 -130,-300 -300,-300 -160,0 -290,140 -290,300 0,160 130,300 290,300zm1190 1190c0,160 140,300 300,300 170,0 300,-140 300,-300 0,-170 -130,-300 -300,-300 -160,0 -300,130 -300,300zm-350 840c-110,120 -110,300 0,420 120,120 310,120 430,0 110,-120 110,-300 0,-420 -120,-120 -310,-120 -430,0zm-840 350c-160,0 -290,130 -290,300 0,160 130,290 290,290 170,0 300,-130 300,-290 0,-170 -130,-300 -300,-300zm0 -3370c-870,0 -1629,510 -1979,1260 -40,90 -30,200 20,280 60,90 150,140 250,140l339 0c270,0 490,230 490,500 0,270 -220,490 -490,490l-339 0c-100,0 -190,50 -250,140 -50,90 -60,190 -20,290 350,740 1109,1260 1979,1260 1210,0 2190,-980 2190,-2180 0,-370 -90,-710 -250,-1010l-1220 1220 -80 40c-280,100 -560,190 -850,290 -72,29 -175,5 -230,-50 -70,-71 -79,-143 -60,-240 10,0 270,-780 290,-850l50 -80 1230 -1230c-320,-170 -680,-270 -1070,-270zm1980 -210l450 460c40,40 40,110 0,150l-170 170 -610 -600 180 -180c40,-40 110,-40 150,0zm-2160 2320l-130 380c-10,30 10,50 40,40l380 -130c-43,-129 -157,-252 -290,-290zm2110 -1510l-50 -50c-20,-20 -40,-20 -50,0l-1370 1370c-20,10 -20,40 0,50l50 50c10,10 30,10 50,0l1370 -1370c10,-10 10,-40 0,-50zm-250 -250l-50 -50c-20,-20 -40,-20 -60,0l-1370 1370c-10,10 -10,30 0,50l50 50c20,10 40,10 50,0l1380 -1370c10,-20 10,-40 0,-50zm480 320l-610 -600 -1570 1570 -130 370c166,55 317,186 360,360l370 -120 1580 -1580z"/>
 </g>
</svg>
