<?xml version="1.0" encoding="UTF-8"?>
<!DOCTYPE svg PUBLIC "-//W3C//DTD SVG 1.1//EN" "http://www.w3.org/Graphics/SVG/1.1/DTD/svg11.dtd">
<!-- Creator: CorelDRAW X7 -->
<svg xmlns="http://www.w3.org/2000/svg" xml:space="preserve" width="100%" height="100%" version="1.1" style="shape-rendering:geometricPrecision; text-rendering:geometricPrecision; image-rendering:optimizeQuality; fill-rule:evenodd; clip-rule:evenodd"
viewBox="0 0 5000 5000"
 xmlns:xlink="http://www.w3.org/1999/xlink">
 <defs>
  <style type="text/css">
   <![CDATA[
    .fil0 {fill:#6391B9}
   ]]>
  </style>
 </defs>
 <g id="Layer_x0020_1">
  <metadata id="CorelCorpID_0Corel-Layer"/>
  <path class="fil0" d="M3856 662c133,-133 349,-133 483,0 133,134 133,350 0,483 -134,133 -350,133 -483,0 -133,-133 -133,-349 0,-483zm-409 2941c0,-49 -12,-88 -37,-116 -24,-28 -67,-55 -128,-80 -62,-25 -119,-50 -171,-76 -51,-25 -96,-55 -134,-89 -37,-34 -66,-73 -86,-117 -20,-45 -30,-99 -30,-162 0,-106 35,-193 107,-262 71,-68 167,-108 285,-119l0 -198 150 0 0 202c114,16 204,63 270,141 65,77 98,175 98,294l-318 0c0,-65 -12,-115 -37,-150 -25,-35 -61,-53 -107,-53 -41,0 -73,14 -97,40 -22,25 -34,61 -34,107 0,47 13,84 40,111 26,27 68,53 126,78 59,25 114,50 165,77 52,27 96,57 134,90 38,34 67,74 88,119 22,45 32,99 32,162 0,107 -34,194 -101,262 -68,67 -161,107 -278,118l0 189 -149 0 0 -190c-137,-14 -242,-61 -315,-140 -72,-80 -109,-184 -109,-314l316 0c0,72 16,126 48,163 32,37 77,55 135,55 42,0 76,-12 100,-37 25,-26 37,-61 37,-105zm-1307 310c-63,-117 -108,-243 -133,-371l-357 356 -78 -78 416 -416c-10,-108 -6,-218 12,-326l-585 585 -78 -78 715 -715c63,-184 167,-357 313,-504 419,-418 1052,-493 1547,-225l229 -228c48,-49 48,-128 0,-176l-877 -877c-48,-49 -127,-49 -176,0l-2281 2281c-48,48 -48,127 0,175l878 877c48,49 127,49 175,0l280 -280zm2074 -1547c510,511 510,1338 0,1849 -511,510 -1338,510 -1848,0l-550 549c-48,48 -127,48 -175,0l-1404 -1404c-48,-48 -48,-127 0,-175l2947 -2947c24,-24 53,-36 87,-36l1402 -2c69,0 124,56 124,124l2 1405c0,35 -12,64 -36,88l-549 549zm-1627 1627c-388,-388 -388,-1017 0,-1405 388,-388 1017,-388 1405,0 388,388 388,1017 0,1405 -388,388 -1017,388 -1405,0zm-1485 -643l1585 -1586 78 78 -1585 1586 -78 -78z"/>
 </g>
</svg>
