<?xml version="1.0" encoding="UTF-8"?>
<!DOCTYPE svg PUBLIC "-//W3C//DTD SVG 1.1//EN" "http://www.w3.org/Graphics/SVG/1.1/DTD/svg11.dtd">
<!-- Creator: CorelDRAW X8 -->
<svg xmlns="http://www.w3.org/2000/svg" xml:space="preserve" width="100%" height="100%" version="1.1" style="shape-rendering:geometricPrecision; text-rendering:geometricPrecision; image-rendering:optimizeQuality; fill-rule:evenodd; clip-rule:evenodd"
viewBox="0 0 500 500"
 xmlns:xlink="http://www.w3.org/1999/xlink">
 <defs>
  <style type="text/css">
   <![CDATA[
    .fil0 {fill:#404040}
   ]]>
  </style>
 </defs>
 <g id="Layer_x0020_1">
  <metadata id="CorelCorpID_0Corel-Layer"/>
  <path class="fil0" d="M290 421l29 59 -138 0 29 -59 80 0zm-40 -401c-30,0 -99,89 -99,148l0 237 91 0 0 -138 16 0 0 138 91 0 0 -237c0,-59 -69,-148 -99,-148zm0 89c25,0 44,20 44,44 0,25 -19,45 -44,45 -25,0 -44,-20 -44,-45 0,-24 19,-44 44,-44zm-113 306l0 -158c-21,0 -68,18 -68,83l0 75 68 0zm226 0l0 -158c21,0 68,18 68,83l0 75 -68 0z"/>
 </g>
</svg>
