<?xml version="1.0" encoding="UTF-8"?>
<!DOCTYPE svg PUBLIC "-//W3C//DTD SVG 1.1//EN" "http://www.w3.org/Graphics/SVG/1.1/DTD/svg11.dtd">
<!-- Creator: CorelDRAW X8 -->
<svg xmlns="http://www.w3.org/2000/svg" xml:space="preserve" width="100%" height="100%" version="1.1" style="shape-rendering:geometricPrecision; text-rendering:geometricPrecision; image-rendering:optimizeQuality; fill-rule:evenodd; clip-rule:evenodd"
viewBox="0 0 500 500"
 xmlns:xlink="http://www.w3.org/1999/xlink">
 <defs>
  <style type="text/css">
   <![CDATA[
    .fil2 {fill:#17A2FF}
    .fil4 {fill:#505050}
    .fil5 {fill:#686868}
    .fil6 {fill:#77BB00}
    .fil1 {fill:#8A8A8A}
    .fil0 {fill:#B1B1B1}
    .fil7 {fill:#FF3300}
    .fil3 {fill:#FFB217}
   ]]>
  </style>
 </defs>
 <g id="Layer_x0020_1">
  <metadata id="CorelCorpID_0Corel-Layer"/>
  <path class="fil0" d="M250 250l-163 -163c44,-43 102,-67 163,-67l0 230z"/>
  <path class="fil1" d="M250 250l-230 0c0,-61 24,-120 67,-163l163 163z"/>
  <path class="fil2" d="M250 250l163 -163c-43,-43 -102,-67 -163,-67l0 230z"/>
  <path class="fil3" d="M250 250l230 0c0,61 -24,119 -67,163l-163 -163z"/>
  <path class="fil4" d="M250 250l-163 163c44,43 102,67 163,67l0 -230z"/>
  <path class="fil5" d="M250 250l-230 0c0,61 24,119 67,163l163 -163z"/>
  <path class="fil6" d="M250 250l163 163c-43,43 -102,67 -163,67l0 -230z"/>
  <path class="fil7" d="M250 250l230 0c0,-61 -24,-120 -67,-163l-163 163z"/>
 </g>
</svg>
