<?xml version="1.0" encoding="UTF-8"?>
<!DOCTYPE svg PUBLIC "-//W3C//DTD SVG 1.1//EN" "http://www.w3.org/Graphics/SVG/1.1/DTD/svg11.dtd">
<!-- Creator: CorelDRAW X8 -->
<svg xmlns="http://www.w3.org/2000/svg" xml:space="preserve" width="100%" height="100%" version="1.1" style="shape-rendering:geometricPrecision; text-rendering:geometricPrecision; image-rendering:optimizeQuality; fill-rule:evenodd; clip-rule:evenodd"
viewBox="0 0 5000 5000"
 xmlns:xlink="http://www.w3.org/1999/xlink">
 <defs>
  <style type="text/css">
   <![CDATA[
    .fil0 {fill:#6391B9}
   ]]>
  </style>
 </defs>
 <g id="Layer_x0020_1">
  <metadata id="CorelCorpID_0Corel-Layer"/>
  <path class="fil0" d="M3159 707c589,588 665,1495 228,2166l1254 1031c221,182 203,534 0,737 -203,203 -556,221 -738,0l-1034 -1254c-671,431 -1574,354 -2161,-233 -677,-675 -677,-1771 0,-2447 676,-676 1774,-676 2451,0zm-448 446c429,429 429,1126 0,1555 -430,430 -1126,430 -1556,0 -429,-429 -429,-1126 0,-1555 430,-430 1126,-430 1556,0z"/>
 </g>
</svg>
