<?xml version="1.0" encoding="UTF-8"?>
<!DOCTYPE svg PUBLIC "-//W3C//DTD SVG 1.1//EN" "http://www.w3.org/Graphics/SVG/1.1/DTD/svg11.dtd">
<!-- Creator: CorelDRAW X7 -->
<svg xmlns="http://www.w3.org/2000/svg" xml:space="preserve" width="100%" height="100%" version="1.1" style="shape-rendering:geometricPrecision; text-rendering:geometricPrecision; image-rendering:optimizeQuality; fill-rule:evenodd; clip-rule:evenodd"
viewBox="0 0 5000 5000"
 xmlns:xlink="http://www.w3.org/1999/xlink">
 <defs>
  <style type="text/css">
   <![CDATA[
    .fil2 {fill:#303030}
    .fil0 {fill:#719BBF}
    .fil1 {fill:#F1F5F9}
   ]]>
  </style>
 </defs>
 <g id="Layer_x0020_1">
  <metadata id="CorelCorpID_0Corel-Layer"/>
  <g id="_1815463336">
   <path class="fil0" d="M8977 -12549c22,23 35,53 35,87l2 1405c0,34 -12,64 -37,88l-2946 2946c-48,49 -127,49 -175,0l-703 -702 -701 -701c-48,-49 -48,-127 0,-176l2946 -2946c25,-24 54,-37 88,-37l1402 -1c35,0 66,14 89,37zm-839 839c45,46 108,74 177,74 138,0 250,-112 250,-250 0,-69 -28,-132 -74,-177 -45,-45 -107,-73 -176,-73 -138,0 -250,112 -250,250 0,69 28,131 73,176z"/>
   <path class="fil1" d="M5022 -9646l2132 -2132c48,-48 127,-48 176,0l877 878c48,48 48,127 0,175l-2132 2132c-48,48 -127,48 -176,0l-439 -439 -438 -438c-48,-48 -48,-127 0,-176z"/>
   <path class="fil2" d="M8559 -12131l0 1c137,137 137,358 0,495 -136,136 -358,136 -494,0l-1 -1c-136,-136 -136,-358 1,-494 136,-137 357,-137 494,-1zm-421 421c45,46 108,74 177,74 138,0 250,-112 250,-250 0,-69 -28,-132 -74,-177 -45,-45 -107,-73 -176,-73 -138,0 -250,112 -250,250 0,69 28,131 73,176z"/>
   <path class="fil2" d="M5884 -8970l1501 -1501 88 88 -1501 1501 -88 -88zm-280 -280l1122 -1122 88 88 -1122 1122 -88 -88zm-238 -238l1779 -1780 88 88 -1780 1780 -87 -88z"/>
  </g>
  <g id="_1815476104">
   <path class="fil0" d="M4800 2499c0,27 -11,53 -31,73l-844 847c-21,20 -46,31 -75,31l-3544 0c-59,0 -106,-48 -106,-106l0 -845 0 -843c0,-58 47,-106 106,-106l3544 0c29,0 54,10 75,31l844 842c21,21 31,49 31,76zm-1009 0c0,55 20,109 62,151 83,83 218,83 301,0 41,-42 62,-96 62,-151 0,-54 -21,-108 -62,-150 -83,-83 -218,-83 -301,0 -42,42 -62,96 -62,150z"/>
   <path class="fil1" d="M675 1867l2565 0c58,0 105,47 105,105l0 1056c0,58 -47,105 -105,105l-2565 0c-58,0 -106,-47 -106,-105l0 -529 0 -527c0,-58 48,-105 106,-105z"/>
   <path class="fil2" d="M4297 2499l0 1c0,164 -133,298 -298,298 -164,0 -297,-134 -297,-298l0 -1c0,-164 133,-297 297,-297 165,0 298,133 298,297zm-506 0c0,55 20,109 62,151 83,83 218,83 301,0 41,-42 62,-96 62,-151 0,-54 -21,-108 -62,-150 -83,-83 -218,-83 -301,0 -42,42 -62,96 -62,150z"/>
   <path class="fil2" d="M787 2792l1806 0 0 105 -1806 0 0 -105zm0 -337l1350 0 0 105 -1350 0 0 -105zm0 -287l2141 0 0 106 -2141 0 0 -106z"/>
  </g>
 </g>
</svg>
