<?xml version="1.0" encoding="UTF-8"?>
<!DOCTYPE svg PUBLIC "-//W3C//DTD SVG 1.1//EN" "http://www.w3.org/Graphics/SVG/1.1/DTD/svg11.dtd">
<!-- Creator: CorelDRAW X8 -->
<svg xmlns="http://www.w3.org/2000/svg" xml:space="preserve" width="100%" height="100%" version="1.1" style="shape-rendering:geometricPrecision; text-rendering:geometricPrecision; image-rendering:optimizeQuality; fill-rule:evenodd; clip-rule:evenodd"
viewBox="0 0 500 500"
 xmlns:xlink="http://www.w3.org/1999/xlink">
 <defs>
  <style type="text/css">
   <![CDATA[
    .fil0 {fill:#404040}
   ]]>
  </style>
 </defs>
 <g id="Layer_x0020_1">
  <metadata id="CorelCorpID_0Corel-Layer"/>
  <path class="fil0" d="M112 112c49,-49 128,-49 177,0 48,49 48,128 0,177 -49,48 -128,48 -177,0 -49,-49 -49,-128 0,-177zm-39 -39c70,-71 184,-71 255,0 59,59 68,148 28,217l31 30c34,22 90,50 93,98 2,36 -26,64 -62,62 -47,-3 -77,-59 -99,-93l-29 -30c-69,39 -158,29 -217,-29 -71,-71 -71,-185 0,-255z"/>
 </g>
</svg>
