<?xml version="1.0" encoding="UTF-8"?>
<!DOCTYPE svg PUBLIC "-//W3C//DTD SVG 1.1//EN" "http://www.w3.org/Graphics/SVG/1.1/DTD/svg11.dtd">
<!-- Creator: CorelDRAW X8 -->
<svg xmlns="http://www.w3.org/2000/svg" xml:space="preserve" width="100%" height="100%" version="1.1" style="shape-rendering:geometricPrecision; text-rendering:geometricPrecision; image-rendering:optimizeQuality; fill-rule:evenodd; clip-rule:evenodd"
viewBox="0 0 500 500"
 xmlns:xlink="http://www.w3.org/1999/xlink">
 <defs>
  <style type="text/css">
   <![CDATA[
    .fil0 {fill:#404040}
   ]]>
  </style>
 </defs>
 <g id="Layer_x0020_1">
  <metadata id="CorelCorpID_0Corel-Layer"/>
  <path class="fil0" d="M241 370c1,0 3,-1 3,-2l59 -103c6,-10 5,-20 0,-30l-109 -213c0,-1 -2,-2 -3,-2l-4 0c-2,0 -4,2 -4,4l0 178c0,1 1,3 3,3 16,8 27,25 27,45 0,28 -22,50 -49,50 -28,0 -50,-22 -50,-50 0,-20 11,-37 28,-45 1,0 2,-2 2,-3l0 -178c0,-2 -2,-4 -4,-4l-4 0c-1,0 -2,1 -3,2l-109 213c-5,10 -6,20 0,30l59 103c1,1 2,2 3,2l155 0zm-173 30l190 0c10,15 40,50 25,80l-240 0c-15,-30 15,-65 25,-80zm304 -272l-36 0 0 36 36 0 0 -36zm72 0l-36 0 0 36 36 0 0 -36zm-36 36l-36 0 0 36 36 0 0 -36zm-72 0l-36 0 0 36 36 0 0 -36zm36 -108l-36 0 0 36 36 0 0 -36zm72 0l-36 0 0 36 36 0 0 -36zm-36 36l-36 0 0 36 36 0 0 -36zm-72 0l-36 0 0 36 36 0 0 -36zm144 72l-36 0 0 36 36 0 0 -36zm0 -72l-36 0 0 36 36 0 0 -36zm-72 -72l-36 0 0 36 36 0 0 -36zm-72 0l-36 0 0 36 36 0 0 -36zm144 0l-36 0 0 36 36 0 0 -36z"/>
 </g>
</svg>
