<?xml version="1.0" encoding="UTF-8"?>
<!DOCTYPE svg PUBLIC "-//W3C//DTD SVG 1.1//EN" "http://www.w3.org/Graphics/SVG/1.1/DTD/svg11.dtd">
<!-- Creator: CorelDRAW X8 -->
<svg xmlns="http://www.w3.org/2000/svg" xml:space="preserve" width="100%" height="100%" version="1.1" style="shape-rendering:geometricPrecision; text-rendering:geometricPrecision; image-rendering:optimizeQuality; fill-rule:evenodd; clip-rule:evenodd"
viewBox="0 0 5000 5000"
 xmlns:xlink="http://www.w3.org/1999/xlink">
 <defs>
  <style type="text/css">
   <![CDATA[
    .fil0 {fill:#303030}
   ]]>
  </style>
 </defs>
 <g id="Layer_x0020_1">
  <metadata id="CorelCorpID_0Corel-Layer"/>
  <path class="fil0" d="M2500 4800c234,0 424,-190 424,-424 0,-115 -47,-220 -121,-296l0 -849 600 600c1,107 43,214 124,295 166,166 434,166 599,0 166,-165 166,-433 0,-599 -81,-81 -188,-123 -295,-124l-600 -600 849 0c76,75 181,121 296,121 234,0 424,-190 424,-424 0,-234 -190,-424 -424,-424 -115,0 -220,47 -296,121l-849 0 600 -600c107,-1 214,-43 295,-124 166,-166 166,-434 0,-599 -165,-166 -433,-166 -599,0 -81,81 -123,188 -124,295l-600 600 0 -849c74,-76 121,-181 121,-296 0,-234 -190,-424 -424,-424 -234,0 -424,190 -424,424 0,115 46,220 121,296l0 849 -600 -600c-1,-107 -43,-214 -124,-295 -166,-166 -434,-166 -599,0 -166,165 -166,433 0,599 81,81 188,123 295,124l600 600 -849 0c-76,-74 -181,-121 -296,-121 -234,0 -424,190 -424,424 0,234 190,424 424,424 115,0 220,-46 296,-121l849 0 -600 600c-107,1 -214,43 -295,124 -166,166 -166,434 0,599 165,166 433,166 599,0 81,-81 123,-188 124,-295l600 -600 0 849c-75,76 -121,181 -121,296 0,234 190,424 424,424z"/>
 </g>
</svg>
