<?xml version="1.0" encoding="UTF-8"?>
<!DOCTYPE svg PUBLIC "-//W3C//DTD SVG 1.1//EN" "http://www.w3.org/Graphics/SVG/1.1/DTD/svg11.dtd">
<!-- Creator: CorelDRAW X8 -->
<svg xmlns="http://www.w3.org/2000/svg" xml:space="preserve" width="100%" height="100%" version="1.1" style="shape-rendering:geometricPrecision; text-rendering:geometricPrecision; image-rendering:optimizeQuality; fill-rule:evenodd; clip-rule:evenodd"
viewBox="0 0 5000 5000"
 xmlns:xlink="http://www.w3.org/1999/xlink">
 <defs>
  <style type="text/css">
   <![CDATA[
    .fil0 {fill:#333333}
   ]]>
  </style>
 </defs>
 <g id="Layer_x0020_1">
  <metadata id="CorelCorpID_0Corel-Layer"/>
  <path class="fil0" d="M306 1550l3544 0c29,0 54,10 75,31l844 842c41,41 41,108 0,149l-844 847c-21,20 -46,31 -75,31l-3544 0c-59,0 -106,-48 -106,-106l0 -1688c0,-58 47,-106 106,-106zm3693 660c161,0 291,130 291,290 0,160 -130,290 -291,290 -160,0 -290,-130 -290,-290 0,-160 130,-290 290,-290zm-3324 -343l2565 0c58,0 105,47 105,105l0 1056c0,58 -47,105 -105,105l-2565 0c-58,0 -106,-47 -106,-105l0 -1056c0,-58 48,-105 106,-105zm77 267l2141 0 0 105 -2141 0 0 -105zm0 286l1350 0 0 106 -1350 0 0 -106zm0 337l1806 0 0 106 -1806 0 0 -106z"/>
 </g>
</svg>
