<?xml version="1.0" encoding="UTF-8"?>
<!DOCTYPE svg PUBLIC "-//W3C//DTD SVG 1.1//EN" "http://www.w3.org/Graphics/SVG/1.1/DTD/svg11.dtd">
<!-- Creator: CorelDRAW X8 -->
<svg xmlns="http://www.w3.org/2000/svg" xml:space="preserve" width="100%" height="100%" version="1.1" style="shape-rendering:geometricPrecision; text-rendering:geometricPrecision; image-rendering:optimizeQuality; fill-rule:evenodd; clip-rule:evenodd"
viewBox="0 0 5000 5000"
 xmlns:xlink="http://www.w3.org/1999/xlink">
 <defs>
  <style type="text/css">
   <![CDATA[
    .fil0 {fill:#333333}
   ]]>
  </style>
 </defs>
 <g id="Layer_x0020_1">
  <metadata id="CorelCorpID_0Corel-Layer"/>
  <path class="fil0" d="M4763 3185l-2947 -2947c-24,-24 -53,-36 -87,-36l-1402 -2c-69,0 -124,56 -124,124l-2 1405c0,35 12,64 36,88l2947 2947c48,48 127,48 175,0l1404 -1404c48,-48 48,-127 0,-175zm-3619 -2523c-133,-133 -349,-133 -483,0 -133,134 -133,350 0,483 134,133 350,133 483,0 133,-133 133,-349 0,-483zm3049 2479l-2132 -2132c-49,-49 -128,-49 -176,0l-877 877c-49,48 -48,127 0,175l2132 2132c48,49 127,49 175,1l878 -878c48,-48 48,-127 0,-175zm-287 157l-1779 -1779 -88 87 1780 1780 87 -88zm-238 239l-1122 -1122 -88 87 1122 1122 88 -87zm-280 279l-1501 -1501 -88 88 1501 1501 88 -88z"/>
 </g>
</svg>
