<?xml version="1.0" encoding="UTF-8"?>
<!DOCTYPE svg PUBLIC "-//W3C//DTD SVG 1.1//EN" "http://www.w3.org/Graphics/SVG/1.1/DTD/svg11.dtd">
<!-- Creator: CorelDRAW X7 -->
<svg xmlns="http://www.w3.org/2000/svg" xml:space="preserve" width="100%" height="100%" version="1.1" style="shape-rendering:geometricPrecision; text-rendering:geometricPrecision; image-rendering:optimizeQuality; fill-rule:evenodd; clip-rule:evenodd"
viewBox="0 0 5000 5000"
 xmlns:xlink="http://www.w3.org/1999/xlink">
 <defs>
  <style type="text/css">
   <![CDATA[
    .fil0 {fill:#303030}
   ]]>
  </style>
 </defs>
 <g id="Layer_x0020_1">
  <metadata id="CorelCorpID_0Corel-Layer"/>
  <path class="fil0" d="M3420 200l0 4600 1380 0 0 -4600 -1380 0zm-1590 800l-462 -800 924 0 -462 800zm0 3000l-462 800 924 0 -462 -800zm-1243 -1244l0 546 -387 0 0 -1604 640 0c123,0 231,22 326,68 94,45 167,109 219,192 52,83 77,178 77,283 0,156 -56,281 -168,375 -112,93 -265,140 -461,140l-246 0zm0 -298l253 0c75,0 132,-19 171,-56 40,-37 59,-90 59,-158 0,-75 -20,-135 -60,-180 -41,-45 -96,-68 -165,-68l-258 0 0 462zm1623 -227l263 -533 441 0 -448 795 461 809 -447 0 -270 -543 -270 543 -444 0 459 -809 -447 -795 440 0 262 533zm1787 -1581l0 200 -312 0 0 300 482 0 0 200 -482 0 0 297 312 0 0 200 -312 0 0 300 482 0 0 200 -482 0 0 299 312 0 0 200 -312 0 0 300 482 0 0 200 -482 0 0 306 312 0 0 200 -312 0 0 300 482 0 0 200 -482 0 0 198 850 0 0 -4100 -850 0 0 200 312 0z"/>
 </g>
</svg>
