<?xml version="1.0" encoding="UTF-8"?>
<!DOCTYPE svg PUBLIC "-//W3C//DTD SVG 1.1//EN" "http://www.w3.org/Graphics/SVG/1.1/DTD/svg11.dtd">
<!-- Creator: CorelDRAW X7 -->
<svg xmlns="http://www.w3.org/2000/svg" xml:space="preserve" width="100%" height="100%" version="1.1" style="shape-rendering:geometricPrecision; text-rendering:geometricPrecision; image-rendering:optimizeQuality; fill-rule:evenodd; clip-rule:evenodd"
viewBox="0 0 5000 5000"
 xmlns:xlink="http://www.w3.org/1999/xlink">
 <defs>
  <style type="text/css">
   <![CDATA[
    .fil0 {fill:#303030}
   ]]>
  </style>
 </defs>
 <g id="Layer_x0020_1">
  <metadata id="CorelCorpID_0Corel-Layer"/>
  <path class="fil0" d="M2000 1572c-237,0 -429,191 -429,428 0,226 175,411 397,427l330 331c-92,36 -193,56 -298,56 -225,0 -428,-91 -576,-238 -147,-148 -238,-351 -238,-576 0,-225 91,-428 238,-576 148,-147 351,-238 576,-238 225,0 428,91 576,238 69,69 126,151 166,241l-475 0c-73,-59 -166,-93 -267,-93zm2018 848c23,23 23,60 0,83l-536 537c-23,22 -60,22 -83,0l-537 -537c-22,-23 -22,-60 0,-83l1156 0zm-845 2113l534 267 0 -1535c0,-67 34,-100 67,-134l1001 -1001c34,-33 34,-67 0,-67l-2670 0c-33,0 -33,34 0,67l1002 1001c33,34 66,67 66,136l0 1266zm-1929 -3289c193,-194 461,-314 756,-314 295,0 563,120 756,314 117,117 207,260 260,421l298 0c-34,-132 -87,-257 -157,-370l250 -355c17,-25 22,-57 0,-79l-268 -268c-22,-22 -54,-17 -79,0l-356 250c-117,-71 -246,-126 -384,-159l-75 -429c-5,-29 -25,-55 -55,-55l-380 0c-30,0 -50,26 -55,55l-75 429c-137,33 -267,88 -384,159l-356 -250c-25,-17 -57,-22 -79,0l-268 268c-22,22 -18,54 0,79l250 355c-73,118 -127,247 -161,385l-426 75c-30,5 -56,25 -56,55l0 380c0,30 26,50 56,55l425 74c33,139 88,270 160,389l-248 352c-18,25 -22,57 0,79l268 268c22,22 54,18 79,0l352 -247c119,72 249,128 389,161l74 423c5,30 25,56 55,56l380 0c30,0 50,-26 55,-56l74 -423c138,-33 267,-87 384,-158l-212 -212c-147,76 -314,119 -491,119 -295,0 -563,-120 -756,-314 -194,-193 -314,-461 -314,-756 0,-295 120,-563 314,-756z"/>
 </g>
</svg>
