<?xml version="1.0" encoding="UTF-8"?>
<!DOCTYPE svg PUBLIC "-//W3C//DTD SVG 1.1//EN" "http://www.w3.org/Graphics/SVG/1.1/DTD/svg11.dtd">
<!-- Creator: CorelDRAW X7 -->
<svg xmlns="http://www.w3.org/2000/svg" xml:space="preserve" width="100%" height="100%" version="1.1" style="shape-rendering:geometricPrecision; text-rendering:geometricPrecision; image-rendering:optimizeQuality; fill-rule:evenodd; clip-rule:evenodd"
viewBox="0 0 500 500"
 xmlns:xlink="http://www.w3.org/1999/xlink">
 <defs>
  <style type="text/css">
   <![CDATA[
    .fil0 {fill:#333}
   ]]>
  </style>
 </defs>
 <g id="Layer_x0020_1">
  <metadata id="CorelCorpID_0Corel-Layer"/>
  <path class="fil0" d="M480 107c-17,8 -35,13 -54,15 19,-11 34,-30 41,-52 -18,11 -38,19 -60,23 -17,-18 -41,-30 -69,-30 -52,0 -94,42 -94,94 0,8 1,15 3,22 -79,-4 -148,-42 -195,-99 -8,14 -13,31 -13,48 0,33 17,61 42,78 -15,0 -30,-4 -43,-11 0,0 0,0 0,1 0,45 33,84 76,92 -8,2 -16,4 -25,4 -6,0 -12,-1 -17,-2 12,37 46,65 88,65 -33,26 -73,41 -117,41 -8,0 -16,-1 -23,-1 42,26 91,42 145,42 173,0 268,-144 268,-269 0,-4 0,-8 0,-12 18,-13 34,-30 47,-49l0 0z"/>
 </g>
</svg>
