<?xml version="1.0" encoding="UTF-8"?>
<!DOCTYPE svg PUBLIC "-//W3C//DTD SVG 1.1//EN" "http://www.w3.org/Graphics/SVG/1.1/DTD/svg11.dtd">
<!-- Creator: CorelDRAW X7 -->
<svg xmlns="http://www.w3.org/2000/svg" xml:space="preserve" width="100%" height="100%" version="1.1" style="shape-rendering:geometricPrecision; text-rendering:geometricPrecision; image-rendering:optimizeQuality; fill-rule:evenodd; clip-rule:evenodd"
viewBox="0 0 5000 5000"
 xmlns:xlink="http://www.w3.org/1999/xlink">
 <defs>
  <style type="text/css">
   <![CDATA[
    .fil0 {fill:#3AAAE1}
   ]]>
  </style>
 </defs>
 <g id="Layer_x0020_1">
  <metadata id="CorelCorpID_0Corel-Layer"/>
  <path class="fil0" d="M4800 1073c-169,75 -351,126 -542,149 195,-117 344,-302 415,-522 -182,108 -384,187 -599,229 -172,-183 -418,-298 -689,-298 -521,0 -944,422 -944,944 0,74 8,146 25,215 -785,-40 -1480,-415 -1946,-986 -81,139 -127,301 -127,474 0,327 166,616 419,786 -154,-5 -300,-48 -427,-118 0,3 0,7 0,11 0,458 325,839 757,926 -79,21 -163,33 -249,33 -61,0 -120,-6 -177,-17 120,375 468,648 881,655 -323,253 -730,404 -1172,404 -76,0 -151,-4 -225,-13 418,268 914,424 1447,424 1736,0 2685,-1438 2685,-2685 0,-41 -1,-82 -3,-122 184,-133 344,-299 471,-489l0 0z"/>
 </g>
</svg>
