<?xml version="1.0" encoding="UTF-8"?>
<!DOCTYPE svg PUBLIC "-//W3C//DTD SVG 1.1//EN" "http://www.w3.org/Graphics/SVG/1.1/DTD/svg11.dtd">
<!-- Creator: CorelDRAW X7 -->
<svg xmlns="http://www.w3.org/2000/svg" xml:space="preserve" width="100%" height="100%" version="1.1" style="shape-rendering:geometricPrecision; text-rendering:geometricPrecision; image-rendering:optimizeQuality; fill-rule:evenodd; clip-rule:evenodd"
viewBox="0 0 5000 5000"
 xmlns:xlink="http://www.w3.org/1999/xlink">
 <defs>
  <style type="text/css">
   <![CDATA[
    .fil0 {fill:#6391B9}
   ]]>
  </style>
 </defs>
 <g id="Layer_x0020_1">
  <metadata id="CorelCorpID_0Corel-Layer"/>
  <path class="fil0" d="M2241 150c592,0 1071,491 1071,1098 0,606 -479,1097 -1071,1097 -592,0 -1072,-491 -1072,-1097 0,-607 480,-1098 1072,-1098zm1684 3422c-170,0 -307,137 -307,307 0,170 137,307 307,307 170,0 307,-137 307,-307 0,-170 -137,-307 -307,-307zm-239 -324c13,-5 27,-10 40,-14l31 -326 336 0 31 326c96,30 186,81 260,150l298 -136 168 291 -267 190c23,101 22,203 0,300l267 190 -168 291 -298 -136c-62,57 -136,104 -219,136 -14,5 -27,10 -41,14l-31 326 -336 0 -31 -326c-96,-30 -185,-81 -260,-150l-298 136 -168 -291 267 -190c-23,-101 -22,-204 0,-300l-267 -190 168 -291 298 136c62,-57 136,-104 220,-136zm-1445 1502l-2091 0c0,-1155 936,-2091 2091,-2091 365,0 709,94 1008,259 -302,213 -499,564 -499,961 0,345 149,656 386,871l-895 0z"/>
 </g>
</svg>
