<?xml version="1.0" encoding="UTF-8"?>
<!DOCTYPE svg PUBLIC "-//W3C//DTD SVG 1.1//EN" "http://www.w3.org/Graphics/SVG/1.1/DTD/svg11.dtd">
<!-- Creator: CorelDRAW X7 -->
<svg xmlns="http://www.w3.org/2000/svg" xml:space="preserve" width="100%" height="100%" version="1.1" style="shape-rendering:geometricPrecision; text-rendering:geometricPrecision; image-rendering:optimizeQuality; fill-rule:evenodd; clip-rule:evenodd"
viewBox="0 0 5000 5000"
 xmlns:xlink="http://www.w3.org/1999/xlink">
 <defs>
  <style type="text/css">
   <![CDATA[
    .fil0 {fill:#6391B9}
   ]]>
  </style>
 </defs>
 <g id="Layer_x0020_1">
  <metadata id="CorelCorpID_0Corel-Layer"/>
  <path class="fil0" d="M1579 1379c47,-47 124,-47 171,0l148 148c381,-303 923,-303 1304,0l148 -148c47,-47 124,-47 171,0 47,47 47,124 0,171l-148 148c303,381 303,923 0,1304l148 148c47,47 47,124 0,171 -47,47 -124,47 -171,0l-148 -148c-381,303 -923,303 -1304,0l-148 148c-47,47 -124,47 -171,0 -47,-47 -47,-124 0,-171l148 -148c-303,-381 -303,-923 0,-1304l-148 -148c-47,-47 -47,-124 0,-171zm539 367l432 433 432 -433c-257,-185 -607,-185 -864,0zm1036 172l-433 432 433 432c185,-257 185,-607 0,-864zm-172 1036l-432 -433 -432 433c257,185 607,185 864,0zm-1036 -172l433 -432 -433 -432c-185,257 -185,607 0,864zm-1549 60l53 0 0 -1076 -53 0c-81,0 -147,-66 -147,-147l0 -684c0,-81 66,-147 147,-147l53 0 0 -138c0,-220 180,-400 400,-400l3500 0c220,0 400,180 400,400l0 3500c0,220 -180,400 -400,400l-400 0 0 150c0,27 -22,50 -50,50l-800 0c-27,0 -50,-23 -50,-50l0 -150 -1000 0 0 150c0,27 -22,50 -50,50l-800 0c-27,0 -50,-23 -50,-50l0 -150 -300 0c-220,0 -400,-180 -400,-400l0 -329 -53 0c-81,0 -147,-66 -147,-147l0 -685c0,-81 66,-147 147,-147z"/>
 </g>
</svg>
