<?xml version="1.0" encoding="UTF-8"?>
<!DOCTYPE svg PUBLIC "-//W3C//DTD SVG 1.1//EN" "http://www.w3.org/Graphics/SVG/1.1/DTD/svg11.dtd">
<!-- Creator: CorelDRAW X8 -->
<svg xmlns="http://www.w3.org/2000/svg" xml:space="preserve" width="100%" height="100%" version="1.1" style="shape-rendering:geometricPrecision; text-rendering:geometricPrecision; image-rendering:optimizeQuality; fill-rule:evenodd; clip-rule:evenodd"
viewBox="0 0 500 500"
 xmlns:xlink="http://www.w3.org/1999/xlink">
 <defs>
  <style type="text/css">
   <![CDATA[
    .fil0 {fill:#6A9B17}
   ]]>
  </style>
 </defs>
 <g id="Layer_x0020_1">
  <metadata id="CorelCorpID_0Corel-Layer"/>
  <path class="fil0" d="M158 138c5,-4 13,-4 17,0l15 15c38,-30 92,-30 130,0l15 -15c4,-4 12,-4 17,0 4,5 4,13 0,17l-15 15c30,38 30,92 0,130l15 15c4,4 4,12 0,17 -5,5 -13,5 -17,0l-15 -15c-38,30 -92,30 -130,0l-15 15c-4,5 -12,5 -17,0 -5,-5 -5,-13 0,-17l15 -15c-30,-38 -30,-92 0,-130l-15 -15c-5,-4 -5,-12 0,-17zm54 37l43 43 43 -43c-26,-19 -60,-19 -86,0zm103 17l-43 43 43 43c19,-26 19,-60 0,-86zm-17 103l-43 -43 -43 43c26,19 60,19 86,0zm-103 -17l43 -43 -43 -43c-19,26 -19,60 0,86zm-155 6l6 0 0 -107 -6 0c-8,0 -14,-7 -14,-15l0 -68c0,-8 6,-15 14,-15l6 0 0 -13c0,-22 18,-40 40,-40l348 0c22,0 40,18 40,40l0 348c0,22 -18,40 -40,40l-39 0 0 15c0,3 -3,5 -5,5l-80 0c-3,0 -5,-2 -5,-5l0 -15 -100 0 0 15c0,3 -2,5 -5,5l-80 0c-2,0 -5,-2 -5,-5l0 -15 -29 0c-22,0 -40,-18 -40,-40l0 -32 -6 0c-8,0 -14,-7 -14,-15l0 -68c0,-8 6,-15 14,-15z"/>
 </g>
</svg>
