<?xml version="1.0" encoding="UTF-8"?>
<!DOCTYPE svg PUBLIC "-//W3C//DTD SVG 1.1//EN" "http://www.w3.org/Graphics/SVG/1.1/DTD/svg11.dtd">
<!-- Creator: CorelDRAW X8 -->
<svg xmlns="http://www.w3.org/2000/svg" xml:space="preserve" width="100%" height="100%" version="1.1" style="shape-rendering:geometricPrecision; text-rendering:geometricPrecision; image-rendering:optimizeQuality; fill-rule:evenodd; clip-rule:evenodd"
viewBox="0 0 500 500"
 xmlns:xlink="http://www.w3.org/1999/xlink">
 <defs>
  <style type="text/css">
   <![CDATA[
    .fil0 {fill:#434242}
   ]]>
  </style>
 </defs>
 <g id="Layer_x0020_1">
  <metadata id="CorelCorpID_0Corel-Layer"/>
  <path class="fil0" d="M73 73c70,-71 184,-71 255,0 59,59 68,148 28,217l31 30c34,22 90,50 93,98 2,36 -26,64 -62,62 -47,-3 -77,-59 -99,-93l-29 -30c-69,39 -158,29 -217,-29 -71,-71 -71,-185 0,-255zm27 27c55,-55 145,-55 200,0 56,55 56,145 0,200 -55,56 -145,56 -200,0 -55,-55 -55,-145 0,-200zm125 5l0 71 70 0 0 49 -70 0 0 70 -49 0 0 -70 -71 0 0 -49 71 0 0 -71 49 0z"/>
 </g>
</svg>
